<svg width="44" height="36" viewBox="0 0 44 36" fill="none" xmlns="http://www.w3.org/2000/svg">
<path fill-rule="evenodd" clip-rule="evenodd" d="M28.7226 0.0182869C28.7075 0.0334017 28.3876 0.059939 28.0116 0.077246C27.1381 0.117629 25.2232 0.611573 24.8728 0.886986C24.8034 0.941446 24.7125 0.951945 24.6706 0.910177C24.6288 0.86841 24.5946 0.889178 24.5946 0.95633C24.5946 1.02348 24.455 1.11348 24.2843 1.15628C23.813 1.27443 21.5102 2.85318 20.708 3.608C19.6865 4.56935 18.4793 6.0423 17.8873 7.04946C17.5388 7.64263 17.3201 7.9042 17.2021 7.86889C17.1068 7.84039 16.5243 7.6334 15.9076 7.40887C14.022 6.72235 12.6558 6.47579 10.7337 6.47498C8.97114 6.47429 8.38332 6.56717 6.92191 7.07761C5.75459 7.48525 4.56035 8.1405 3.51974 8.94412C2.82449 9.48099 1.64643 10.8218 1.19537 11.5896C0.18652 13.307 -0.213138 15.5193 0.109245 17.6028C0.237112 18.4295 0.959962 20.6104 1.25647 21.0643C1.3602 21.2229 1.54559 21.5475 1.66849 21.7854C1.7915 22.0234 1.93219 22.2181 1.98128 22.2181C2.03038 22.2181 2.07057 22.2771 2.07057 22.3495C2.07057 22.5651 3.28676 23.9836 4.26199 24.9054C5.45057 26.0288 8.57148 28.3388 9.98287 29.1396C10.1735 29.2477 10.8492 29.6367 11.4845 30.0039C12.1198 30.3713 13.3153 31.0052 14.1412 31.4127C14.967 31.8204 15.7337 32.2032 15.8448 32.2636C15.9559 32.324 16.5797 32.5868 17.2309 32.8476C17.8821 33.1085 18.4669 33.3601 18.5305 33.407C18.594 33.4537 18.7499 33.521 18.877 33.5563C19.0041 33.5916 19.7837 33.8633 20.6096 34.1601C21.4355 34.4569 22.1892 34.7186 22.2845 34.7417C22.3798 34.7647 22.9973 34.9418 23.6566 35.1351C24.316 35.3286 24.9398 35.4864 25.0427 35.4857C25.2962 35.4842 26.3459 34.9884 26.79 34.6605C27.1801 34.3724 27.5813 33.7955 27.654 33.4182C27.7031 33.1634 27.3388 32.8331 27.0088 32.8331C26.7601 32.8331 22.6065 31.4648 21.4425 30.9993C19.1826 30.0958 16.1228 28.6156 14.1412 27.4673C12.7368 26.6535 10.184 25.0315 9.96797 24.8157C9.87175 24.7196 9.75197 24.6411 9.70161 24.6411C9.65125 24.6411 9.48607 24.5222 9.33441 24.3771C9.18286 24.2318 8.64298 23.7655 8.13474 23.3409C7.05463 22.4384 6.62113 21.9921 5.75539 20.8912C4.82706 19.7107 4.54337 19.2307 3.9135 17.7759C3.38193 16.5479 3.18649 14.1625 3.50345 12.7705C4.12419 10.0445 5.58433 9.00723 8.77004 9.0295C10.8506 9.04404 13.3412 9.75086 15.8672 11.0434C16.4465 11.3398 17.0848 11.2604 17.8083 10.802C18.6898 10.2437 18.9434 9.96166 19.3708 9.06469C19.5975 8.58875 19.8707 8.06954 19.9778 7.91089C20.085 7.75224 20.3437 7.31264 20.5529 6.93408C21.0624 6.01172 21.4862 5.44002 22.2236 4.68023C22.9749 3.90638 23.1718 3.74104 23.6791 3.45847C23.8967 3.33721 24.1008 3.20671 24.1326 3.1684C24.1644 3.13021 24.4762 3.00041 24.8257 2.87995C25.297 2.71761 25.774 2.66223 26.6738 2.66546C27.7369 2.66927 27.9864 2.71057 28.6952 2.99995C29.7353 3.42466 30.3766 3.86623 31.2364 4.75027C31.9594 5.49378 32.0641 5.62024 32.309 6.04692C32.9972 7.24595 33.541 8.50856 33.6645 9.19438C33.9327 10.6832 33.979 12.9181 33.7705 14.3145C33.6601 15.0539 33.1659 17.1607 32.9782 17.6922C32.8835 17.9603 32.836 18.1797 32.8728 18.1797C32.9095 18.1797 32.8884 18.2446 32.8257 18.324C32.7633 18.4034 32.6784 18.6091 32.6372 18.7811C32.5961 18.9533 32.3524 19.6855 32.0956 20.4083L31.6287 21.7225L30.693 21.3954C30.1784 21.2155 29.6703 20.9895 29.5637 20.8933C29.4572 20.7969 29.3388 20.7181 29.3007 20.7181C29.2626 20.7181 28.9081 20.4109 28.5129 20.0353C28.1179 19.6598 27.4954 19.1795 27.1297 18.968C26.5124 18.6112 26.4777 18.569 26.6449 18.3817C26.744 18.2706 26.9696 18.1797 27.1462 18.1797C27.5392 18.1797 28.0822 17.9828 28.2001 17.7975C28.3475 17.566 28.2999 14.8247 28.1335 13.9527C27.8341 12.3844 27.1445 11.641 25.4174 11.0244C24.6254 10.7416 24.4444 10.7154 23.9756 10.8152C23.6807 10.8781 23.4396 10.9772 23.4396 11.0355C23.4396 11.0938 23.3609 11.1415 23.2647 11.1415C23.1686 11.1415 22.9909 11.2033 22.8699 11.2788C22.7009 11.3842 22.3732 11.3852 21.4565 11.2833C20.1909 11.1426 19.7188 11.1815 19.5002 11.4445C19.3036 11.6812 19.4266 13.7052 19.6591 14.0595C19.8272 14.3158 21.1407 15.1799 21.3622 15.1799C21.4175 15.1799 21.5382 15.2874 21.6304 15.4187C21.8185 15.6871 21.7908 16.2528 21.5261 17.5452C21.435 17.9894 21.3605 18.49 21.3605 18.6578C21.3604 18.8254 21.1989 19.6562 21.0016 20.5039C20.7293 21.6737 20.6402 22.3369 20.6323 23.2565C20.622 24.4513 20.6283 24.4809 21.0917 25.4081C21.6464 26.5178 22.1506 27.1757 22.7508 27.5724C24.0929 28.4596 24.5323 29.6041 23.5894 29.7569C23.0301 29.8476 22.7465 30.1316 22.7465 30.601C22.7465 30.9652 22.7694 30.987 23.1508 30.987C23.3731 30.987 23.5551 31.0437 23.5551 31.1131C23.5551 31.1937 23.7839 31.2249 24.1905 31.1996C24.6338 31.1721 24.8259 31.2024 24.8258 31.3002C24.8258 31.3773 24.9166 31.4851 25.0278 31.5397C25.2394 31.6436 26.5304 31.6248 26.9837 31.5112C27.4828 31.3861 27.7856 30.2837 27.4783 29.7102C27.3808 29.5283 27.3969 29.487 27.5649 29.487C28.1302 29.487 30.37 30.1103 30.37 30.2676C30.37 30.3043 30.2797 30.434 30.1692 30.5559C29.9767 30.7683 29.9833 30.7908 30.3292 31.0995L30.6899 31.4215L34.0241 31.5076C35.858 31.555 38.2419 31.567 39.3219 31.5343C41.0213 31.483 41.4115 31.4344 42.2212 31.1738C43.1534 30.8736 43.6152 30.5665 43.8813 30.0699C44.1035 29.6553 43.8434 29.4925 43.4893 29.8246C43.0841 30.2048 42.0055 30.5412 40.9687 30.6105C39.7703 30.6908 39.7172 30.6399 39.7508 29.4433C39.7808 28.3696 39.4318 27.0655 38.9285 26.3718C38.2158 25.3892 36.8214 24.3263 34.8618 23.2717C34.1331 22.8794 34.0144 22.7733 34.0487 22.5441C34.0708 22.3966 34.1301 22.2238 34.1803 22.1604C34.3033 22.0054 35.6287 18.5426 35.7482 18.0644C35.7719 17.9692 35.9275 17.45 36.0939 16.9106C36.516 15.542 36.7135 14.8331 36.7852 14.4299C36.8191 14.2395 36.8683 14.0059 36.8946 13.9107C36.9493 13.7128 37.0289 13.1647 37.1709 12.0069C37.2779 11.1352 37.2564 9.21169 37.1304 8.37241C36.7451 5.80692 35.3372 3.20833 33.556 1.77495C32.7897 1.15836 31.5751 0.491347 30.8898 0.310892C30.4298 0.189627 28.7748 -0.0337497 28.7226 0.0182869Z" fill="url(#paint0_linear_3_59)"/>
<path fill-rule="evenodd" clip-rule="evenodd" d="M28.7234 0.01228C28.7079 0.0248565 28.3135 0.0677781 27.8471 0.107469C27.3808 0.147275 26.9613 0.203235 26.915 0.231734C26.8688 0.260348 26.6975 0.307885 26.5344 0.337422C25.9424 0.444611 24.9412 0.802059 24.9412 0.906133C24.9412 0.964746 24.8632 0.982861 24.7679 0.946285C24.6726 0.909825 24.5946 0.917901 24.5946 0.9644C24.5946 1.0109 24.3998 1.13943 24.1615 1.24985C23.458 1.57615 22.3561 2.25031 21.8549 2.66107C21.7775 2.72453 21.5665 2.89541 21.3858 3.04079C20.7383 3.56208 19.8932 4.40285 19.3901 5.02637C19.1084 5.37539 18.8218 5.71288 18.7532 5.77634C18.6846 5.8398 18.4106 6.25517 18.1441 6.69939C17.4314 7.88792 17.3775 7.94538 17.0662 7.84673C16.9187 7.79988 16.7929 7.78223 16.7868 7.80738C16.7806 7.83254 16.6986 7.78939 16.6045 7.71139C16.5105 7.63339 16.0736 7.45559 15.6339 7.31621C15.194 7.17695 14.7822 7.04564 14.7187 7.02441C12.8178 6.39167 9.2092 6.30086 7.82899 6.85123C7.66081 6.91826 7.49957 6.94953 7.47069 6.92069C7.40589 6.85596 6.05294 7.42605 5.17312 7.88873C4.57837 8.20152 4.15053 8.47798 3.53186 8.9493C2.89645 9.43344 1.91371 10.5064 1.45873 11.2127C0.975209 11.9634 0.407371 13.103 0.516757 13.103C0.544479 13.103 0.48996 13.2978 0.395589 13.5357C0.0646589 14.3702 -0.0804192 16.8451 0.146901 17.7759C0.177857 17.9028 0.259059 18.2501 0.327324 18.5477C0.648899 19.9507 1.70534 22.0605 2.50176 22.8897C2.58227 22.9736 2.64811 23.0896 2.64811 23.1476C2.64811 23.2055 3.24321 23.8434 3.97056 24.5652C5.16584 25.7515 7.53249 27.5989 8.9433 28.4471C9.19742 28.5999 9.43132 28.7613 9.46309 28.8057C9.49485 28.8501 9.75474 29.0144 10.0406 29.1707C10.3265 29.327 11.3431 29.894 12.2997 30.4308C13.8504 31.301 14.3539 31.5669 14.5454 31.6166C14.5772 31.6249 14.993 31.8211 15.4695 32.0526C15.946 32.2841 16.5437 32.5601 16.7978 32.6659C17.6532 33.0219 20.1465 34.0097 20.2631 34.0387C20.3266 34.0545 20.4566 34.0968 20.5519 34.1328C21.6271 34.5392 24.1961 35.3312 24.6919 35.4093C25.1702 35.4845 26.2439 35.0837 26.7245 34.6503C26.8476 34.5392 26.9876 34.4484 27.0356 34.4484C27.2055 34.4484 27.6855 33.5015 27.6277 33.2805C27.5769 33.0869 27.1358 32.7282 27.1358 32.8805C27.1358 32.9111 26.837 32.8333 26.4716 32.7078C26.1063 32.5822 25.7944 32.4812 25.7786 32.4832C25.7628 32.4853 25.7237 32.4805 25.692 32.4725C25.6602 32.4645 25.5953 32.4495 25.5476 32.439C25.5 32.4285 25.0191 32.269 24.4791 32.0845C23.9391 31.9 23.4453 31.739 23.3818 31.7268C23.0858 31.6703 19.943 30.3976 19.306 30.0764C18.9119 29.8777 18.5502 29.7157 18.5023 29.7164C18.3735 29.7181 15.0946 28.0906 14.892 27.9243C14.7967 27.8461 14.4328 27.6363 14.0834 27.4582C13.734 27.28 13.0891 26.8847 12.6503 26.5799C12.2115 26.2751 11.7827 26.0256 11.6974 26.0256C11.612 26.0256 11.5422 25.9737 11.5422 25.9102C11.5422 25.8468 11.4894 25.7949 11.425 25.7949C11.2533 25.7949 10.0406 24.9718 10.0406 24.8554C10.0406 24.801 9.97571 24.7562 9.89624 24.7559C9.81689 24.7556 9.55399 24.5739 9.31223 24.352C9.07047 24.1303 8.83472 23.9488 8.7884 23.9488C8.74208 23.9488 8.17748 23.4425 7.53364 22.8238C6.37325 21.7085 5.27708 20.439 5.04282 19.9393C4.97595 19.7965 4.88724 19.6797 4.84577 19.6797C4.8043 19.6797 4.69896 19.498 4.61175 19.2759C4.52454 19.0537 4.41088 18.872 4.35913 18.872C4.3075 18.872 4.26522 18.8234 4.26522 18.7641C4.26522 18.7048 4.20458 18.5101 4.13054 18.3315C4.05639 18.1529 3.98697 17.9807 3.97611 17.949C3.96537 17.9173 3.91708 17.7874 3.86903 17.6605C2.68115 14.5273 3.50715 10.5435 5.53581 9.62174C5.97763 9.42098 6.73109 9.16472 7.09517 9.09122C7.22223 9.06561 7.94993 9.03838 8.71228 9.03088C10.1167 9.01692 11.6561 9.28137 12.6956 9.7152C12.9189 9.80843 13.1016 9.87858 13.1016 9.87108C13.1016 9.79747 14.595 10.4166 15.5273 10.8766C16.4325 11.3233 16.7464 11.3274 17.5949 10.9042C18.4126 10.4962 18.9168 9.95865 19.4431 8.93327C20.1693 7.51847 20.3687 7.16529 20.4652 7.12249C20.5128 7.10126 20.5519 7.01587 20.5519 6.93269C20.5519 6.67169 21.7908 5.04275 22.5376 4.32186C22.9306 3.94237 23.4374 3.54592 23.6635 3.44093C23.8898 3.33593 24.1008 3.21605 24.1326 3.17451C24.1954 3.09225 25.1955 2.7483 25.6441 2.65461C26.018 2.5765 27.3398 2.58388 27.7711 2.66638C28.2594 2.75995 29.4089 3.27789 30.0235 3.68126C30.7085 4.1309 32.1004 5.5757 32.3903 6.13806C32.5168 6.38336 32.6496 6.60997 32.6855 6.6417C32.9575 6.88203 33.6636 8.92381 33.8227 9.93004C33.9262 10.5848 33.9135 13.5201 33.8044 14.1414C33.7767 14.3001 33.7143 14.6635 33.6662 14.9491C33.6179 15.2347 33.4471 15.9616 33.2866 16.5644C33.1263 17.1673 32.9701 17.8039 32.9398 17.9792C32.9094 18.1545 32.8386 18.3264 32.7824 18.361C32.7262 18.3957 32.6802 18.515 32.6802 18.626C32.6802 18.8174 31.6982 21.6221 31.5952 21.725C31.5684 21.7517 31.3989 21.6987 31.2182 21.6073C31.0376 21.516 30.6965 21.4062 30.46 21.3635C30.2237 21.3207 29.8783 21.1581 29.6926 21.0019C29.5069 20.8458 29.3071 20.7181 29.2489 20.7181C29.1906 20.7181 29.0276 20.5623 28.8867 20.372C28.7458 20.1816 28.5776 20.0258 28.5129 20.0258C28.4482 20.0258 28.2808 19.8949 28.141 19.7347C28.0011 19.5746 27.5665 19.2482 27.1753 19.0092C26.3102 18.4808 26.3377 18.2483 27.2794 18.1307C27.6145 18.0889 27.9661 18.0069 28.0609 17.9486C28.2911 17.8067 28.369 15.3147 28.177 14.2298C28.1015 13.8024 28.0436 13.4263 28.0484 13.3939C28.0534 13.3616 27.9113 13.0622 27.7328 12.7287C27.06 11.4721 24.9916 10.5511 23.6706 10.9201C23.5753 10.9467 23.4713 10.9944 23.4396 11.0262C23.4078 11.0579 23.1946 11.1788 22.9657 11.2948C22.6051 11.4775 22.4597 11.4891 21.876 11.3813C21.5056 11.3129 20.85 11.2569 20.4193 11.2569C19.7631 11.2569 19.6165 11.2931 19.5163 11.4801C19.2689 11.9419 19.4489 13.8137 19.7814 14.2367C19.8475 14.3208 20.2773 14.5957 20.7364 14.8474C21.1956 15.0991 21.6381 15.3853 21.7196 15.4835C21.8413 15.6299 21.8205 15.9662 21.604 17.3536C21.4588 18.2839 21.1887 19.76 21.0037 20.6339C20.6552 22.2797 20.5322 24.544 20.7829 24.6987C20.8464 24.738 20.8995 24.8578 20.9009 24.9652C20.9023 25.0725 21.0051 25.2901 21.1294 25.4487C21.2537 25.6074 21.3565 25.8183 21.3579 25.9173C21.3593 26.0164 21.4555 26.1995 21.5718 26.3241C21.688 26.4487 21.8725 26.6869 21.9815 26.8532C22.0907 27.0195 22.3984 27.3001 22.6653 27.4768C24.0554 28.3965 24.5598 29.5199 23.6842 29.7465C23.0122 29.9205 22.7465 30.1613 22.7465 30.5964C22.7465 30.9659 22.7683 30.987 23.1508 30.987C23.3764 30.987 23.5551 31.0451 23.5551 31.1185C23.5551 31.2086 23.7514 31.2297 24.1794 31.1857C24.7277 31.1291 24.8108 31.1483 24.8616 31.3426C24.9144 31.5441 25.2503 31.6466 25.5765 31.5608C25.64 31.544 25.9852 31.5391 26.3437 31.5497C26.9416 31.5673 27.0203 31.5394 27.2966 31.2114C27.6183 30.8296 27.7047 30.1328 27.482 29.7172C27.4184 29.5983 27.4106 29.4736 27.4649 29.4401C27.6148 29.3475 30.0849 30.0079 30.3065 30.1997C30.3747 30.2587 30.3637 30.3472 30.2776 30.4332C30.054 30.6565 30.1171 30.9529 30.4427 31.2089C30.7412 31.4433 30.8395 31.4469 36.247 31.4191L41.7476 31.3908L42.5047 31.096C43.3059 30.784 43.71 30.4649 43.8847 30.0057C44.0407 29.5959 43.799 29.5147 43.4719 29.8671C43.0718 30.2982 41.0815 30.8376 40.3364 30.7169C39.6773 30.6099 39.6337 30.5203 39.6952 29.3985C39.7414 28.5574 39.7104 28.2901 39.5074 27.7809C39.3737 27.4454 39.2642 27.0802 39.2642 26.9692C39.2642 26.2878 36.8995 24.33 34.7099 23.1988C34.3413 23.0084 34.0148 22.7891 33.9841 22.7113C33.9534 22.6337 34.0335 22.4 34.1622 22.1921C34.2907 21.9843 34.3932 21.7725 34.3897 21.7215C34.3863 21.6705 34.5251 21.2811 34.6981 20.8561C34.8713 20.4312 35.0547 19.9797 35.1059 19.8528C35.258 19.475 35.7329 18.1313 35.7581 18.0067C35.771 17.9432 35.9193 17.45 36.0877 16.9106C36.2561 16.3712 36.4072 15.8779 36.4235 15.8144C36.4398 15.751 36.5191 15.4659 36.6 15.181C36.6807 14.896 36.7651 14.5184 36.7876 14.3417C36.8098 14.1652 36.852 13.9822 36.881 13.9354C36.91 13.8884 36.9658 13.5651 37.0049 13.2169C37.0441 12.8687 37.1136 12.2982 37.1595 11.9492C37.3172 10.7476 37.2234 8.75535 36.9556 7.62243C36.8807 7.30513 36.7998 6.95057 36.776 6.83438C36.7522 6.71831 36.7 6.51062 36.66 6.37286C36.5459 5.97918 35.6466 4.16528 35.5443 4.12259C35.4937 4.10136 35.4524 4.0289 35.4524 3.96141C35.4524 3.7753 34.6873 2.85145 33.962 2.1617C33.2826 1.51557 31.7269 0.526531 31.39 0.526531C31.2812 0.526531 31.163 0.479225 31.1272 0.421535C31.0562 0.306616 28.8281 -0.07264 28.7234 0.01228Z" fill="url(#paint1_linear_3_59)"/>
<path fill-rule="evenodd" clip-rule="evenodd" d="M27.8257 0.103547C27.7957 0.132046 27.5632 0.183275 27.3091 0.217658C26.927 0.269349 25.8075 0.538646 25.3454 0.690025C25.2819 0.710909 25.1837 0.730063 25.1273 0.732717C25.0709 0.73537 24.9929 0.780945 24.954 0.83402C24.8657 0.954247 24.1499 1.33419 24.0115 1.33419C23.8897 1.33419 22.0794 2.47069 21.8063 2.71876C21.7015 2.81395 21.4672 3.01286 21.2859 3.1609C20.6164 3.70722 19.6184 4.72903 19.1391 5.3589C18.8678 5.71542 18.594 6.06699 18.5304 6.14014C18.4669 6.21329 18.1824 6.64296 17.8983 7.09491C17.4269 7.84477 17.3532 7.91215 17.0548 7.86519C16.8751 7.83692 16.6657 7.76527 16.5897 7.70608C16.3981 7.55689 14.2781 6.89888 13.5058 6.74877C11.7863 6.41451 10.1498 6.39478 8.42349 6.6875C7.49978 6.84419 5.02213 7.88538 4.36408 8.39352C4.1326 8.57224 3.91498 8.71854 3.88056 8.71854C3.80005 8.71854 2.81581 9.59094 2.36244 10.0643C0.980153 11.5074 0.118579 13.6196 0.0655605 15.6947C0.0146214 17.6923 0.404808 19.3952 1.28001 20.9935C1.78709 21.9197 2.1737 22.5237 2.47483 22.8601C2.53836 22.9311 2.72028 23.1637 2.87911 23.3769C3.644 24.4042 5.79511 26.2976 7.49943 27.4436C7.9759 27.764 8.39173 28.0563 8.42349 28.0931C8.45526 28.13 8.5852 28.2228 8.71226 28.2994C9.21103 28.6001 10.6854 29.5029 10.8492 29.6079C11.7659 30.1958 15.4716 32.0822 17.0288 32.7538C18.1003 33.2159 19.7815 33.8715 19.8951 33.8715C19.9512 33.8715 20.161 33.9431 20.3611 34.0308C21.1689 34.3844 23.8592 35.2202 24.6168 35.3531C24.9618 35.4135 25.256 35.3878 25.5764 35.2691C26.134 35.0627 27.0457 34.4261 27.3653 34.0203C27.6238 33.692 27.6772 33.0811 27.4534 33.012C27.3741 32.9874 26.9972 32.8796 26.616 32.7723C25.2476 32.3868 24.7622 32.2333 24.4039 32.0729C24.2037 31.9833 23.9788 31.91 23.9043 31.91C23.7325 31.91 21.6419 31.1147 20.2053 30.5029C18.7619 29.8882 14.1685 27.6106 13.9679 27.4102C13.9361 27.3784 13.6633 27.2237 13.3615 27.0665C13.0598 26.9091 12.8128 26.7487 12.8128 26.71C12.8128 26.6713 12.6055 26.5404 12.352 26.4192C12.0987 26.2979 11.8908 26.1598 11.89 26.1121C11.8893 26.0645 11.831 26.0256 11.7603 26.0256C11.5873 26.0256 9.45729 24.5647 9.20317 24.2716C9.09205 24.1434 9.00103 24.0715 9.00103 24.1118C9.00103 24.3255 6.50329 21.9046 5.79719 21.0066C5.49779 20.6258 5.1865 20.2456 5.10552 20.1619C5.02455 20.078 4.95825 19.9351 4.95825 19.8446C4.95825 19.7539 4.91228 19.6797 4.85626 19.6797C4.80012 19.6797 4.72446 19.5889 4.68808 19.4778C4.65169 19.3667 4.48548 19.0464 4.31868 18.7658C4.00311 18.2348 3.59918 17.104 3.51174 16.5067C3.48379 16.3163 3.41841 15.9269 3.36632 15.6414C3.26814 15.1034 3.27206 14.4013 3.37972 13.2401C3.44059 12.5843 3.98059 11.0078 4.17106 10.93C4.22281 10.9088 4.2652 10.8289 4.2652 10.7521C4.2652 10.5255 5.22011 9.66339 5.56467 9.57905C5.73943 9.53624 5.88232 9.44936 5.88232 9.38602C5.88232 9.32256 5.96028 9.30064 6.05558 9.33721C6.15087 9.37367 6.22884 9.36444 6.22884 9.31656C6.22884 9.26868 6.31974 9.22114 6.43098 9.21087C6.54221 9.20072 6.78905 9.15872 6.97964 9.11776C7.5536 8.9943 9.59671 8.96038 10.2139 9.06399C11.8931 9.3461 13.4036 9.85227 15.4695 10.8252C15.8824 11.0196 16.3203 11.1974 16.4425 11.2201C16.7499 11.2775 17.4037 11.0474 17.9464 10.6909C18.7579 10.1578 19.0066 9.82989 19.7041 8.3724C19.932 7.89646 20.164 7.48974 20.2196 7.46863C20.2753 7.4474 20.3208 7.36502 20.3208 7.28552C20.3208 6.99107 21.9447 4.80876 22.6142 4.20371C25.4165 1.67053 29.0672 2.09501 31.7852 5.27005C32.2246 5.78326 32.6306 6.4182 32.7546 6.78592C32.792 6.89703 32.8686 6.98784 32.9247 6.98784C32.9807 6.98784 33.0267 7.04264 33.0267 7.10956C33.0267 7.17648 33.1319 7.46194 33.2605 7.74393C33.9753 9.31114 34.1434 12.4179 33.66 15.1222C33.4542 16.2737 32.7465 18.7857 32.4007 19.5926C32.2989 19.8303 32.2194 20.0379 32.2243 20.0541C32.2374 20.0982 32.1081 20.4741 31.8447 21.157C31.6605 21.6348 31.5678 21.7515 31.4225 21.6888C31.3201 21.6447 31.0024 21.5438 30.7165 21.4643C30.0489 21.2789 29.5615 21.0535 29.5615 20.9303C29.5615 20.8771 29.5008 20.8335 29.4267 20.8335C29.3013 20.8335 29.0812 20.6508 28.3072 19.9048C27.624 19.2463 26.5414 18.5867 26.383 18.7324C26.3341 18.7774 26.3794 18.6807 26.4839 18.5175C26.6323 18.2851 26.8276 18.1919 27.3817 18.0889C27.7712 18.0166 28.1221 17.9253 28.1615 17.8862C28.3086 17.74 28.3076 15.1564 28.1602 14.3408C28.0774 13.882 28.0081 13.4549 28.0062 13.3915C28.0043 13.328 27.8693 13.0424 27.7062 12.7569C27.0705 11.6444 25.1373 10.6344 24.067 10.8557C23.8171 10.9073 23.5738 10.9409 23.5262 10.9302C23.4786 10.9195 23.4395 10.9627 23.4395 11.0262C23.4395 11.0896 23.3787 11.1415 23.3043 11.1415C23.2299 11.1415 23.0741 11.2273 22.9581 11.3321C22.7714 11.5009 22.6379 11.5075 21.7939 11.3897C19.5749 11.0799 19.3397 11.1922 19.4269 12.5191C19.517 13.8879 19.6792 14.2164 20.4941 14.6786C20.8753 14.8949 21.3026 15.1202 21.4438 15.1794C21.8009 15.3293 21.8804 15.7746 21.72 16.7284C21.6443 17.1775 21.5279 17.9086 21.461 18.3528C21.3942 18.797 21.1833 19.9008 20.9924 20.8055C20.71 22.1434 20.6537 22.6496 20.6911 23.5169C20.7326 24.4771 20.7825 24.6753 21.1923 25.5064C21.5034 26.1373 21.8488 26.6218 22.2837 27.0372C22.6335 27.3714 23.1926 27.9056 23.5262 28.2242C24.0515 28.726 24.1326 28.8626 24.1326 29.2459C24.1326 29.6691 24.1135 29.6914 23.6927 29.7585C22.7992 29.9012 22.3795 30.8883 23.1796 30.9654C23.3861 30.9854 23.555 31.0574 23.555 31.1255C23.555 31.2076 23.7653 31.2248 24.1771 31.1765C24.7276 31.1118 24.8057 31.129 24.8571 31.3254C24.909 31.524 25.0263 31.5474 25.9658 31.5474C26.9523 31.5474 27.0306 31.5296 27.2463 31.2555C27.55 30.8699 27.6614 30.2375 27.4913 29.8644C27.4101 29.6864 27.3978 29.5253 27.4606 29.4626C27.5748 29.3485 28.7292 29.5994 29.8103 29.9732L30.4634 30.1992L30.2723 30.5421C30.0846 30.8791 30.087 30.8897 30.413 31.1535L30.7447 31.422L35.8183 31.4413C40.6641 31.4599 40.9369 31.4496 41.8973 31.2117C43.2302 30.8815 44.0338 30.2678 43.8271 29.7376C43.7613 29.5691 43.7232 29.5797 43.526 29.8212C43.2486 30.161 41.905 30.6229 40.9148 30.7191C40.3564 30.7733 40.1331 30.7466 39.9076 30.5991C39.6286 30.4165 39.6204 30.3766 39.6851 29.5156C39.7399 28.7859 39.7073 28.4899 39.5082 27.9042C39.374 27.5095 39.2641 27.109 39.2641 27.014C39.2641 26.919 39.117 26.6707 38.9371 26.4623C38.7573 26.2538 38.5765 25.9912 38.5354 25.8787C38.4944 25.7662 38.3698 25.6393 38.2585 25.5967C38.1473 25.554 37.9335 25.3734 37.7834 25.1952C37.6333 25.017 37.4676 24.8977 37.4153 24.93C37.363 24.9621 37.3028 24.9454 37.2814 24.8926C37.2364 24.7809 35.4683 23.6383 34.8748 23.3372C34.6525 23.2245 34.343 23.0352 34.1872 22.9166C33.924 22.7163 33.9152 22.6777 34.063 22.373C34.1505 22.1926 34.213 22.006 34.202 21.9584C34.1909 21.9109 34.2251 21.8719 34.278 21.8719C34.331 21.8719 34.3748 21.8071 34.3754 21.7277C34.376 21.6484 34.5624 21.1162 34.7896 20.545C35.6017 18.5035 36.5941 15.4321 36.6405 14.8162C36.6494 14.6989 36.7006 14.6029 36.7544 14.6029C36.8081 14.6029 36.8244 14.5581 36.7904 14.5033C36.7566 14.4486 36.8139 14.0202 36.9177 13.5514C37.0544 12.9355 37.1096 12.0754 37.117 10.4493C37.1261 8.44486 37.0978 8.08626 36.8578 7.16321C36.7096 6.59347 36.5544 6.07425 36.513 6.00941C36.4716 5.94468 36.4367 5.86576 36.4355 5.83403C36.432 5.746 35.6455 4.16909 35.5722 4.10333C35.5369 4.0716 35.3676 3.82918 35.1959 3.5645C34.7768 2.91848 33.7008 1.87648 32.8596 1.30223C31.6821 0.498263 30.421 0.113008 28.8427 0.0750479C28.3134 0.062356 27.8558 0.075163 27.8257 0.103547Z" fill="url(#paint2_linear_3_59)"/>
<path fill-rule="evenodd" clip-rule="evenodd" d="M27.813 0.119235C27.7858 0.146465 27.5833 0.189156 27.363 0.214193C27.1427 0.239115 26.5727 0.382533 26.0962 0.532874C25.6198 0.683215 25.1779 0.808287 25.1144 0.810595C25.0509 0.813018 24.9729 0.84094 24.941 0.87267C24.8084 1.00501 24.1014 1.33419 23.95 1.33419C23.8599 1.33419 23.7861 1.38611 23.7861 1.44957C23.7861 1.51303 23.7276 1.56495 23.6562 1.56495C23.5848 1.56495 23.2151 1.77264 22.8345 2.02647C22.454 2.28031 22.1225 2.488 22.098 2.488C22.0173 2.488 21.5934 2.87671 20.3991 4.04563C19.6341 4.79445 18.9067 5.65831 18.3267 6.5067C17.8352 7.22575 17.4331 7.86173 17.4331 7.92011C17.4331 8.06272 17.3809 8.0558 16.8808 7.84707C16.6445 7.74842 16.4378 7.67158 16.4213 7.67631C16.4046 7.68092 16.2487 7.61181 16.0747 7.52251C15.7815 7.37217 14.2833 6.92068 13.7012 6.80726C12.4313 6.55989 11.8843 6.50531 10.7336 6.51085C10.0031 6.51443 9.24937 6.54223 9.05878 6.5727C8.08493 6.72857 6.14371 7.38797 5.44257 7.80115C5.23246 7.92495 5.0078 8.02626 4.94335 8.02626C4.87901 8.02626 4.7583 8.09122 4.67537 8.17048C4.59243 8.24987 4.40693 8.39259 4.26335 8.48778C3.56684 8.94919 1.95319 10.3339 2.11178 10.3339C2.15764 10.3339 2.08464 10.4506 1.94984 10.5935C1.22387 11.3619 0.30512 13.4632 0.146296 14.7183C-0.00721373 15.9314 0.107601 17.9806 0.354904 18.4421C0.419357 18.5625 0.445578 18.6875 0.413236 18.72C0.342198 18.7908 0.780551 19.9909 0.994472 20.3112C1.0781 20.4362 1.14648 20.631 1.14648 20.7438C1.14648 20.8566 1.18876 20.9489 1.24039 20.9489C1.29214 20.9489 1.4058 21.1306 1.49301 21.3527C1.58021 21.5748 1.69387 21.7565 1.74562 21.7565C1.79725 21.7565 1.83953 21.8131 1.83953 21.8823C1.83953 22.0909 3.23279 23.8014 4.03418 24.5765C5.45008 25.946 5.76934 26.2061 7.67269 27.5412C8.05386 27.8087 8.39172 28.0573 8.42349 28.0938C8.48563 28.1651 8.48367 28.164 9.86734 28.9766C10.3756 29.2751 10.8087 29.564 10.8299 29.6186C10.8511 29.6731 10.92 29.7178 10.983 29.7178C11.0461 29.7178 11.4491 29.9228 11.8788 30.1735C12.6608 30.6298 15.7966 32.2176 15.9612 32.2408C16.0092 32.2475 16.2951 32.3774 16.5965 32.5294C17.0858 32.7761 19.5085 33.76 19.801 33.8308C19.8646 33.8461 20.4363 34.0437 21.0716 34.2699C23.0094 34.9596 24.7076 35.4021 25.1762 35.3393C25.7795 35.2586 26.3122 34.9805 26.943 34.4175C27.3974 34.0119 27.4943 33.8541 27.5151 33.4861L27.5401 33.0429L26.0385 32.6053C25.2126 32.3645 24.3549 32.1012 24.1326 32.0201C23.9102 31.939 23.3645 31.7451 22.9197 31.5895C21.9931 31.2651 18.5882 29.8513 18.4149 29.7188C18.3514 29.6704 17.8722 29.4443 17.3501 29.2167C16.8279 28.989 16.0222 28.5871 15.5597 28.3234C15.0971 28.0598 14.4588 27.7009 14.1411 27.5259C13.0569 26.9285 12.8143 26.7756 12.8135 26.689C12.8131 26.6414 12.7515 26.6025 12.6765 26.6025C12.3836 26.6025 9.11654 24.3509 9.11654 24.1491C9.11654 24.0812 9.08443 24.0578 9.04515 24.097C8.92491 24.2171 6.57536 22.0889 6.57536 21.8599C6.57536 21.7955 6.52338 21.775 6.45985 21.8142C6.39632 21.8535 6.34434 21.8417 6.34434 21.7881C6.34434 21.6947 5.93106 21.1599 5.50691 20.7044C5.39579 20.5851 5.30477 20.4354 5.30477 20.372C5.30477 20.3085 5.26573 20.2562 5.21814 20.2559C5.04095 20.2544 4.09563 18.4696 3.78399 17.5479C3.37348 16.3339 3.28742 15.7496 3.29967 14.2568C3.30787 13.2562 3.36458 12.8846 3.62528 12.1223C3.98151 11.081 4.36454 10.4296 4.87162 10.0034C5.34555 9.60501 5.95231 9.29256 6.38604 9.22345C6.58552 9.19172 6.87857 9.13553 7.03739 9.0986C7.51814 8.9868 9.83222 8.96269 10.3871 9.06364C11.8649 9.33271 14.3217 10.1939 15.7571 10.9463C16.0118 11.0799 16.3502 11.1923 16.5091 11.1962C16.8142 11.2037 17.4511 11.0349 17.5486 10.9207C17.5804 10.8835 17.7883 10.752 18.0107 10.6284C18.6128 10.2938 19.1231 9.60478 19.7462 8.28517C19.9632 7.8255 20.1813 7.44936 20.2308 7.44936C20.2803 7.44936 20.3219 7.38451 20.3231 7.30513C20.3252 7.1766 20.531 6.84349 21.5216 5.36639C21.8622 4.85872 23.4135 3.41104 23.6172 3.41104C23.6995 3.41104 23.7841 3.37204 23.8054 3.3245C23.883 3.14993 24.7054 2.80656 25.3848 2.66487C26.2999 2.47415 27.5383 2.54199 28.3936 2.82987C31.0784 3.7333 33.3305 6.57789 33.7863 9.64158C33.8194 9.86369 33.8727 10.1217 33.9047 10.215C33.9738 10.4159 33.9713 13.2635 33.9018 13.6799C33.8752 13.8385 33.7913 14.3578 33.7151 14.8337C33.4923 16.2274 32.6608 19.2632 32.4369 19.5008C32.3801 19.5611 32.3337 19.6857 32.3337 19.7778C32.3337 19.8697 32.1699 20.3758 31.9696 20.9024L31.6055 21.8597L31.2625 21.6826C31.074 21.5852 30.7842 21.4809 30.6187 21.4509C30.1134 21.3594 29.3082 20.8573 28.5796 20.1793C27.7292 19.3878 26.5747 18.6177 26.3993 18.725C26.3279 18.7688 26.3533 18.6769 26.4557 18.5209C26.5967 18.3064 26.8198 18.2017 27.3729 18.0904C27.775 18.0096 28.1326 17.9147 28.1679 17.8796C28.3121 17.7354 28.2781 14.9051 28.1232 14.1668C28.0346 13.7443 27.9871 13.3581 28.0177 13.3085C28.0484 13.259 28.024 13.2184 27.9636 13.2184C27.9033 13.2184 27.8234 13.097 27.7861 12.9486C27.5391 11.9658 25.2165 10.6335 24.1542 10.8654C23.9199 10.9165 23.6639 10.9535 23.5852 10.9476C23.5064 10.9417 23.4705 10.9829 23.5054 11.0392C23.5401 11.0955 23.4787 11.1415 23.3688 11.1415C23.2589 11.1415 23.0716 11.2295 22.9528 11.337C22.7588 11.5122 22.6378 11.5182 21.7826 11.3947C19.7384 11.0994 19.3917 11.2434 19.4038 12.3819C19.4077 12.7467 19.4986 13.3238 19.6059 13.6643C19.7955 14.266 19.827 14.2973 20.7251 14.7783C21.9045 15.4101 21.9389 15.4965 21.6559 17.1185C21.5375 17.7974 21.4211 18.5739 21.3975 18.8441C21.3738 19.1142 21.1998 20.0154 21.0109 20.8468C20.5327 22.9505 20.5383 23.9977 21.0336 25.1304C21.4556 26.0953 22.1605 27.0815 22.6775 27.4301C22.8742 27.5627 23.2822 27.9295 23.5839 28.2452C24.0405 28.7229 24.1326 28.8924 24.1326 29.2557C24.1326 29.6614 24.1047 29.6974 23.7365 29.7664C23.2055 29.8658 22.8785 30.163 22.8377 30.5831C22.8079 30.8912 22.8424 30.9335 23.1508 30.9683C23.3414 30.9899 23.5617 31.0607 23.6406 31.1258C23.7251 31.1956 23.9978 31.2122 24.3048 31.1663C24.7247 31.1034 24.8256 31.1216 24.8256 31.2605C24.8256 31.4856 25.0583 31.5394 26.0385 31.5411C26.5365 31.542 26.945 31.4803 27.1022 31.3806C27.4643 31.1507 27.6647 30.4214 27.4973 29.9421C27.237 29.1961 27.1632 29.1979 29.5903 29.891C30.475 30.1435 30.5805 30.2294 30.3365 30.4987C30.0755 30.7869 30.0841 30.8355 30.4538 31.1531L30.7685 31.4236L36.1425 31.4066L41.5165 31.3896L42.3427 31.0924C43.4212 30.7044 44.1879 29.9187 43.7511 29.6491C43.6685 29.598 43.6491 29.6174 43.7002 29.6999C43.7455 29.7732 43.7254 29.8332 43.6554 29.8332C43.5855 29.8332 43.4224 29.9317 43.2929 30.0522C43.1635 30.1726 42.9188 30.299 42.7491 30.3329C42.5795 30.3668 42.1547 30.4788 41.8053 30.5819C41.0532 30.8037 39.8778 30.7674 39.7175 30.5174C39.6593 30.4267 39.6437 29.9859 39.6829 29.5381C39.743 28.849 39.7062 28.5707 39.4426 27.7257C39.2668 27.1626 38.9802 26.537 38.7847 26.2901C38.4012 25.8058 37.6933 25.1081 37.4041 24.9295C37.233 24.8238 36.6418 24.4359 35.9144 23.9521C35.7005 23.8098 34.1663 22.9789 33.8592 22.8389C33.82 22.8211 34.211 21.9581 34.2973 21.8719C34.3291 21.8402 34.3708 21.7363 34.39 21.6412C34.4093 21.546 34.6257 20.9489 34.871 20.3143C35.4965 18.6956 36.2019 16.5472 36.4431 15.526C36.5555 15.05 36.6775 14.6347 36.7141 14.6029C36.7507 14.5712 36.7834 14.4155 36.7866 14.2568C36.7898 14.0982 36.8648 13.5789 36.9531 13.103C37.1301 12.149 37.1776 9.43667 37.0381 8.24583C36.989 7.82711 36.8421 7.1811 36.7115 6.81003C36.581 6.43908 36.4671 6.04171 36.4584 5.92714C36.4499 5.81245 36.4018 5.71865 36.3518 5.71865C36.3018 5.71865 36.2609 5.63581 36.2609 5.5345C36.2609 5.33086 35.9066 4.64469 35.77 4.58411C35.7223 4.56288 35.6834 4.46839 35.6834 4.37389C35.6834 4.27951 35.6185 4.13436 35.539 4.05152C35.4597 3.96867 35.3167 3.78383 35.2214 3.64088C34.2159 2.13262 32.4698 0.841632 30.7743 0.352765C30.1487 0.172425 27.9345 -0.002145 27.813 0.119235Z" fill="url(#paint3_linear_3_59)"/>
<path fill-rule="evenodd" clip-rule="evenodd" d="M27.3091 0.238891C26.8644 0.320695 26.0587 0.553302 25.5187 0.75568C24.9787 0.958173 24.3679 1.18386 24.1615 1.25724C23.9551 1.33062 23.7861 1.42985 23.7861 1.47785C23.7861 1.52573 23.726 1.56496 23.6526 1.56496C23.5792 1.56496 23.3488 1.69476 23.1405 1.85341C22.9323 2.01206 22.7064 2.14186 22.6388 2.14186C22.571 2.14186 22.5155 2.19032 22.5155 2.24951C22.5155 2.3087 22.4065 2.39166 22.2731 2.43389C22.1398 2.47623 21.9407 2.59658 21.8309 2.70134C21.7209 2.80611 21.2804 3.20094 20.8518 3.57881C19.8833 4.43274 18.1885 6.58032 17.3541 8.01069C17.3406 8.03388 16.9501 7.89819 16.4862 7.70931C14.5062 6.90292 12.9209 6.56266 11.0225 6.53682C8.6572 6.50451 7.00751 6.94688 4.67159 8.23949C4.48216 8.34437 4.25761 8.49506 4.17248 8.57432C4.08735 8.6537 3.98247 8.71878 3.93939 8.71913C3.89619 8.71936 3.67557 8.88816 3.44894 9.09411C3.22231 9.30007 2.8193 9.66328 2.55341 9.9012C2.28751 10.1392 2.10512 10.3339 2.14809 10.3339C2.19117 10.3339 2.11909 10.4506 1.98799 10.5935C1.63211 10.9809 0.98342 12.0524 0.747783 12.6415C0.265999 13.8467 0.125079 14.7201 0.161349 16.276C0.180639 17.1009 0.219912 17.8538 0.248558 17.949C0.277319 18.0442 0.339347 18.3297 0.386358 18.5836C0.539406 19.4099 1.14582 20.7951 1.82594 21.8719C3.28573 24.1831 5.9006 26.4869 9.83261 28.9262C12.2314 30.4141 15.2765 31.9794 17.7797 33.011C18.1926 33.1812 18.6344 33.3653 18.7615 33.4202C19.9154 33.9189 24.5028 35.3714 24.9239 35.3714C25.3068 35.3714 26.0963 35.126 26.0963 35.0071C26.0963 34.9536 26.1649 34.9099 26.2488 34.9099C26.4966 34.9099 27.4412 33.9354 27.528 33.5903C27.6368 33.1572 27.4628 32.988 26.7529 32.8365C25.494 32.5678 20.1619 30.6674 19.3169 30.1861C19.202 30.1207 18.3438 29.7068 17.4097 29.2665C15.4569 28.3458 13.2906 27.1153 11.138 25.7038C9.40153 24.5652 8.98258 24.2399 9.09405 24.1162C9.13817 24.0673 9.11784 24.0592 9.04888 24.0984C8.97981 24.1376 8.56398 23.8559 8.12482 23.4721C6.70245 22.2295 5.67801 21.0682 4.84612 19.7554C4.17872 18.702 4.09717 18.5335 3.74914 17.4895C2.80406 14.6537 3.2185 11.5791 4.74517 10.0992C5.00472 9.84755 5.28887 9.64159 5.37654 9.64159C5.46409 9.64159 5.53582 9.59798 5.53582 9.54467C5.53582 9.30768 7.43039 8.92623 8.60776 8.92623C9.67748 8.92623 10.4354 9.02465 11.6 9.31483C12.4618 9.52967 14.7425 10.3948 15.9315 10.9581C16.2174 11.0934 16.5293 11.1969 16.6246 11.1879C17.0433 11.1483 17.5487 10.9889 17.5487 10.8964C17.5487 10.8409 17.6266 10.7954 17.7219 10.7954C17.8172 10.7954 17.8952 10.7469 17.8952 10.6877C17.8952 10.6286 18.0068 10.5448 18.1431 10.5016C18.4981 10.389 18.8674 9.92543 19.2875 9.06469C19.7341 8.14984 20.8209 6.2861 21.2666 5.67089C21.9476 4.731 23.3472 3.41105 23.6628 3.41105C23.7307 3.41105 23.7861 3.37182 23.7861 3.32382C23.7861 3.16448 24.8723 2.74761 25.6623 2.60396C27.5802 2.25493 29.6262 2.98771 31.1779 4.57939C31.5912 5.0033 31.9819 5.42017 32.0458 5.50555C32.723 6.40921 33.5543 8.13184 33.6801 8.89162C33.7011 9.01854 33.7435 9.27814 33.7744 9.46852C34.1908 12.0319 34.0434 14.1079 33.238 17.0259C33.0541 17.6923 32.8895 18.2894 32.8722 18.3528C32.7913 18.6505 32.5049 19.488 32.1424 20.4874C31.9236 21.0902 31.7222 21.6502 31.6947 21.7317C31.6554 21.8486 31.5712 21.8419 31.2974 21.7006C31.1063 21.6018 30.9365 21.5305 30.9199 21.5419C30.9034 21.5534 30.6819 21.4969 30.4278 21.4165C29.8623 21.2374 29.1944 20.8048 28.5803 20.2196C27.9474 19.6163 26.7299 18.7566 26.5087 18.7566C26.4089 18.7566 26.3289 18.7176 26.331 18.6701C26.3422 18.4067 26.7049 18.1857 27.309 18.0742C27.6844 18.0048 28.0376 17.902 28.0941 17.8456C28.2463 17.6935 28.2261 14.5096 28.0691 13.9369C27.9949 13.6657 27.9654 13.3931 28.0038 13.3311C28.0421 13.2692 28.022 13.2184 27.9589 13.2184C27.896 13.2184 27.808 13.1016 27.7635 12.9588C27.6681 12.653 27.0433 11.8338 26.9055 11.8338C26.853 11.8338 26.5917 11.691 26.3248 11.5165C26.058 11.3421 25.8064 11.1962 25.7658 11.1927C25.7252 11.189 25.3997 11.0908 25.0426 10.9742C24.5133 10.8017 24.3238 10.7867 24.0186 10.893C23.8125 10.9647 23.59 10.99 23.524 10.9493C23.4579 10.9085 23.4332 10.9225 23.4691 10.9805C23.5049 11.0385 23.3278 11.1863 23.0755 11.3088C22.6555 11.5129 22.5358 11.5202 21.6649 11.3943C20.2833 11.1948 19.9006 11.2152 19.6123 11.5031C19.3912 11.724 19.3724 11.8372 19.4303 12.6008C19.5263 13.8689 19.7409 14.2092 20.8406 14.8359C22.0084 15.5015 21.9798 15.3585 21.5114 18.1797C21.4851 18.3384 21.4606 18.5461 21.457 18.6413C21.4535 18.7365 21.3233 19.4114 21.1678 20.1412C20.7509 22.0971 20.7552 22.0655 20.7396 23.3184C20.7254 24.4602 20.7321 24.4904 21.2118 25.453C21.6901 26.4129 21.9087 26.6742 23.4179 28.0887C24.12 28.747 24.1457 28.7907 24.1109 29.2738C24.0872 29.6035 24.0246 29.7653 23.9284 29.7459C23.8479 29.7297 23.6028 29.7912 23.3839 29.8826C22.9848 30.0492 22.7675 30.4592 22.8982 30.7993C22.9756 31.0007 23.5591 31.1294 24.321 31.1129C24.81 31.1022 24.9235 31.1378 24.9704 31.3167C25.0202 31.5069 25.1448 31.5335 25.9856 31.5335C26.8469 31.5335 26.9698 31.5057 27.1991 31.2586C27.5308 30.901 27.6344 30.3542 27.461 29.8753C27.3849 29.6649 27.3595 29.456 27.4045 29.411C27.4495 29.3659 27.7324 29.3915 28.0331 29.4679C28.3338 29.5443 28.7056 29.6304 28.8594 29.6594C29.0133 29.6885 29.472 29.8228 29.8787 29.958L30.6183 30.2039L30.3537 30.4852L30.089 30.7665L30.4317 31.0852L30.7743 31.4037L36.0877 31.3973C41.269 31.3909 41.4211 31.3843 42.2074 31.1318C42.7917 30.9441 43.14 30.7465 43.4724 30.4146C43.7245 30.1626 43.8986 29.9242 43.859 29.8846C43.8195 29.8452 43.5513 29.9509 43.2631 30.1197C42.9749 30.2883 42.7114 30.4241 42.6777 30.4214C42.6439 30.4186 42.5508 30.4375 42.4707 30.4633C41.5942 30.7457 40.2045 30.8348 39.8269 30.6329C39.6165 30.5204 39.6026 30.4317 39.6689 29.6233C39.7308 28.8679 39.6978 28.5935 39.4452 27.765C39.105 26.6495 39.0188 26.4987 38.3271 25.8084C37.7953 25.2775 36.5648 24.2949 36.4319 24.2949C36.3893 24.2949 36.2164 24.1968 36.0477 24.077C35.8791 23.9571 35.3253 23.6383 34.8171 23.3685C34.3089 23.0988 33.8795 22.8674 33.863 22.8545C33.8464 22.8416 34.0981 22.1869 34.4223 21.3996C35.0797 19.803 35.9891 17.1343 36.3843 15.6414C36.5272 15.102 36.6748 14.6347 36.7124 14.603C36.75 14.5712 36.7858 14.3895 36.792 14.1991C36.7982 14.0087 36.8712 13.4636 36.9542 12.9876C37.1194 12.0409 37.1744 9.34622 37.0472 8.4301C36.8733 7.17706 36.0541 4.71023 35.7701 4.58412C35.7223 4.56289 35.6834 4.49355 35.6834 4.42986C35.6834 4.31021 35.0649 3.39489 34.7594 3.06225C34.6641 2.95852 34.4765 2.74795 34.3424 2.59427C33.4412 1.56092 31.7995 0.593801 30.4278 0.288158C29.5556 0.0937419 28.2134 0.0726275 27.3091 0.238891Z" fill="url(#paint4_linear_3_59)"/>
<path fill-rule="evenodd" clip-rule="evenodd" d="M28.6084 0.132042C28.5926 0.147734 28.2938 0.17554 27.9444 0.194001C27.3384 0.225961 26.2052 0.489721 25.4609 0.772172C24.3837 1.18085 22.5455 2.18478 21.8994 2.71726C21.3315 3.18512 21.1375 3.35889 20.5036 3.96683C19.6836 4.75349 18.7387 5.92772 17.9529 7.13714C17.6353 7.626 17.3168 8.02603 17.2453 8.02614C17.1738 8.02626 16.8219 7.89657 16.4631 7.73815C16.1044 7.57962 15.3027 7.29924 14.6816 7.11487C10.1932 5.78291 5.7764 6.81049 2.59404 9.92692C2.40137 10.1155 2.20478 10.2583 2.15719 10.2442C2.10948 10.23 2.08107 10.2574 2.09389 10.305C2.10683 10.3526 1.87997 10.755 1.58981 11.1992C0.873315 12.2963 0.752031 12.5537 0.448822 13.6222C0.115004 14.7984 0.0394621 16.8674 0.292887 17.8913C0.387141 18.272 0.482897 18.7393 0.505652 18.9297C0.528408 19.1201 0.807937 19.8239 1.12685 20.4937C2.10798 22.5543 3.9486 24.6931 6.22885 26.4219C10.8302 29.9109 16.9184 32.976 22.9198 34.8251C24.7532 35.39 24.9104 35.4171 25.4351 35.2601C26.4156 34.9667 27.4823 34.0068 27.4823 33.4179C27.4823 33.1171 27.4275 33.0818 26.5871 32.8419C24.4443 32.2302 22.0878 31.3873 19.6278 30.353C18.8512 30.0264 15.6478 28.4465 14.8342 27.9888C11.8407 26.3047 8.94178 24.3686 9.07982 24.1455C9.12013 24.0803 9.09529 24.0637 9.02356 24.1079C8.81461 24.2369 6.41447 22.0385 6.54106 21.8341C6.57953 21.7718 6.56116 21.7517 6.50006 21.7894C6.43907 21.827 6.23612 21.6721 6.04911 21.445C5.86211 21.2179 5.65708 20.9745 5.59355 20.904C5.31518 20.5951 4.50443 19.3466 4.27399 18.872C3.05711 16.3654 2.8939 13.4803 3.84822 11.3473C4.63934 9.57928 6.27516 8.80196 9.00104 8.89865C10.8582 8.96453 12.8465 9.51732 15.1807 10.6164C16.1978 11.0954 16.4018 11.1531 16.8877 11.0984C17.1911 11.0642 17.5268 10.9491 17.6334 10.8426C17.7401 10.736 17.9856 10.58 18.179 10.4959C18.3722 10.4117 18.4844 10.3409 18.4281 10.3384C18.3717 10.3359 18.4602 10.1994 18.6246 10.0353C18.7891 9.87096 19.1919 9.20902 19.5197 8.56416C20.6421 6.35636 21.8664 4.65853 22.9161 3.85445C23.2357 3.60949 23.5493 3.36881 23.6128 3.31943C23.6763 3.27016 23.9731 3.11555 24.2722 2.97594C26.5682 1.90429 29.397 2.60915 31.4004 4.75188C33.1251 6.59681 33.9272 8.65104 34.0076 11.43C34.0797 13.9183 33.7254 15.8366 32.5316 19.4213C31.7793 21.6806 31.6959 21.869 31.4756 21.8064C30.0509 21.4014 29.5835 21.1309 28 19.7951C27.5111 19.3826 26.9508 18.9896 26.755 18.9217C26.5592 18.8539 26.3845 18.7501 26.367 18.691C26.2992 18.463 26.6688 18.1665 27.0947 18.1072C27.6969 18.0234 28.1863 17.8293 28.1093 17.7048C28.0747 17.6488 28.0796 17.5488 28.1205 17.4828C28.2218 17.3191 28.1862 15.1916 28.0656 14.1991C28.0116 13.7549 27.9962 13.3445 28.0315 13.287C28.0667 13.2297 28.041 13.2163 27.9745 13.2575C27.9076 13.2988 27.8222 13.2075 27.7835 13.0534C27.6124 12.3726 26.6506 11.6017 25.3357 11.0915C24.6267 10.8164 24.4584 10.7902 24.076 10.8958C23.8332 10.9627 23.5776 10.9852 23.5082 10.9456C23.4386 10.9062 23.4206 10.9165 23.468 10.9688C23.5154 11.0211 23.3953 11.1603 23.2011 11.2783C22.8845 11.4706 22.6886 11.4848 21.3088 11.4157L19.7695 11.3385L19.6191 11.6151C19.4784 11.8737 19.4715 12.0815 19.569 13.103C19.6637 14.0942 19.8564 14.3085 21.3026 15.0305L21.7647 15.2613L21.7565 16.0571C21.7448 17.1946 21.6826 17.835 21.5773 17.8999C21.5271 17.931 21.5116 18.0229 21.5428 18.1044C21.5741 18.1857 21.4689 18.872 21.309 19.6294C21.1491 20.3868 20.9894 21.2402 20.9542 21.5258C20.9189 21.8113 20.8355 22.2485 20.769 22.4972C20.6426 22.9693 20.6669 24.1933 20.8047 24.2973C20.8485 24.3304 20.9085 24.4908 20.9381 24.6538C21.0549 25.2976 21.7452 26.4292 22.3698 27.0013C24.0996 28.5852 24.1326 28.6274 24.1326 29.2559C24.1326 29.7725 24.1052 29.835 23.8727 29.8507C23.7297 29.8604 23.5403 29.8737 23.4516 29.8801C23.1818 29.9 22.8284 30.4686 22.9155 30.7426C22.9772 30.937 23.0604 30.9757 23.3198 30.9301C23.5419 30.891 23.6672 30.9272 23.7119 31.0435C23.7627 31.1757 23.8976 31.198 24.308 31.1418C24.7552 31.0807 24.8635 31.1051 24.9987 31.2977C25.1338 31.4905 25.2966 31.5271 26.0396 31.5319C26.7865 31.5366 26.9542 31.5012 27.1435 31.2981C27.3582 31.0681 27.4145 30.9271 27.3764 30.7152C27.3667 30.6609 27.4208 30.5419 27.4965 30.4507C27.6008 30.3251 27.6018 30.2525 27.5006 30.1514C27.427 30.0779 27.3668 29.8703 27.3668 29.69C27.3668 29.3791 27.3911 29.3637 27.8362 29.39C28.0944 29.4052 28.332 29.46 28.364 29.5119C28.3961 29.5638 28.4666 29.5789 28.5207 29.5454C28.5748 29.5121 29.065 29.6459 29.6101 29.843L30.6012 30.2012L30.3736 30.5205L30.1461 30.8396L30.4601 31.1153L30.7743 31.3908L35.6256 31.4296C40.7884 31.4709 41.5294 31.4151 42.7368 30.8947C43.1851 30.7014 43.9693 29.9948 43.8585 29.884C43.8388 29.8645 43.4599 30.0275 43.0162 30.246C42.3437 30.5774 42.0356 30.6554 41.163 30.7155C39.6505 30.8198 39.6286 30.8007 39.6452 29.4021C39.6568 28.4288 39.6176 28.1785 39.3571 27.5624C39.1914 27.1701 39.0773 26.8277 39.1035 26.8015C39.1296 26.7754 38.8416 26.4166 38.4634 26.0043C37.6386 25.1051 35.6568 23.738 34.2741 23.1142C33.7427 22.8746 33.7344 22.8628 33.8913 22.5725C34.3202 21.7787 35.739 17.8303 36.2991 15.8721C36.8731 13.8651 37.1812 11.5271 37.1145 9.6845C36.9282 4.53692 33.546 0.437569 29.2437 0.144964C28.9101 0.122234 28.6242 0.116465 28.6084 0.132042Z" fill="url(#paint5_linear_3_59)"/>
<path fill-rule="evenodd" clip-rule="evenodd" d="M27.1358 0.340767C26.0834 0.590335 25.3454 0.836557 24.5574 1.20081C23.7982 1.55192 22.3527 2.41646 22.0741 2.68634C21.9901 2.76768 21.8771 2.83414 21.8229 2.83414C21.7686 2.83414 21.2328 3.31874 20.632 3.9111C19.4998 5.02741 18.4205 6.38832 17.7789 7.5082C17.4975 7.99972 17.3618 8.13783 17.2183 8.07934C12.5079 6.1601 9.04584 6.09548 5.5225 7.86127C4.70517 8.27098 3.15216 9.39363 2.60153 9.97284C2.41707 10.1669 2.21412 10.2935 2.15048 10.2543C2.08695 10.215 2.07043 10.2403 2.11386 10.3106C2.15729 10.3808 2.00147 10.6874 1.76745 10.9918C0.238817 12.9808 -0.257867 16.3356 0.587074 18.9644C1.6777 22.3577 3.96869 24.9672 8.48124 27.9564C13.2286 31.1012 18.9976 33.7479 24.0409 35.0952C25.2938 35.4298 25.8756 35.2593 26.8848 34.2615C27.5684 33.5855 27.6473 33.2062 27.1358 33.0532C23.3456 31.9199 21.1204 31.093 17.7796 29.5766C15.8817 28.715 12.0722 26.5012 10.2139 25.18C8.15782 23.7181 6.37056 22.1096 6.52488 21.86C6.57721 21.7756 6.56242 21.7509 6.48734 21.7973C6.25552 21.9403 4.77932 20.0023 4.21541 18.8143C4.03464 18.4336 3.84925 18.0436 3.8034 17.9476C3.6232 17.5704 3.33051 16.4149 3.25589 15.7854C2.98906 13.5376 3.44382 11.544 4.53133 10.1921C5.27497 9.26775 7.04709 8.7617 9.17429 8.86611C11.0424 8.95784 12.8666 9.47948 15.313 10.6214C16.6108 11.2273 16.8858 11.2268 17.8338 10.6175C18.6502 10.0926 18.8154 9.87812 19.608 8.31471C21.6106 4.36455 23.7207 2.54534 26.3965 2.46238C27.4894 2.42846 28.1623 2.58411 29.3083 3.13586C31.4396 4.16194 32.9294 6.11337 33.7907 9.00699C33.9527 9.5517 33.9979 10.1296 34.0026 11.7184C34.0084 13.6808 33.9754 14.1234 33.7304 15.3737C33.4372 16.8697 32.8127 18.9552 32.0306 21.0491C31.8796 21.4533 31.7561 21.797 31.7561 21.8131C31.7561 21.8867 33.7281 22.7098 33.78 22.6578C33.9173 22.5207 35.046 19.6142 35.566 18.0587C36.1246 16.3878 36.4046 15.3408 36.7984 13.4491C37.0142 12.413 37.0936 9.17268 36.9287 8.14164C36.7269 6.88111 36.1623 5.27917 35.6618 4.54708C35.5466 4.37862 35.4524 4.18824 35.4524 4.12398C35.4524 4.05971 35.4134 3.98991 35.3657 3.96868C35.318 3.94756 35.1256 3.70445 34.9379 3.42846C34.1424 2.25885 32.3812 0.970744 30.9476 0.5098C30.0099 0.208426 28.0589 0.12189 27.1358 0.340767ZM23.7496 11.0735C23.5071 11.1623 23.2062 11.3276 23.0809 11.4409C22.8697 11.6318 22.7567 11.6364 21.5444 11.5036C20.8247 11.4248 20.1004 11.3942 19.9348 11.4358C19.5329 11.5365 19.4356 12.0733 19.6259 13.1375C19.7929 14.0713 19.9735 14.3015 20.9045 14.7676C21.2505 14.9409 21.6246 15.1645 21.7358 15.2645C22.0192 15.5195 21.9966 16.2617 21.6512 18.0347C21.4935 18.8443 21.3356 19.7378 21.3003 20.0203C21.2651 20.3029 21.1034 21.1256 20.9411 21.8487C20.6211 23.2731 20.6297 23.5199 21.0411 24.7564C21.4251 25.9102 22.1041 26.873 22.9891 27.5179C23.9108 28.1898 24.3207 28.8861 24.16 29.5063C24.0962 29.7519 23.9795 29.9033 23.8365 29.926C23.2263 30.0229 22.9775 30.2045 22.9775 30.5529C22.9775 30.8603 23.0098 30.8924 23.2692 30.8427C23.4552 30.8072 23.5962 30.85 23.6582 30.9609C23.7323 31.0931 23.8971 31.121 24.3484 31.0778C24.7978 31.0346 24.9411 31.0586 24.9411 31.177C24.9411 31.3505 24.9655 31.3562 25.8652 31.3932C27.1911 31.4479 27.4218 31.229 27.3486 29.9855C27.3118 29.361 27.3274 29.3113 27.5716 29.2767C27.7161 29.2563 28.08 29.318 28.3802 29.414C28.6805 29.51 29.303 29.6977 29.7636 29.8311C30.6073 30.0755 30.7679 30.2435 30.4278 30.5254C30.1722 30.7374 30.2166 30.9747 30.5397 31.1217C30.6964 31.193 30.7942 31.301 30.7567 31.3615C30.7193 31.422 30.8086 31.4074 30.9552 31.3291C31.1445 31.2279 31.5587 31.2076 32.3841 31.2592C34.0239 31.3617 40.4378 31.3382 41.3686 31.2263C42.1434 31.133 43.267 30.6786 43.5424 30.347C43.7963 30.0413 43.6004 30.0601 42.7323 30.4245C41.6647 30.8725 40.2478 31.0127 39.7933 30.7152C39.5132 30.5319 39.5062 30.4945 39.5452 29.3925C39.5818 28.3568 39.5553 28.181 39.2394 27.3638C38.6898 25.9418 37.5532 24.9529 34.6497 23.37C33.9532 22.9903 33.3564 22.6796 33.3236 22.6796C33.2908 22.6796 32.8856 22.4957 32.4233 22.271C31.961 22.0463 31.5569 21.8675 31.5251 21.8739C31.4634 21.8862 30.0046 21.3394 29.6192 21.1596C29.4922 21.1003 28.9464 20.6579 28.4064 20.1765C27.8664 19.6951 27.154 19.1759 26.8233 19.0228C26.2556 18.76 26.2293 18.729 26.3501 18.464C26.4394 18.2684 26.6036 18.1632 26.8936 18.1162C27.9243 17.949 27.9268 17.9477 28.0699 17.5146C28.1675 17.2194 28.1831 16.6851 28.123 15.7051C28.0202 14.0281 28.0044 13.8721 27.9229 13.7318C27.8879 13.6715 27.8234 13.4246 27.7799 13.1831C27.6742 12.5986 27.0124 11.949 26.0077 11.4436C25.0582 10.9659 24.3567 10.8509 23.7496 11.0735Z" fill="url(#paint6_linear_3_59)"/>
<defs>
<linearGradient id="paint0_linear_3_59" x1="21.9818" y1="0.0105591" x2="21.9818" y2="35.4857" gradientUnits="userSpaceOnUse">
<stop stop-color="#F3A40A"/>
<stop offset="1" stop-color="#BE2424"/>
</linearGradient>
<linearGradient id="paint1_linear_3_59" x1="21.985" y1="0" x2="21.985" y2="35.4184" gradientUnits="userSpaceOnUse">
<stop stop-color="#F3A40A"/>
<stop offset="1" stop-color="#BE2424"/>
</linearGradient>
<linearGradient id="paint2_linear_3_59" x1="21.9602" y1="0.0701447" x2="21.9602" y2="35.3846" gradientUnits="userSpaceOnUse">
<stop stop-color="#F3A40A"/>
<stop offset="1" stop-color="#BE2424"/>
</linearGradient>
<linearGradient id="paint3_linear_3_59" x1="21.9764" y1="0.0789185" x2="21.9764" y2="35.3453" gradientUnits="userSpaceOnUse">
<stop stop-color="#F3A40A"/>
<stop offset="1" stop-color="#BE2424"/>
</linearGradient>
<linearGradient id="paint4_linear_3_59" x1="22.0103" y1="0.126984" x2="22.0103" y2="35.3714" gradientUnits="userSpaceOnUse">
<stop stop-color="#F3A40A"/>
<stop offset="1" stop-color="#BE2424"/>
</linearGradient>
<linearGradient id="paint5_linear_3_59" x1="22.0056" y1="0.123291" x2="22.0056" y2="35.3427" gradientUnits="userSpaceOnUse">
<stop stop-color="#F3A40A"/>
<stop offset="1" stop-color="#BE2424"/>
</linearGradient>
<linearGradient id="paint6_linear_3_59" x1="21.9116" y1="0.218582" x2="21.9116" y2="35.2513" gradientUnits="userSpaceOnUse">
<stop stop-color="#F3A40A"/>
<stop offset="1" stop-color="#BE2424"/>
</linearGradient>
</defs>
</svg>
