<svg width="880" height="308" viewBox="0 0 880 308" fill="none" xmlns="http://www.w3.org/2000/svg">
<path fill-rule="evenodd" clip-rule="evenodd" d="M248.524 0.158174C248.394 0.288956 245.626 0.518572 242.373 0.668323C234.815 1.01774 218.246 5.29163 215.214 7.67467C214.613 8.14588 213.827 8.23673 213.465 7.87533C213.103 7.51393 212.807 7.69363 212.807 8.27467C212.807 8.8557 211.599 9.6344 210.122 10.0048C206.044 11.0271 186.119 24.6874 179.178 31.2185C170.339 39.5366 159.894 52.2814 154.772 60.9959C151.756 66.1284 149.863 68.3916 148.843 68.0861C148.018 67.8396 142.978 66.0485 137.642 64.1058C121.326 58.1657 109.506 56.0322 92.874 56.0252C77.6235 56.0192 72.5373 56.8229 59.8924 61.2395C49.792 64.7667 39.4588 70.4362 30.4548 77.3897C24.4392 82.0349 14.2458 93.6366 10.343 100.28C1.61388 115.14 -1.84419 134.282 0.94525 152.31C2.05163 159.463 8.30615 178.333 10.8717 182.26C11.7692 183.633 13.3733 186.441 14.4367 188.5C15.5011 190.559 16.7185 192.244 17.1432 192.244C17.568 192.244 17.9158 192.755 17.9158 193.381C17.9158 195.247 28.4389 207.52 36.8772 215.496C47.1615 225.217 74.1654 245.203 86.3776 252.133C88.0267 253.068 93.8734 256.434 99.3704 259.611C104.867 262.79 115.212 268.275 122.358 271.801C129.504 275.328 136.137 278.641 137.098 279.163C138.06 279.686 143.457 281.96 149.092 284.217C154.727 286.474 159.787 288.651 160.336 289.056C160.886 289.461 162.235 290.043 163.335 290.348C164.434 290.654 171.18 293.005 178.326 295.573C185.472 298.141 191.994 300.406 192.818 300.605C193.643 300.804 198.986 302.336 204.691 304.01C210.396 305.684 215.793 307.049 216.684 307.043C218.878 307.03 227.96 302.74 231.803 299.902C235.178 297.41 238.65 292.418 239.278 289.153C239.703 286.949 236.551 284.091 233.695 284.091C231.544 284.091 195.605 272.251 185.533 268.224C165.979 260.406 139.504 247.598 122.358 237.663C110.206 230.622 88.1177 216.587 86.2487 214.72C85.4162 213.889 84.3797 213.209 83.944 213.209C83.5082 213.209 82.079 212.18 80.7667 210.924C79.4555 209.668 74.7841 205.633 70.3865 201.959C61.0407 194.15 57.2898 190.289 49.799 180.763C41.7665 170.549 39.3119 166.396 33.8619 153.807C29.2625 143.182 27.5714 122.543 30.3139 110.498C35.6849 86.9108 48.3188 77.9358 75.8835 78.1284C93.8854 78.2542 115.435 84.37 137.292 95.5534C142.304 98.1182 147.827 97.4313 154.088 93.4649C161.715 88.634 163.909 86.194 167.607 78.4329C169.569 74.3148 171.933 69.8223 172.859 68.4495C173.787 67.0768 176.026 63.2731 177.836 59.9976C182.244 52.0169 185.911 47.0701 192.292 40.4961C198.792 33.8002 200.496 32.3696 204.886 29.9246C206.769 28.8754 208.535 27.7463 208.809 27.4148C209.084 27.0844 211.783 25.9612 214.806 24.919C218.885 23.5143 223.011 23.0351 230.797 23.0631C239.996 23.096 242.155 23.4534 248.287 25.9572C257.287 29.6321 262.836 33.4528 270.275 41.102C276.532 47.5353 277.437 48.6295 279.556 52.3214C285.511 62.6961 290.216 73.6209 291.284 79.5551C293.605 92.4376 294.006 111.774 292.202 123.857C291.246 130.255 286.971 148.484 285.347 153.083C284.527 155.403 284.116 157.302 284.434 157.302C284.752 157.302 284.569 157.863 284.027 158.55C283.487 159.236 282.752 161.017 282.396 162.505C282.041 163.995 279.932 170.33 277.71 176.585L273.67 187.956L265.574 185.125C261.121 183.569 256.725 181.613 255.802 180.781C254.881 179.947 253.856 179.265 253.526 179.265C253.197 179.265 250.129 176.607 246.71 173.357C243.292 170.108 237.906 165.952 234.742 164.122C229.401 161.034 229.1 160.67 230.547 159.049C231.405 158.087 233.357 157.302 234.885 157.302C238.285 157.302 242.983 155.598 244.004 153.994C245.279 151.992 244.867 128.272 243.427 120.727C240.837 107.157 234.87 100.725 219.926 95.3897C213.073 92.9428 211.507 92.7162 207.451 93.5797C204.9 94.1238 202.813 94.9814 202.813 95.4855C202.813 95.9897 202.132 96.403 201.3 96.403C200.468 96.403 198.931 96.9371 197.883 97.591C196.421 98.5025 193.586 98.5115 185.654 97.63C174.703 96.412 170.619 96.7485 168.727 99.0247C167.026 101.072 168.09 118.585 170.102 121.651C171.556 123.868 182.922 131.345 184.838 131.345C185.316 131.345 186.361 132.275 187.158 133.411C188.787 135.734 188.547 140.628 186.256 151.811C185.468 155.654 184.824 159.986 184.824 161.438C184.823 162.888 183.426 170.076 181.718 177.411C179.362 187.533 178.591 193.272 178.522 201.229C178.433 211.566 178.488 211.823 182.498 219.846C187.297 229.448 191.66 235.14 196.853 238.572C208.466 246.249 212.267 256.152 204.109 257.474C199.27 258.259 196.816 260.716 196.816 264.778C196.816 267.929 197.014 268.117 200.314 268.117C202.238 268.117 203.812 268.608 203.812 269.208C203.812 269.906 205.792 270.176 209.31 269.957C213.146 269.719 214.808 269.981 214.807 270.828C214.807 271.495 215.593 272.427 216.555 272.899C218.386 273.799 229.557 273.636 233.479 272.653C237.797 271.571 240.417 262.032 237.758 257.07C236.915 255.496 237.054 255.139 238.508 255.139C243.399 255.139 262.779 260.532 262.779 261.893C262.779 262.21 261.998 263.332 261.041 264.388C259.376 266.225 259.433 266.42 262.425 269.091L265.547 271.877L294.397 272.622C310.264 273.032 330.891 273.136 340.236 272.853C354.94 272.409 358.316 271.989 365.322 269.734C373.389 267.136 377.384 264.479 379.686 260.183C381.609 256.594 379.358 255.186 376.295 258.06C372.789 261.35 363.456 264.26 354.485 264.86C344.116 265.555 343.656 265.114 343.947 254.761C344.207 245.47 341.187 234.187 336.832 228.184C330.665 219.682 318.6 210.485 301.645 201.36C295.339 197.966 294.313 197.048 294.61 195.065C294.8 193.788 295.313 192.293 295.748 191.744C296.812 190.404 308.28 160.441 309.314 156.303C309.519 155.48 310.865 150.987 312.306 146.32C315.958 134.479 317.667 128.345 318.287 124.856C318.58 123.208 319.006 121.187 319.234 120.363C319.707 118.651 320.395 113.909 321.624 103.891C322.55 96.3481 322.364 79.7048 321.274 72.4429C317.94 50.2448 305.758 27.7602 290.346 15.3579C283.716 10.0228 273.206 4.25136 267.277 2.68996C263.296 1.64071 248.976 -0.292077 248.524 0.158174Z" fill="black"/>
<path fill-rule="evenodd" clip-rule="evenodd" d="M248.531 0.106254C248.397 0.215073 244.985 0.586455 240.949 0.929884C236.915 1.27431 233.285 1.7585 232.884 2.00509C232.484 2.25268 231.002 2.664 229.591 2.91957C224.469 3.84703 215.805 6.93988 215.805 7.84039C215.805 8.34754 215.131 8.50428 214.306 8.18781C213.482 7.87233 212.807 7.94221 212.807 8.34454C212.807 8.74688 211.121 9.85902 209.059 10.8144C202.973 13.6377 193.438 19.471 189.101 23.0251C188.432 23.5742 186.606 25.0527 185.043 26.3107C179.44 30.8211 172.128 38.096 167.774 43.4911C165.337 46.511 162.857 49.4312 162.263 49.9803C161.67 50.5293 159.299 54.1234 156.993 57.967C150.827 68.2509 150.36 68.748 147.666 67.8945C146.39 67.4891 145.302 67.3364 145.249 67.554C145.196 67.7717 144.486 67.3983 143.672 66.7234C142.858 66.0485 139.078 64.5101 135.273 63.3041C131.467 62.0991 127.904 60.963 127.355 60.7793C110.907 55.3044 79.6833 54.5187 67.741 59.2808C66.2858 59.8608 64.8906 60.1314 64.6407 59.8818C64.08 59.3217 52.3735 64.2545 44.7608 68.2578C39.6147 70.9643 35.9127 73.3564 30.5597 77.4346C25.0618 81.6236 16.5585 90.9072 12.6217 97.019C8.43804 103.514 3.52478 113.375 4.47125 113.375C4.71112 113.375 4.23938 115.06 3.42284 117.119C0.559435 124.34 -0.695865 145.754 1.27104 153.807C1.53889 154.906 2.2415 157.911 2.83217 160.485C5.61462 172.625 14.7555 190.88 21.6467 198.055C22.3433 198.781 22.913 199.785 22.913 200.286C22.913 200.787 28.0621 206.307 34.3556 212.553C44.6978 222.817 65.1754 238.802 77.3826 246.141C79.5814 247.463 81.6052 248.859 81.8801 249.244C82.1549 249.628 84.4037 251.05 86.8773 252.401C89.3509 253.754 98.147 258.66 106.424 263.305C119.842 270.835 124.198 273.135 125.856 273.565C126.13 273.637 129.728 275.334 133.851 277.338C137.974 279.341 143.146 281.729 145.345 282.644C152.746 285.725 174.32 294.272 175.328 294.522C175.878 294.659 177.002 295.026 177.827 295.337C187.13 298.853 209.359 305.706 213.649 306.382C217.787 307.033 227.077 303.564 231.236 299.815C232.301 298.853 233.513 298.067 233.927 298.067C235.397 298.067 239.551 289.874 239.05 287.962C238.612 286.287 234.795 283.183 234.795 284.501C234.795 284.766 232.209 284.093 229.048 283.007C225.887 281.92 223.188 281.046 223.051 281.064C222.914 281.082 222.577 281.04 222.302 280.971C222.027 280.902 221.465 280.772 221.052 280.681C220.641 280.591 216.48 279.21 211.808 277.613C207.135 276.017 202.863 274.624 202.313 274.519C199.751 274.029 172.559 263.018 167.047 260.238C163.637 258.519 160.507 257.118 160.092 257.124C158.978 257.139 130.607 243.056 128.854 241.617C128.029 240.94 124.881 239.126 121.858 237.584C118.834 236.043 113.255 232.622 109.458 229.985C105.661 227.347 101.951 225.189 101.212 225.189C100.474 225.189 99.8701 224.739 99.8701 224.19C99.8701 223.641 99.4133 223.192 98.8556 223.192C97.3705 223.192 86.8773 216.071 86.8773 215.064C86.8773 214.592 86.3156 214.205 85.628 214.202C84.9414 214.2 82.6667 212.628 80.5748 210.708C78.483 208.789 76.4431 207.219 76.0423 207.219C75.6416 207.219 70.7563 202.838 65.1854 197.485C55.145 187.835 45.6603 176.85 43.6334 172.526C43.0547 171.29 42.2872 170.28 41.9284 170.28C41.5696 170.28 40.6581 168.708 39.9035 166.786C39.1489 164.864 38.1655 163.292 37.7177 163.292C37.271 163.292 36.9052 162.871 36.9052 162.358C36.9052 161.845 36.3805 160.16 35.7398 158.614C35.0982 157.069 34.4975 155.58 34.4036 155.305C34.3106 155.03 33.8928 153.907 33.4771 152.809C23.1988 125.698 30.3458 91.2286 47.899 83.2529C51.7219 81.5158 58.2413 79.2985 61.3915 78.6625C62.4909 78.4409 68.7874 78.2053 75.3837 78.1404C87.5359 78.0196 100.856 80.3078 109.849 84.0616C111.781 84.8682 113.363 85.4752 113.363 85.4103C113.363 84.7734 126.284 90.1304 134.351 94.1108C142.183 97.9754 144.9 98.0113 152.241 94.3494C159.317 90.8193 163.679 86.168 168.233 77.2958C174.516 65.0542 176.241 61.9983 177.077 61.6279C177.489 61.4442 177.827 60.7054 177.827 59.9856C177.827 57.7274 188.547 43.6328 195.008 37.3952C198.409 34.1117 202.794 30.6814 204.751 29.7729C206.708 28.8644 208.534 27.8271 208.809 27.4677C209.353 26.7559 218.006 23.7799 221.888 22.9692C225.123 22.2933 236.56 22.3572 240.292 23.071C244.516 23.8807 254.463 28.3622 259.781 31.8524C265.708 35.743 277.751 48.2442 280.259 53.1101C281.354 55.2325 282.503 57.1933 282.814 57.4678C285.168 59.5473 291.277 77.2139 292.654 85.9205C293.549 91.586 293.439 116.984 292.496 122.36C292.256 123.733 291.716 126.877 291.299 129.348C290.882 131.819 289.403 138.109 288.015 143.325C286.628 148.541 285.277 154.05 285.014 155.567C284.751 157.083 284.138 158.571 283.653 158.87C283.166 159.171 282.768 160.203 282.768 161.163C282.768 162.819 274.271 187.087 273.38 187.978C273.148 188.208 271.681 187.75 270.118 186.959C268.555 186.169 265.604 185.219 263.558 184.85C261.513 184.479 258.525 183.072 256.918 181.721C255.31 180.37 253.582 179.265 253.079 179.265C252.574 179.265 251.164 177.917 249.944 176.27C248.725 174.623 247.27 173.275 246.71 173.275C246.15 173.275 244.702 172.142 243.492 170.756C242.282 169.371 238.522 166.546 235.137 164.479C227.651 159.906 227.889 157.895 236.037 156.877C238.937 156.516 241.979 155.806 242.799 155.302C244.791 154.074 245.465 132.512 243.804 123.125C243.15 119.427 242.649 116.172 242.691 115.892C242.734 115.612 241.505 113.021 239.96 110.136C234.139 99.2633 216.242 91.2945 204.812 94.4872C203.987 94.7168 203.088 95.1301 202.813 95.4047C202.538 95.6792 200.693 96.7255 198.713 97.7288C195.593 99.3102 194.334 99.41 189.284 98.4776C186.079 97.8856 180.406 97.4014 176.679 97.4014C171.001 97.4014 169.733 97.7148 168.867 99.3321C166.726 103.328 168.283 119.525 171.16 123.184C171.732 123.912 175.451 126.29 179.424 128.469C183.396 130.646 187.225 133.123 187.931 133.973C188.983 135.239 188.803 138.149 186.931 150.154C185.674 158.203 183.337 170.975 181.736 178.536C178.721 192.777 177.657 212.369 179.825 213.708C180.375 214.047 180.835 215.085 180.847 216.013C180.859 216.941 181.748 218.824 182.824 220.197C183.899 221.57 184.789 223.395 184.801 224.251C184.813 225.109 185.645 226.693 186.652 227.771C187.657 228.85 189.253 230.91 190.197 232.35C191.141 233.788 193.804 236.216 196.113 237.745C208.142 245.703 212.505 255.423 204.929 257.384C199.115 258.89 196.816 260.973 196.816 264.738C196.816 267.935 197.005 268.117 200.314 268.117C202.266 268.117 203.812 268.62 203.812 269.255C203.812 270.035 205.511 270.218 209.214 269.836C213.958 269.347 214.677 269.513 215.117 271.194C215.574 272.938 218.48 273.825 221.302 273.082C221.852 272.937 224.839 272.894 227.941 272.986C233.115 273.139 233.795 272.897 236.186 270.059C238.97 266.756 239.717 260.727 237.79 257.131C237.239 256.101 237.173 255.023 237.642 254.733C238.94 253.932 260.312 259.645 262.23 261.306C262.819 261.816 262.724 262.582 261.98 263.325C260.045 265.258 260.59 267.823 263.408 270.037C265.99 272.066 266.841 272.097 313.63 271.856L361.224 271.611L367.776 269.061C374.708 266.361 378.204 263.6 379.716 259.626C381.065 256.081 378.974 255.379 376.144 258.427C372.682 262.157 355.461 266.824 349.014 265.78C343.311 264.855 342.934 264.079 343.466 254.373C343.866 247.095 343.597 244.782 341.841 240.376C340.684 237.473 339.736 234.314 339.736 233.353C339.736 227.457 319.276 210.517 300.33 200.729C297.141 199.082 294.316 197.184 294.05 196.511C293.785 195.84 294.478 193.818 295.591 192.019C296.703 190.221 297.59 188.388 297.56 187.947C297.53 187.505 298.731 184.136 300.228 180.459C301.727 176.782 303.314 172.876 303.756 171.778C305.073 168.509 309.181 156.882 309.4 155.804C309.511 155.255 310.794 150.987 312.252 146.32C313.709 141.653 315.016 137.385 315.157 136.836C315.298 136.287 315.985 133.82 316.684 131.355C317.383 128.889 318.113 125.621 318.307 124.093C318.5 122.565 318.865 120.982 319.116 120.577C319.367 120.17 319.849 117.373 320.188 114.36C320.527 111.347 321.129 106.411 321.525 103.391C322.89 92.9947 322.078 75.7564 319.761 65.9537C319.113 63.2083 318.413 60.1404 318.207 59.135C318.001 58.1307 317.55 56.3337 317.204 55.1417C316.216 51.7353 308.435 36.0405 307.55 35.6711C307.113 35.4874 306.755 34.8604 306.755 34.2764C306.755 32.6661 300.134 24.6724 293.859 18.7043C287.98 13.1136 274.52 4.55585 271.604 4.55585C270.663 4.55585 269.64 4.14653 269.331 3.64736C268.716 2.65302 249.438 -0.628524 248.531 0.106254Z" fill="black"/>
<path fill-rule="evenodd" clip-rule="evenodd" d="M240.765 0.895947C240.505 1.14254 238.493 1.5858 236.294 1.88331C232.988 2.33056 223.301 4.66068 219.304 5.9705C218.754 6.1512 217.904 6.31693 217.417 6.33989C216.928 6.36285 216.253 6.75719 215.916 7.21643C215.153 8.2567 208.959 11.5442 207.762 11.5442C206.708 11.5442 191.044 21.3779 188.681 23.5243C187.774 24.3479 185.747 26.0691 184.178 27.3499C178.385 32.0771 169.75 40.9184 165.602 46.3683C163.256 49.4532 160.886 52.4951 160.336 53.128C159.787 53.761 157.325 57.4788 154.866 61.3893C150.788 67.8775 150.15 68.4605 147.569 68.0542C146.013 67.8096 144.201 67.1896 143.544 66.6775C141.886 65.3866 123.543 59.6931 116.861 58.3943C101.982 55.5021 87.8218 55.3314 72.8851 57.8642C64.8926 59.2199 43.4546 68.2289 37.7607 72.6256C35.7578 74.172 33.8749 75.4379 33.5771 75.4379C32.8804 75.4379 24.3642 82.9864 20.4414 87.0825C8.48105 99.5688 1.0262 117.844 0.567457 135.799C0.126703 153.084 3.50282 167.818 11.0756 181.648C15.4632 189.662 18.8083 194.888 21.4138 197.799C21.9635 198.413 23.5377 200.426 24.9119 202.271C31.5302 211.159 50.1428 227.542 64.8896 237.458C69.0123 240.231 72.6103 242.759 72.8851 243.078C73.16 243.397 74.2844 244.2 75.3838 244.863C79.6993 247.465 92.4562 255.277 93.8734 256.185C101.806 261.272 133.869 277.594 147.344 283.405C156.614 287.403 171.161 293.076 172.144 293.076C172.63 293.076 174.445 293.696 176.177 294.454C183.166 297.513 206.444 304.745 212.999 305.895C215.984 306.419 218.53 306.196 221.302 305.169C226.127 303.383 234.015 297.875 236.781 294.364C239.018 291.522 239.479 286.237 237.543 285.639C236.857 285.426 233.596 284.493 230.297 283.565C218.457 280.229 214.257 278.901 211.157 277.514C209.425 276.738 207.479 276.104 206.834 276.104C205.347 276.104 187.258 269.222 174.828 263.929C162.339 258.61 122.594 238.903 120.858 237.169C120.584 236.894 118.223 235.555 115.611 234.195C113.001 232.833 110.864 231.445 110.864 231.111C110.864 230.775 109.07 229.643 106.877 228.594C104.685 227.545 102.886 226.35 102.879 225.937C102.873 225.525 102.369 225.189 101.757 225.189C100.26 225.189 81.8302 212.548 79.6314 210.012C78.6699 208.903 77.8824 208.281 77.8824 208.629C77.8824 210.478 56.2704 189.531 50.1608 181.761C47.5703 178.466 44.8768 175.177 44.1761 174.452C43.4755 173.726 42.9019 172.49 42.9019 171.707C42.9019 170.922 42.5041 170.28 42.0193 170.28C41.5336 170.28 40.879 169.494 40.5642 168.533C40.2493 167.572 38.8111 164.8 37.3679 162.372C34.6375 157.778 31.1424 147.994 30.3858 142.826C30.144 141.179 29.5783 137.809 29.1275 135.338C28.278 130.683 28.312 124.608 29.2435 114.561C29.7702 108.886 34.4426 95.246 36.0907 94.5731C36.5384 94.3894 36.9052 93.6975 36.9052 93.0336C36.9052 91.0729 45.1676 83.6133 48.1489 82.8835C49.6611 82.5131 50.8974 81.7614 50.8974 81.2133C50.8974 80.6642 51.572 80.4745 52.3966 80.791C53.2211 81.1065 53.8957 81.0266 53.8957 80.6123C53.8957 80.198 54.6823 79.7867 55.6448 79.6978C56.6072 79.61 58.743 79.2466 60.3921 78.8922C65.3583 77.8239 83.0365 77.5304 88.3765 78.4269C102.906 80.8679 115.976 85.2476 133.851 93.6656C137.424 95.3478 141.213 96.8862 142.27 97.0829C144.93 97.5791 150.587 95.5884 155.283 92.5035C162.304 87.8912 164.456 85.0539 170.492 72.4429C172.464 68.3247 174.47 64.8056 174.952 64.6229C175.434 64.4392 175.828 63.7264 175.828 63.0385C175.828 60.4908 189.879 41.6082 195.672 36.3729C219.918 14.4544 251.507 18.1273 275.024 45.5996C278.826 50.0402 282.339 55.534 283.412 58.7157C283.736 59.6771 284.398 60.4628 284.884 60.4628C285.369 60.4628 285.766 60.937 285.766 61.5161C285.766 62.0951 286.677 64.565 287.789 67.0049C293.974 80.5654 295.429 107.447 291.246 130.846C289.465 140.809 283.342 162.545 280.349 169.526C279.469 171.583 278.781 173.38 278.823 173.52C278.937 173.901 277.818 177.154 275.539 183.063C273.945 187.197 273.143 188.206 271.886 187.664C271 187.283 268.251 186.409 265.778 185.721C260.001 184.117 255.783 182.167 255.783 181.101C255.783 180.641 255.258 180.263 254.617 180.263C253.532 180.263 251.627 178.683 244.93 172.228C239.02 166.53 229.652 160.823 228.282 162.084C227.858 162.473 228.251 161.636 229.154 160.224C230.438 158.213 232.128 157.407 236.923 156.516C240.293 155.89 243.329 155.1 243.67 154.762C244.942 153.497 244.934 131.142 243.659 124.085C242.942 120.116 242.343 116.42 242.326 115.871C242.31 115.322 241.141 112.851 239.73 110.38C234.23 100.754 217.503 92.0153 208.242 93.9301C206.08 94.3764 203.974 94.6669 203.562 94.5741C203.151 94.4822 202.813 94.8556 202.813 95.4047C202.813 95.9538 202.286 96.403 201.642 96.403C200.999 96.403 199.65 97.1448 198.647 98.0523C197.032 99.5128 195.877 99.5698 188.574 98.5505C169.373 95.8699 167.338 96.8413 168.093 108.322C168.873 120.166 170.276 123.009 177.327 127.008C180.625 128.879 184.323 130.829 185.544 131.341C188.635 132.638 189.322 136.491 187.934 144.744C187.279 148.63 186.272 154.956 185.693 158.799C185.116 162.643 183.291 172.193 181.639 180.021C179.195 191.598 178.708 195.977 179.032 203.482C179.391 211.79 179.823 213.505 183.369 220.696C186.06 226.155 189.048 230.347 192.811 233.941C195.839 236.833 200.676 241.456 203.562 244.212C208.108 248.554 208.809 249.736 208.809 253.052C208.809 256.714 208.644 256.907 205.003 257.488C197.272 258.723 193.641 267.264 200.564 267.931C202.35 268.103 203.812 268.726 203.812 269.316C203.812 270.026 205.631 270.175 209.194 269.758C213.957 269.198 214.633 269.346 215.078 271.045C215.528 272.764 216.542 272.966 224.672 272.966C233.207 272.966 233.884 272.812 235.751 270.44C238.379 267.104 239.342 261.632 237.871 258.404C237.169 256.864 237.062 255.47 237.605 254.927C238.594 253.94 248.582 256.111 257.936 259.346L263.587 261.301L261.934 264.268C260.31 267.184 260.331 267.276 263.151 269.558L266.021 271.881L309.921 272.049C351.85 272.209 354.21 272.121 362.52 270.062C374.053 267.205 381.006 261.895 379.217 257.307C378.649 255.849 378.319 255.941 376.613 258.03C374.212 260.97 362.587 264.968 354.018 265.799C349.187 266.268 347.255 266.038 345.304 264.761C342.89 263.182 342.819 262.836 343.378 255.386C343.853 249.072 343.571 246.511 341.848 241.444C340.687 238.028 339.736 234.563 339.736 233.74C339.736 232.919 338.463 230.77 336.907 228.967C335.351 227.163 333.787 224.891 333.431 223.918C333.076 222.944 331.998 221.846 331.035 221.478C330.073 221.108 328.223 219.545 326.925 218.004C325.625 216.461 324.192 215.429 323.739 215.708C323.287 215.987 322.766 215.842 322.581 215.385C322.191 214.419 306.893 204.532 301.758 201.927C299.834 200.952 297.156 199.314 295.808 198.287C293.53 196.554 293.454 196.221 294.733 193.584C295.49 192.023 296.031 190.409 295.936 189.997C295.84 189.586 296.136 189.249 296.593 189.249C297.052 189.249 297.431 188.687 297.436 188.001C297.441 187.315 299.054 182.709 301.02 177.768C308.047 160.103 316.633 133.527 317.035 128.198C317.112 127.184 317.555 126.353 318.02 126.353C318.485 126.353 318.626 125.965 318.332 125.491C318.039 125.017 318.535 121.311 319.434 117.254C320.616 111.925 321.094 104.484 321.158 90.413C321.237 73.0699 320.992 69.967 318.915 61.9803C317.633 57.0505 316.29 52.558 315.932 51.9969C315.574 51.4368 315.272 50.754 315.261 50.4794C315.231 49.7177 308.426 36.0734 307.791 35.5044C307.486 35.2298 306.021 33.1323 304.536 30.8421C300.909 25.2524 291.599 16.2364 284.32 11.2677C274.132 4.31126 263.22 0.977813 249.564 0.649359C244.984 0.539542 241.024 0.650355 240.765 0.895947Z" fill="black"/>
<path fill-rule="evenodd" clip-rule="evenodd" d="M240.655 1.03171C240.419 1.26731 238.667 1.6367 236.761 1.85334C234.855 2.06898 229.923 3.30991 225.8 4.61075C221.677 5.91158 217.854 6.99378 217.305 7.01375C216.755 7.03471 216.08 7.27631 215.804 7.55086C214.657 8.69595 208.54 11.5442 207.229 11.5442C206.45 11.5442 205.811 11.9935 205.811 12.5426C205.811 13.0916 205.305 13.5409 204.688 13.5409C204.07 13.5409 200.871 15.3379 197.578 17.5342C194.285 19.7306 191.417 21.5276 191.205 21.5276C190.507 21.5276 186.839 24.891 176.505 35.0052C169.886 41.4844 163.592 48.959 158.573 56.2997C154.321 62.5214 150.842 68.0242 150.842 68.5294C150.842 69.7633 150.39 69.7034 146.062 67.8974C144.018 67.0439 142.229 66.379 142.087 66.4199C141.943 66.4598 140.593 65.8618 139.088 65.0891C136.551 63.7883 123.588 59.8818 118.551 58.9004C107.563 56.76 102.83 56.2878 92.874 56.3357C86.5525 56.3666 80.0311 56.6072 78.3821 56.8708C69.9558 58.2195 53.1591 63.9251 47.0925 67.5001C45.2745 68.5713 43.3306 69.4479 42.7729 69.4479C42.2162 69.4479 41.1718 70.0099 40.4542 70.6958C39.7366 71.3826 38.1315 72.6176 36.8892 73.4412C30.8626 77.4336 16.9003 89.4146 18.2726 89.4146C18.6693 89.4146 18.0377 90.425 16.8714 91.6609C10.5899 98.3098 2.64028 116.492 1.26605 127.352C-0.0622099 137.848 0.931236 155.579 3.07104 159.572C3.62873 160.613 3.85561 161.695 3.57576 161.976C2.96111 162.589 6.75399 172.973 8.60496 175.744C9.32855 176.826 9.92023 178.511 9.92023 179.488C9.92023 180.463 10.286 181.262 10.7328 181.262C11.1805 181.262 12.164 182.834 12.9186 184.756C13.6731 186.678 14.6566 188.25 15.1043 188.25C15.5511 188.25 15.9169 188.739 15.9169 189.338C15.9169 191.143 27.9722 205.944 34.9063 212.651C47.1575 224.5 49.9199 226.75 66.3887 238.303C69.6869 240.617 72.6103 242.768 72.8851 243.084C73.4228 243.701 73.4058 243.691 85.3782 250.722C89.7757 253.305 93.5236 255.805 93.7065 256.277C93.8904 256.749 94.4861 257.136 95.0318 257.136C95.5775 257.136 99.0645 258.91 102.782 261.079C109.549 265.026 136.682 278.766 138.106 278.966C138.522 279.024 140.995 280.148 143.603 281.463C147.836 283.598 168.799 292.111 171.33 292.723C171.88 292.856 176.827 294.566 182.324 296.523C199.091 302.491 213.785 306.32 217.839 305.777C223.059 305.078 227.669 302.672 233.127 297.8C237.059 294.291 237.897 292.925 238.077 289.741L238.293 285.907L225.3 282.12C218.154 280.036 210.733 277.758 208.809 277.056C206.885 276.355 202.163 274.677 198.315 273.331C190.298 270.524 160.836 258.291 159.337 257.145C158.787 256.725 154.641 254.77 150.123 252.8C145.605 250.83 138.633 247.352 134.632 245.071C130.629 242.789 125.106 239.685 122.358 238.17C112.976 233.001 110.877 231.678 110.87 230.929C110.867 230.517 110.333 230.18 109.685 230.18C107.15 230.18 78.8818 210.698 78.8818 208.952C78.8818 208.365 78.6039 208.162 78.2641 208.501C77.2237 209.541 56.894 191.126 56.894 189.145C56.894 188.588 56.4443 188.41 55.8946 188.749C55.3449 189.089 54.8952 188.987 54.8952 188.524C54.8952 187.715 51.3191 183.088 47.6492 179.146C46.6877 178.114 45.9002 176.819 45.9002 176.27C45.9002 175.721 45.5624 175.269 45.1506 175.266C43.6174 175.253 35.438 159.81 32.7415 151.835C29.1895 141.33 28.4449 136.275 28.5508 123.358C28.6218 114.701 29.1125 111.485 31.3683 104.889C34.4505 95.8789 37.7647 90.2433 42.1523 86.5554C46.253 83.1081 51.503 80.4046 55.256 79.8066C56.982 79.5321 59.5176 79.0459 60.8918 78.7264C65.0515 77.759 85.0743 77.5504 89.8757 78.4239C102.663 80.7521 123.92 88.2037 136.34 94.7138C138.544 95.8699 141.472 96.8423 142.846 96.8762C145.487 96.9411 150.998 95.4805 151.841 94.4922C152.116 94.1707 153.915 93.0326 155.839 91.9634C161.049 89.0682 165.465 83.1061 170.855 71.6881C172.733 67.7108 174.62 64.4562 175.049 64.4562C175.477 64.4562 175.837 63.8951 175.848 63.2082C175.866 62.0961 177.647 59.2139 186.218 46.4332C189.164 42.0405 202.588 29.5143 204.35 29.5143C205.062 29.5143 205.794 29.1769 205.978 28.7656C206.65 27.2551 213.766 24.284 219.644 23.0581C227.562 21.4078 238.278 21.9948 245.678 24.4857C268.909 32.3027 288.395 56.9157 292.339 83.4246C292.626 85.3464 293.086 87.5787 293.363 88.3864C293.961 90.1245 293.94 114.763 293.338 118.366C293.108 119.739 292.382 124.232 291.723 128.35C289.795 140.409 282.6 166.676 280.663 168.733C280.172 169.254 279.77 170.332 279.77 171.129C279.77 171.924 278.353 176.303 276.62 180.859L273.469 189.143L270.502 187.61C268.871 186.768 266.363 185.865 264.931 185.606C260.559 184.814 253.591 180.469 247.288 174.603C239.929 167.754 229.94 161.091 228.422 162.02C227.805 162.398 228.025 161.604 228.91 160.254C230.13 158.398 232.06 157.491 236.847 156.529C240.326 155.829 243.42 155.008 243.725 154.705C244.973 153.457 244.678 128.968 243.338 122.579C242.572 118.924 242.161 115.582 242.426 115.153C242.691 114.725 242.481 114.373 241.958 114.373C241.436 114.373 240.745 113.323 240.422 112.039C238.285 103.535 218.188 92.0073 208.996 94.014C206.969 94.4562 204.754 94.7757 204.073 94.7248C203.391 94.6739 203.081 95.0303 203.382 95.5175C203.683 96.0047 203.151 96.403 202.201 96.403C201.25 96.403 199.629 97.1637 198.601 98.0942C196.923 99.6107 195.876 99.6626 188.476 98.5934C170.789 96.0386 167.788 97.2845 167.893 107.135C167.927 110.292 168.714 115.286 169.642 118.232C171.282 123.438 171.555 123.709 179.326 127.871C189.531 133.338 189.828 134.084 187.379 148.119C186.355 153.993 185.348 160.712 185.144 163.05C184.939 165.387 183.433 173.185 181.798 180.378C177.661 198.581 177.71 207.642 181.995 217.443C185.646 225.792 191.746 234.325 196.219 237.342C197.921 238.489 201.451 241.662 204.062 244.394C208.013 248.527 208.809 249.993 208.809 253.137C208.809 256.647 208.568 256.959 205.382 257.556C200.788 258.416 197.958 260.988 197.606 264.623C197.348 267.289 197.646 267.655 200.314 267.956C201.963 268.142 203.87 268.755 204.553 269.318C205.283 269.922 207.643 270.066 210.3 269.669C213.932 269.125 214.806 269.282 214.806 270.484C214.806 272.432 216.819 272.897 225.3 272.912C229.61 272.919 233.144 272.386 234.504 271.524C237.637 269.534 239.371 263.223 237.923 259.076C235.67 252.622 235.032 252.637 256.033 258.634C263.688 260.819 264.6 261.562 262.489 263.892C260.231 266.386 260.306 266.806 263.504 269.555L266.227 271.895L312.726 271.748L359.225 271.601L366.374 269.03C375.705 265.672 382.34 258.874 378.56 256.542C377.845 256.099 377.677 256.267 378.12 256.981C378.512 257.615 378.338 258.134 377.732 258.134C377.128 258.134 375.716 258.986 374.596 260.029C373.476 261.071 371.359 262.164 369.891 262.458C368.422 262.751 364.747 263.721 361.724 264.612C355.217 266.532 345.046 266.217 343.659 264.054C343.155 263.269 343.021 259.456 343.359 255.581C343.88 249.618 343.561 247.21 341.281 239.899C339.759 235.026 337.28 229.613 335.588 227.477C332.27 223.287 326.145 217.25 323.642 215.705C322.162 214.79 317.046 211.434 310.753 207.248C308.902 206.017 295.627 198.827 292.969 197.616C292.631 197.462 296.014 189.994 296.76 189.249C297.035 188.974 297.396 188.075 297.563 187.252C297.73 186.428 299.602 181.262 301.725 175.771C307.137 161.765 313.24 143.176 315.327 134.34C316.299 130.222 317.355 126.628 317.672 126.353C317.988 126.079 318.271 124.731 318.299 123.358C318.327 121.985 318.976 117.493 319.74 113.375C321.272 105.121 321.682 81.6516 320.475 71.3477C320.05 67.7247 318.779 62.135 317.65 58.9244C316.52 55.7147 315.535 52.2764 315.46 51.2851C315.386 50.2927 314.97 49.4811 314.537 49.4811C314.105 49.4811 313.751 48.7643 313.751 47.8877C313.751 46.1257 310.685 40.1886 309.503 39.6644C309.09 39.4807 308.754 38.6631 308.754 37.8455C308.754 37.0288 308.192 35.7729 307.504 35.0561C306.818 34.3393 305.58 32.7399 304.756 31.503C296.056 18.4527 280.948 7.2823 266.277 3.05234C260.864 1.49194 241.706 -0.0185469 240.655 1.03171Z" fill="black"/>
<path fill-rule="evenodd" clip-rule="evenodd" d="M236.294 2.06698C232.446 2.7748 225.475 4.78745 220.803 6.53854C216.13 8.29062 210.845 10.2434 209.059 10.8783C207.273 11.5133 205.811 12.3718 205.811 12.7871C205.811 13.2015 205.291 13.5409 204.656 13.5409C204.021 13.5409 202.027 14.664 200.225 16.0367C198.423 17.4094 196.469 18.5326 195.884 18.5326C195.297 18.5326 194.817 18.9519 194.817 19.464C194.817 19.9762 193.874 20.694 192.719 21.0594C191.566 21.4258 189.844 22.467 188.893 23.3735C187.942 24.28 184.13 27.6963 180.422 30.9659C172.042 38.3546 157.377 56.9367 150.158 69.3131C150.041 69.5138 146.662 68.3397 142.648 66.7054C125.516 59.728 111.799 56.7839 95.3726 56.5603C74.907 56.2808 60.633 60.1084 40.4212 71.2928C38.7822 72.2003 36.8392 73.5041 36.1026 74.19C35.3661 74.8768 34.4586 75.4399 34.0858 75.4429C33.712 75.4449 31.803 76.9055 29.8421 78.6875C27.8812 80.4695 24.3942 83.6123 22.0935 85.6709C19.7927 87.7304 18.2146 89.4146 18.5864 89.4146C18.9592 89.4146 18.3356 90.425 17.2012 91.6609C14.1219 95.0133 8.50904 104.284 6.47017 109.381C2.3015 119.81 1.08218 127.366 1.396 140.829C1.56291 147.967 1.90272 154.481 2.15058 155.305C2.39944 156.129 2.93614 158.6 3.34291 160.796C4.66718 167.946 9.91425 179.931 15.799 189.249C28.4299 209.246 51.0553 229.18 85.0773 250.286C105.833 263.161 132.181 276.704 153.84 285.63C157.413 287.103 161.236 288.696 162.335 289.171C172.32 293.486 212.013 306.054 215.656 306.054C218.969 306.054 225.8 303.931 225.8 302.901C225.8 302.439 226.394 302.061 227.12 302.061C229.264 302.061 237.437 293.629 238.188 290.643C239.129 286.895 237.624 285.431 231.482 284.121C220.589 281.796 174.453 265.352 167.141 261.188C166.147 260.622 158.721 257.041 150.639 253.231C133.742 245.264 114.998 234.617 96.3721 222.404C81.3474 212.553 77.7224 209.737 78.6869 208.667C79.0687 208.244 78.8928 208.174 78.2961 208.513C77.6985 208.853 74.1005 206.415 70.3006 203.094C57.9934 192.342 49.1294 182.294 41.9314 170.935C36.1566 161.82 35.451 160.363 32.4397 151.33C24.2623 126.792 27.8483 100.189 41.0579 87.384C43.3036 85.2066 45.7623 83.4246 46.5208 83.4246C47.2784 83.4246 47.8991 83.0472 47.8991 82.586C47.8991 80.5354 64.2919 77.2349 74.4793 77.2349C83.7351 77.2349 90.2934 78.0865 100.37 80.5973C107.827 82.4562 127.561 89.9418 137.849 94.8157C140.323 95.9867 143.021 96.8822 143.846 96.8043C147.469 96.4619 151.841 95.0822 151.841 94.2815C151.841 93.8013 152.516 93.408 153.34 93.408C154.165 93.408 154.839 92.9887 154.839 92.4765C154.839 91.9644 155.805 91.2396 156.984 90.8662C160.057 89.8918 163.252 85.8805 166.887 78.4329C170.751 70.5171 180.154 54.3909 184.011 49.0678C189.903 40.9353 202.013 29.5143 204.745 29.5143C205.331 29.5143 205.811 29.1749 205.811 28.7596C205.811 27.3809 215.21 23.7739 222.045 22.5309C238.64 19.5109 256.343 25.8514 269.769 39.6235C273.345 43.2914 276.725 46.8984 277.279 47.6371C283.138 55.4561 290.331 70.3613 291.419 76.9354C291.601 78.0336 291.968 80.2798 292.236 81.9271C295.839 104.107 294.564 122.069 287.594 147.318C286.003 153.084 284.579 158.25 284.429 158.799C283.73 161.375 281.251 168.622 278.115 177.268C276.222 182.485 274.479 187.33 274.241 188.036C273.901 189.047 273.172 188.989 270.803 187.766C269.15 186.911 267.681 186.294 267.537 186.393C267.394 186.492 265.478 186.004 263.279 185.308C258.386 183.759 252.607 180.015 247.293 174.951C241.817 169.732 231.283 162.293 229.369 162.293C228.505 162.293 227.813 161.956 227.831 161.545C227.928 159.265 231.066 157.354 236.293 156.388C239.541 155.788 242.598 154.899 243.086 154.41C244.404 153.095 244.229 125.546 242.87 120.59C242.228 118.244 241.973 115.885 242.305 115.348C242.637 114.812 242.463 114.373 241.917 114.373C241.372 114.373 240.611 113.363 240.226 112.127C239.4 109.481 233.994 102.393 232.802 102.393C232.347 102.393 230.087 101.157 227.778 99.6476C225.469 98.1381 223.292 96.8762 222.941 96.8453C222.59 96.8133 219.773 95.9637 216.683 94.9554C212.104 93.4629 210.463 93.3331 207.823 94.2526C206.04 94.8725 204.114 95.0922 203.543 94.7398C202.972 94.3864 202.758 94.5082 203.069 95.0093C203.378 95.5115 201.845 96.7904 199.662 97.8506C196.029 99.6167 194.993 99.6795 187.457 98.5904C175.503 96.8642 172.192 97.0399 169.697 99.5318C167.784 101.443 167.621 102.422 168.122 109.029C168.953 120.002 170.81 122.946 180.325 128.369C190.43 134.128 190.182 132.89 186.129 157.302C185.901 158.674 185.689 160.471 185.658 161.295C185.628 162.119 184.502 167.959 183.156 174.273C179.549 191.197 179.586 190.924 179.451 201.765C179.328 211.644 179.386 211.905 183.536 220.234C187.675 228.54 189.567 230.8 202.625 243.04C208.7 248.736 208.922 249.114 208.621 253.294C208.417 256.146 207.875 257.547 207.042 257.379C206.346 257.238 204.225 257.77 202.331 258.561C198.878 260.003 196.998 263.551 198.128 266.493C198.798 268.236 203.847 269.349 210.439 269.206C214.67 269.115 215.653 269.422 216.058 270.971C216.489 272.616 217.567 272.846 224.842 272.846C232.295 272.846 233.359 272.606 235.343 270.467C238.212 267.374 239.108 262.642 237.608 258.498C236.95 256.678 236.73 254.87 237.12 254.481C237.509 254.091 239.957 254.312 242.559 254.973C245.16 255.634 248.377 256.38 249.709 256.63C251.04 256.882 255.009 258.044 258.528 259.214L264.927 261.342L262.637 263.775L260.348 266.209L263.313 268.967L266.277 271.723L312.252 271.667C357.084 271.612 358.399 271.556 365.203 269.37C370.258 267.746 373.273 266.037 376.148 263.165C378.33 260.984 379.836 258.922 379.493 258.579C379.151 258.238 376.831 259.152 374.337 260.613C371.843 262.072 369.564 263.247 369.272 263.223C368.98 263.199 368.175 263.363 367.481 263.586C359.897 266.03 347.873 266.8 344.606 265.053C342.785 264.08 342.665 263.312 343.238 256.318C343.774 249.782 343.488 247.408 341.302 240.239C338.359 230.587 337.614 229.282 331.628 223.309C327.026 218.715 316.379 210.214 315.23 210.214C314.861 210.214 313.365 209.365 311.906 208.328C310.447 207.29 305.655 204.532 301.258 202.198C296.86 199.864 293.145 197.862 293.002 197.75C292.858 197.639 295.036 191.974 297.842 185.161C303.53 171.347 311.398 148.256 314.818 135.338C316.055 130.671 317.332 126.628 317.657 126.353C317.982 126.079 318.292 124.506 318.345 122.859C318.399 121.212 319.031 116.495 319.75 112.376C321.179 104.185 321.654 80.8689 320.554 72.942C319.049 62.1001 311.961 40.7556 309.503 39.6644C309.09 39.4807 308.754 38.8807 308.754 38.3296C308.754 37.2944 303.402 29.3745 300.758 26.4963C299.934 25.5988 298.31 23.7769 297.15 22.4471C289.352 13.5059 275.147 5.13787 263.279 2.49327C255.732 0.811067 244.119 0.628373 236.294 2.06698Z" fill="black"/>
<path fill-rule="evenodd" clip-rule="evenodd" d="M247.537 1.14252C247.4 1.27829 244.814 1.51889 241.791 1.67863C236.548 1.95517 226.742 4.23737 220.303 6.6813C210.982 10.2174 195.077 18.904 189.486 23.5113C184.573 27.5596 182.894 29.0631 177.409 34.3233C170.314 41.13 162.138 51.2901 155.339 61.7547C152.591 65.9846 149.835 69.4459 149.217 69.4469C148.598 69.4479 145.553 68.3257 142.448 66.955C139.345 65.5833 132.408 63.1573 127.034 61.562C88.1976 50.0372 49.9809 58.9284 22.4453 85.8935C20.7782 87.5248 19.0771 88.7607 18.6654 88.6389C18.2526 88.5161 18.0067 88.7527 18.1177 89.165C18.2296 89.5764 16.2667 93.0586 13.7561 96.9022C7.55656 106.394 6.50714 108.622 3.8836 117.867C0.995213 128.044 0.341579 145.947 2.53436 154.806C3.3499 158.1 4.17844 162.144 4.37533 163.791C4.57222 165.438 6.99087 171.528 9.75034 177.323C18.2396 195.153 34.1657 213.659 53.8957 228.618C93.7095 258.807 146.388 285.328 198.315 301.327C214.179 306.215 215.54 306.449 220.079 305.091C228.563 302.552 237.793 294.247 237.793 289.151C237.793 286.549 237.318 286.243 230.048 284.168C211.507 278.874 191.116 271.582 169.831 262.631C163.112 259.806 135.394 246.136 128.354 242.175C102.453 227.604 77.3696 210.852 78.564 208.921C78.9128 208.357 78.6979 208.213 78.0772 208.595C76.2693 209.711 55.5018 190.69 56.5972 188.921C56.93 188.382 56.7711 188.208 56.2424 188.535C55.7147 188.86 53.9587 187.519 52.3406 185.555C50.7225 183.59 48.9485 181.483 48.3988 180.873C45.9901 178.201 38.975 167.398 36.9811 163.292C26.452 141.603 25.0398 116.639 33.2972 98.183C40.1424 82.8855 54.2965 76.1597 77.8824 76.9963C93.9514 77.5664 111.156 82.3494 131.353 91.8596C140.153 96.0037 141.918 96.5028 146.122 96.0296C148.748 95.7341 151.652 94.7378 152.575 93.8163C153.498 92.8938 155.622 91.5441 157.295 90.8163C158.967 90.0885 159.938 89.4755 159.451 89.4536C158.963 89.4326 159.729 88.2516 161.151 86.8309C162.574 85.4093 166.059 79.6818 168.896 74.1021C178.607 54.9989 189.201 40.3083 198.283 33.3509C201.049 31.2315 203.762 29.1489 204.312 28.7216C204.862 28.2953 207.429 26.9576 210.018 25.7496C229.884 16.477 254.36 22.5759 271.694 41.116C286.618 57.0794 293.558 74.8539 294.254 98.8989C294.877 120.429 291.812 137.027 281.483 168.045C274.973 187.593 274.252 189.224 272.345 188.681C260.018 185.177 255.974 182.837 242.273 171.278C238.042 167.709 233.194 164.309 231.5 163.722C229.806 163.135 228.294 162.236 228.143 161.725C227.556 159.753 230.754 157.187 234.439 156.674C239.65 155.949 243.885 154.27 243.218 153.193C242.918 152.707 242.961 151.843 243.315 151.272C244.192 149.855 243.884 131.447 242.84 122.859C242.373 119.015 242.24 115.464 242.545 114.967C242.849 114.471 242.627 114.355 242.052 114.712C241.473 115.069 240.734 114.279 240.399 112.945C238.919 107.055 230.596 100.384 219.22 95.9697C213.085 93.5897 211.629 93.3631 208.32 94.2765C206.219 94.8556 204.007 95.0503 203.406 94.7078C202.805 94.3664 202.649 94.4563 203.059 94.9085C203.469 95.3607 202.43 96.5657 200.75 97.586C198.01 99.2503 196.315 99.3731 184.376 98.7751L171.057 98.1072L169.756 100.5C168.539 102.738 168.479 104.536 169.322 113.375C170.142 121.951 171.809 123.805 184.323 130.053L188.321 132.05L188.25 138.935C188.149 148.778 187.61 154.319 186.7 154.881C186.265 155.149 186.131 155.945 186.401 156.65C186.672 157.354 185.761 163.292 184.378 169.845C182.995 176.399 181.613 183.783 181.308 186.253C181.003 188.724 180.281 192.507 179.706 194.659C178.612 198.744 178.822 209.334 180.014 210.235C180.393 210.521 180.913 211.909 181.169 213.319C182.179 218.889 188.152 228.681 193.557 233.631C208.524 247.336 208.809 247.701 208.809 253.139C208.809 257.609 208.572 258.15 206.561 258.286C205.323 258.37 203.684 258.484 202.917 258.54C200.583 258.712 197.525 263.632 198.278 266.003C198.812 267.685 199.533 268.019 201.776 267.625C203.698 267.287 204.783 267.6 205.169 268.606C205.609 269.751 206.776 269.943 210.328 269.457C214.196 268.928 215.134 269.14 216.303 270.806C217.473 272.474 218.881 272.79 225.31 272.832C231.773 272.873 233.224 272.567 234.862 270.81C236.719 268.819 237.207 267.599 236.877 265.766C236.793 265.296 237.26 264.267 237.916 263.477C238.819 262.391 238.827 261.762 237.951 260.887C237.314 260.251 236.794 258.455 236.794 256.895C236.794 254.205 237.004 254.072 240.855 254.299C243.089 254.431 245.145 254.905 245.422 255.355C245.7 255.803 246.309 255.934 246.778 255.644C247.246 255.356 251.488 256.514 256.204 258.219L264.779 261.319L262.81 264.081L260.841 266.842L263.559 269.227L266.277 271.611L308.254 271.947C352.925 272.304 359.336 271.822 369.784 267.319C373.662 265.646 380.448 259.533 379.489 258.574C379.319 258.405 376.04 259.815 372.201 261.706C366.383 264.573 363.717 265.248 356.166 265.768C343.079 266.671 342.89 266.506 343.034 254.404C343.133 245.982 342.795 243.817 340.541 238.486C339.107 235.091 338.119 232.129 338.346 231.903C338.572 231.676 336.08 228.572 332.808 225.004C325.671 217.224 308.524 205.395 296.559 199.998C291.962 197.924 291.89 197.822 293.247 195.31C296.958 188.442 309.234 154.278 314.081 137.335C319.048 119.969 321.713 99.7394 321.137 83.796C319.525 39.2561 290.26 3.78612 253.034 1.25433C250.147 1.05766 247.674 1.00774 247.537 1.14252Z" fill="black"/>
<path fill-rule="evenodd" clip-rule="evenodd" d="M234.795 2.94851C225.689 5.10792 219.304 7.23838 212.485 10.3901C205.916 13.4281 193.409 20.9086 190.998 23.2437C190.272 23.9476 189.293 24.5226 188.824 24.5226C188.355 24.5226 183.718 28.7156 178.52 33.8411C168.724 43.5 159.385 55.2754 153.834 64.9653C151.398 69.2182 150.225 70.4133 148.983 69.9071C108.225 53.3007 78.2701 52.7417 47.7841 68.0202C40.7121 71.5653 27.2746 81.2792 22.5102 86.2908C20.9141 87.97 19.1581 89.0652 18.6074 88.7258C18.0577 88.3863 17.9148 88.605 18.2906 89.213C18.6664 89.821 17.3181 92.4735 15.2932 95.1072C2.06661 112.318 -2.23099 141.345 5.07993 164.091C14.5167 193.452 34.3396 216.031 73.3848 241.895C114.462 269.106 164.378 292.007 208.016 303.664C218.857 306.559 223.891 305.084 232.623 296.45C238.538 290.601 239.22 287.319 234.795 285.996C202 276.19 182.746 269.035 153.84 255.914C137.418 248.459 104.456 229.304 88.3765 217.872C70.5864 205.223 55.122 191.305 56.4573 189.146C56.91 188.415 56.7821 188.201 56.1325 188.603C54.1266 189.841 41.3537 173.071 36.4744 162.793C34.9103 159.498 33.3062 156.124 32.9094 155.293C31.3503 152.029 28.8177 142.031 28.1721 136.584C25.8633 117.136 29.7981 99.8852 39.2079 88.1877C45.6423 80.19 60.9758 75.8113 79.3815 76.7148C95.5455 77.5085 111.33 82.0219 132.497 91.9025C143.727 97.1448 146.106 97.1408 154.309 91.8685C161.373 87.3271 162.802 85.4712 169.66 71.9437C186.988 37.7646 205.245 22.0238 228.398 21.306C237.854 21.0125 243.677 22.3592 253.592 27.1333C272.034 36.0115 284.925 52.8964 292.377 77.9337C293.779 82.6469 294.17 87.6476 294.211 101.395C294.261 118.374 293.975 122.204 291.855 133.022C289.318 145.967 283.914 164.012 277.147 182.129C275.841 185.627 274.773 188.601 274.773 188.739C274.773 189.376 291.835 196.498 292.285 196.048C293.472 194.862 303.239 169.713 307.738 156.254C312.572 141.796 314.994 132.738 318.401 116.37C320.268 107.405 320.956 79.3674 319.529 70.4462C317.783 59.5393 312.897 45.6784 308.567 39.344C307.57 37.8864 306.755 36.2391 306.755 35.683C306.755 35.127 306.418 34.523 306.005 34.3393C305.592 34.1566 303.927 32.0531 302.303 29.6651C295.42 19.5449 280.182 8.39944 267.776 4.41108C259.663 1.80342 242.782 1.05466 234.795 2.94851ZM205.495 95.814C203.397 96.5827 200.794 98.0133 199.709 98.9937C197.882 100.645 196.904 100.685 186.415 99.5358C180.187 98.8539 173.921 98.5894 172.488 98.9488C169.011 99.8203 168.168 104.466 169.815 113.673C171.26 121.753 172.822 123.745 180.878 127.778C183.872 129.277 187.108 131.212 188.071 132.078C190.524 134.284 190.328 140.705 187.339 156.047C185.974 163.052 184.608 170.783 184.303 173.227C183.998 175.672 182.599 182.791 181.195 189.048C178.426 201.372 178.5 203.508 182.06 214.207C185.382 224.19 191.258 232.52 198.915 238.101C206.89 243.915 210.437 249.94 209.046 255.306C208.495 257.431 207.485 258.741 206.248 258.938C200.968 259.775 198.815 261.347 198.815 264.362C198.815 267.021 199.095 267.299 201.339 266.869C202.949 266.562 204.168 266.932 204.705 267.892C205.346 269.036 206.771 269.277 210.676 268.903C214.565 268.53 215.805 268.737 215.805 269.762C215.805 271.263 216.016 271.312 223.801 271.632C235.274 272.106 237.27 270.212 236.636 259.452C236.318 254.049 236.453 253.618 238.566 253.319C239.816 253.142 242.964 253.676 245.562 254.507C248.16 255.338 253.546 256.962 257.532 258.116C264.832 260.23 266.222 261.684 263.279 264.124C261.067 265.958 261.452 268.011 264.247 269.283C265.604 269.9 266.449 270.835 266.125 271.358C265.802 271.881 266.574 271.755 267.842 271.077C269.481 270.202 273.065 270.026 280.207 270.472C294.395 271.36 349.892 271.156 357.945 270.188C364.649 269.381 374.371 265.449 376.755 262.579C378.951 259.935 377.256 260.098 369.745 263.25C360.508 267.127 348.248 268.34 344.315 265.766C341.891 264.18 341.831 263.856 342.168 254.321C342.485 245.359 342.256 243.839 339.522 236.767C334.767 224.464 324.933 215.907 299.81 202.211C293.783 198.925 288.619 196.237 288.335 196.237C288.051 196.237 284.545 194.646 280.545 192.702C276.546 190.757 273.049 189.211 272.774 189.265C272.24 189.372 259.617 184.641 256.283 183.085C255.184 182.572 250.461 178.744 245.789 174.579C241.116 170.414 234.953 165.921 232.091 164.597C227.179 162.322 226.951 162.054 227.997 159.762C228.769 158.068 230.19 157.159 232.699 156.752C241.617 155.305 241.639 155.294 242.877 151.546C243.722 148.992 243.857 144.369 243.337 135.889C242.448 121.379 242.311 120.03 241.605 118.816C241.302 118.294 240.745 116.157 240.368 114.068C239.453 109.01 233.727 103.389 225.034 99.0167C216.818 94.8835 210.748 93.8882 205.495 95.814Z" fill="black"/>
<path d="M390.9 82.45C392.4 82.45 393.15 83.05 393.15 84.25C393.15 85.4167 392.4 86 390.9 86H390.1L390.45 98.15C390.483 98.7167 390.333 99.1833 390 99.55C389.667 99.8833 389.2 100.05 388.6 100.05C387.967 100.05 387.483 99.9 387.15 99.6C386.817 99.2667 386.633 98.8167 386.6 98.25L386.25 85.9L369.75 85.65L368.7 98.9C368.6 99.8333 367.967 100.3 366.8 100.3C365.4 100.3 364.75 99.7333 364.85 98.6L365.9 85.55H364.95C364.383 85.55 363.9 85.4 363.5 85.1C363.1 84.8 362.9 84.3667 362.9 83.8C362.9 83.2333 363.1 82.8 363.5 82.5C363.9 82.2 364.417 82.05 365.05 82.05H366.2L367.5 65.65C367.533 65.05 367.733 64.6167 368.1 64.35C368.5 64.05 368.967 63.9 369.5 63.9C370.167 63.9 370.65 64.1 370.95 64.5C371.25 64.8667 371.383 65.3333 371.35 65.9L370.05 82.15L386.15 82.4L385.65 65.8C385.65 65.2 385.817 64.7333 386.15 64.4C386.483 64.0667 386.95 63.9 387.55 63.9C388.15 63.9 388.617 64.0667 388.95 64.4C389.317 64.7333 389.5 65.15 389.5 65.65L390 82.45H390.9ZM426.095 98.3C426.195 98.6 426.245 98.8 426.245 98.9C426.245 99.4333 426.028 99.8333 425.595 100.1C425.195 100.367 424.695 100.5 424.095 100.5C423.661 100.5 423.278 100.4 422.945 100.2C422.611 100 422.395 99.7333 422.295 99.4L419.995 91.65L405.745 91.55L403.295 99.2C403.028 100.033 402.411 100.45 401.445 100.45C400.878 100.45 400.378 100.3 399.945 100C399.545 99.7 399.345 99.3167 399.345 98.85C399.345 98.7833 399.378 98.5833 399.445 98.25C402.811 88.3833 405.661 79.8 407.995 72.5C408.528 70.9 408.795 70.1 408.795 70.1C409.461 68.0667 410.128 66.6167 410.795 65.75C411.461 64.8833 412.278 64.45 413.245 64.45C414.178 64.45 414.945 64.8333 415.545 65.6C416.145 66.3667 416.745 67.7 417.345 69.6C418.611 73.5333 420.195 78.6333 422.095 84.9L422.945 87.75H424.345C424.878 87.75 425.311 87.9333 425.645 88.3C426.011 88.6667 426.195 89.1333 426.195 89.7C426.195 91 425.678 91.65 424.645 91.65H424.095C424.861 94.2833 425.528 96.5 426.095 98.3ZM418.895 87.7L417.395 82.55C416.228 78.5167 415.328 75.4333 414.695 73.3C414.295 71.9667 413.978 71 413.745 70.4C413.511 69.8 413.295 69.5 413.095 69.5C412.928 69.5 412.745 69.7667 412.545 70.3C412.345 70.8 412.011 71.7833 411.545 73.25L409.095 80.95L407.045 87.55L418.895 87.7ZM445.214 64.75C447.714 64.75 450.03 65.2333 452.164 66.2C454.33 67.1333 456.064 68.4833 457.364 70.25C458.664 71.9833 459.314 74 459.314 76.3C459.314 78.4 458.747 80.2667 457.614 81.9C456.48 83.5 454.914 84.7333 452.914 85.6C450.947 86.4667 448.697 86.9 446.164 86.9C443.297 86.9 440.88 86.3833 438.914 85.35L438.764 98.45C438.764 99.05 438.58 99.5167 438.214 99.85C437.88 100.183 437.414 100.35 436.814 100.35C436.18 100.35 435.68 100.183 435.314 99.85C434.98 99.5167 434.814 99.0667 434.814 98.5C434.814 96.9667 434.847 94.7 434.914 91.7C434.98 88.5 435.014 85.9667 435.014 84.1C435.014 80.6667 434.947 76.95 434.814 72.95C434.78 72.7167 434.764 72.3667 434.764 71.9L434.614 72C434.28 72.1667 433.997 72.25 433.764 72.25C433.297 72.25 432.914 72.0333 432.614 71.6C432.347 71.1333 432.214 70.6 432.214 70C432.214 69.6 432.347 69.2833 432.614 69.05C432.88 68.7833 433.28 68.5167 433.814 68.25L434.664 67.75V66.95C434.664 66.1833 434.83 65.6167 435.164 65.25C435.497 64.8833 436.014 64.7 436.714 64.7C437.314 64.7 437.78 64.8 438.114 65C438.447 65.2 438.614 65.4667 438.614 65.8V65.9C440.747 65.1333 442.947 64.75 445.214 64.75ZM445.464 83.6C447.364 83.6 449.03 83.2833 450.464 82.65C451.93 82.0167 453.064 81.1333 453.864 80C454.664 78.8667 455.064 77.5833 455.064 76.15C455.064 74.6167 454.614 73.25 453.714 72.05C452.814 70.85 451.614 69.9167 450.114 69.25C448.647 68.5833 447.03 68.25 445.264 68.25C443.43 68.25 441.23 68.8333 438.664 70C438.73 72.3333 438.764 73.8667 438.764 74.6C438.764 75.3333 438.797 76.5 438.864 78.1C438.93 80.0667 438.947 81.3667 438.914 82C440.78 83.0667 442.964 83.6 445.464 83.6ZM475.78 64.75C478.28 64.75 480.597 65.2333 482.73 66.2C484.897 67.1333 486.63 68.4833 487.93 70.25C489.23 71.9833 489.88 74 489.88 76.3C489.88 78.4 489.313 80.2667 488.18 81.9C487.047 83.5 485.48 84.7333 483.48 85.6C481.513 86.4667 479.263 86.9 476.73 86.9C473.863 86.9 471.447 86.3833 469.48 85.35L469.33 98.45C469.33 99.05 469.147 99.5167 468.78 99.85C468.447 100.183 467.98 100.35 467.38 100.35C466.747 100.35 466.247 100.183 465.88 99.85C465.547 99.5167 465.38 99.0667 465.38 98.5C465.38 96.9667 465.413 94.7 465.48 91.7C465.547 88.5 465.58 85.9667 465.58 84.1C465.58 80.6667 465.513 76.95 465.38 72.95C465.347 72.7167 465.33 72.3667 465.33 71.9L465.18 72C464.847 72.1667 464.563 72.25 464.33 72.25C463.863 72.25 463.48 72.0333 463.18 71.6C462.913 71.1333 462.78 70.6 462.78 70C462.78 69.6 462.913 69.2833 463.18 69.05C463.447 68.7833 463.847 68.5167 464.38 68.25L465.23 67.75V66.95C465.23 66.1833 465.397 65.6167 465.73 65.25C466.063 64.8833 466.58 64.7 467.28 64.7C467.88 64.7 468.347 64.8 468.68 65C469.013 65.2 469.18 65.4667 469.18 65.8V65.9C471.313 65.1333 473.513 64.75 475.78 64.75ZM476.03 83.6C477.93 83.6 479.597 83.2833 481.03 82.65C482.497 82.0167 483.63 81.1333 484.43 80C485.23 78.8667 485.63 77.5833 485.63 76.15C485.63 74.6167 485.18 73.25 484.28 72.05C483.38 70.85 482.18 69.9167 480.68 69.25C479.213 68.5833 477.597 68.25 475.83 68.25C473.997 68.25 471.797 68.8333 469.23 70C469.297 72.3333 469.33 73.8667 469.33 74.6C469.33 75.3333 469.363 76.5 469.43 78.1C469.497 80.0667 469.513 81.3667 469.48 82C471.347 83.0667 473.53 83.6 476.03 83.6ZM507.896 99.85C506.596 99.85 505.946 99.2167 505.946 97.95L505.796 83.6C504.163 83.0333 502.146 80.85 499.746 77.05C498.713 75.4167 497.863 73.9167 497.196 72.55C496.563 71.1833 495.83 69.4167 494.996 67.25C494.93 67.05 494.896 66.85 494.896 66.65C494.896 66.2167 495.096 65.8333 495.496 65.5C495.93 65.1667 496.413 65 496.946 65C497.78 65 498.446 65.5833 498.946 66.75C499.913 69.05 500.613 70.6667 501.046 71.6C501.513 72.5 502.23 73.75 503.196 75.35C504.13 76.85 504.98 78.0833 505.746 79.05C506.513 80.0167 507.196 80.5 507.796 80.5C508.83 80.5 510.38 78.7667 512.446 75.3C513.213 74 513.913 72.7 514.546 71.4C515.18 70.1 515.913 68.4833 516.746 66.55C516.98 65.9833 517.23 65.6 517.496 65.4C517.763 65.2 518.096 65.1 518.496 65.1C519.096 65.1 519.596 65.2833 519.996 65.65C520.43 65.9833 520.646 66.4 520.646 66.9C520.646 67.1333 520.596 67.35 520.496 67.55C519.563 69.8833 518.763 71.75 518.096 73.15C517.43 74.55 516.696 75.8833 515.896 77.15C514.73 79.0167 513.58 80.5 512.446 81.6C511.313 82.7 510.38 83.3667 509.646 83.6L509.796 97.85C509.796 99.1833 509.163 99.85 507.896 99.85Z" fill="black"/>
<path d="M456.935 192L427.882 193.395L427.649 166.55H414.285L413.472 192H387.44L389.648 110.304L417.307 111.582L415.563 153.302H428.463L428.579 108.444L455.075 109.142L456.935 192ZM525.475 155.804C525.475 158.914 525.116 161.922 524.398 164.827C523.681 167.698 522.638 170.398 521.271 172.928C519.938 175.457 518.297 177.781 516.349 179.9C514.435 181.985 512.265 183.78 509.838 185.284C507.445 186.788 504.831 187.967 501.994 188.821C499.157 189.642 496.149 190.052 492.97 190.052C489.894 190.052 486.955 189.659 484.152 188.873C481.383 188.086 478.786 186.993 476.359 185.591C473.932 184.156 471.728 182.447 469.745 180.464C467.797 178.448 466.122 176.226 464.721 173.799C463.354 171.338 462.277 168.707 461.491 165.904C460.739 163.101 460.363 160.179 460.363 157.137C460.363 154.163 460.722 151.258 461.439 148.421C462.157 145.55 463.183 142.85 464.516 140.32C465.883 137.791 467.523 135.467 469.438 133.348C471.352 131.229 473.488 129.4 475.846 127.862C478.239 126.324 480.819 125.127 483.588 124.273C486.356 123.418 489.279 122.991 492.355 122.991C497.311 122.991 501.823 123.76 505.89 125.298C509.992 126.836 513.478 129.041 516.349 131.912C519.254 134.749 521.493 138.201 523.065 142.269C524.672 146.302 525.475 150.813 525.475 155.804ZM502.711 157.137C502.711 155.667 502.489 154.249 502.045 152.881C501.635 151.48 501.02 150.25 500.199 149.19C499.379 148.096 498.354 147.225 497.123 146.575C495.927 145.892 494.542 145.55 492.97 145.55C491.364 145.55 489.928 145.84 488.664 146.421C487.399 147.002 486.305 147.806 485.382 148.831C484.494 149.822 483.81 151.001 483.332 152.369C482.853 153.702 482.614 155.12 482.614 156.624C482.614 158.06 482.819 159.495 483.229 160.931C483.639 162.366 484.254 163.665 485.075 164.827C485.895 165.989 486.903 166.929 488.1 167.647C489.33 168.365 490.749 168.724 492.355 168.724C493.961 168.724 495.397 168.416 496.662 167.801C497.96 167.151 499.054 166.297 499.943 165.237C500.832 164.144 501.515 162.896 501.994 161.495C502.472 160.093 502.711 158.641 502.711 157.137ZM595.862 130.102C595.862 132.848 595.732 135.872 595.473 139.175C595.213 142.478 594.786 145.892 594.192 149.417C593.599 152.942 592.819 156.523 591.854 160.16C590.927 163.76 589.758 167.229 588.348 170.569C586.938 173.909 585.286 177.045 583.394 179.977C581.538 182.871 579.386 185.413 576.937 187.603C574.524 189.755 571.815 191.443 568.81 192.668C565.804 193.93 562.464 194.561 558.79 194.561C554.485 194.561 550.737 193.855 547.546 192.445C544.392 191.072 541.683 189.217 539.419 186.879C537.155 184.504 535.3 181.758 533.853 178.641C532.405 175.486 531.273 172.165 530.457 168.677C529.641 165.151 529.065 161.57 528.731 157.934C528.435 154.26 528.286 150.734 528.286 147.357C528.286 142.162 528.546 136.985 529.065 131.827C529.585 126.632 530.327 121.455 531.292 116.297L557.343 117.299C556.341 123.125 555.469 128.988 554.727 134.889C554.021 140.752 553.669 146.652 553.669 152.59C553.669 153.221 553.688 154.167 553.725 155.429C553.799 156.653 553.91 158.045 554.059 159.604C554.207 161.125 554.411 162.702 554.671 164.335C554.968 165.931 555.357 167.396 555.84 168.732C556.322 170.068 556.897 171.163 557.565 172.017C558.271 172.87 559.087 173.297 560.015 173.297C561.091 173.297 562.056 172.796 562.909 171.794C563.763 170.755 564.505 169.382 565.136 167.675C565.804 165.968 566.379 164.001 566.861 161.774C567.344 159.548 567.752 157.229 568.086 154.816C568.42 152.404 568.68 149.992 568.865 147.58C569.088 145.168 569.255 142.923 569.366 140.845C569.515 138.767 569.607 136.93 569.645 135.334C569.682 133.738 569.7 132.551 569.7 131.771C569.7 128.877 569.645 126.001 569.533 123.144C569.459 120.249 569.329 117.373 569.144 114.516H595.194C595.64 119.637 595.862 124.832 595.862 130.102ZM666.373 121.98L662.857 188.191L637.271 190.535L623.6 155.086L621.451 191.219H599.479L601.236 121.98L625.65 120.809L642.545 155.965L643.326 122.762L666.373 121.98ZM733.793 147.803C733.793 152.998 733.125 157.692 731.789 161.886C730.453 166.042 728.579 169.753 726.167 173.019C723.792 176.247 720.953 179.03 717.65 181.368C714.348 183.706 710.729 185.636 706.796 187.157C702.862 188.642 698.669 189.755 694.216 190.497C689.8 191.202 685.254 191.555 680.578 191.555C678.834 191.555 677.127 191.518 675.457 191.443C673.787 191.332 672.08 191.184 670.336 190.998L671.895 116.297C675.977 114.998 680.17 114.089 684.475 113.569C688.816 113.013 693.121 112.734 697.389 112.734C702.695 112.734 707.575 113.532 712.028 115.128C716.481 116.724 720.322 119.024 723.551 122.03C726.779 125.036 729.284 128.71 731.065 133.052C732.884 137.394 733.793 142.311 733.793 147.803ZM710.971 151.365C711.008 149.361 710.785 147.432 710.303 145.576C709.857 143.721 709.097 142.088 708.021 140.678C706.981 139.23 705.646 138.08 704.013 137.227C702.38 136.336 700.432 135.854 698.168 135.779L695.941 170.291C698.168 169.957 700.19 169.233 702.009 168.12C703.827 166.97 705.386 165.578 706.685 163.945C708.021 162.275 709.041 160.438 709.746 158.435C710.488 156.394 710.896 154.297 710.971 152.145V151.365ZM783.69 167.582C783.69 171.774 782.956 175.446 781.487 178.598C780.049 181.719 778.06 184.32 775.521 186.4C773.011 188.481 770.059 190.042 766.662 191.082C763.296 192.122 759.67 192.643 755.784 192.643C754.285 192.643 752.632 192.444 750.827 192.046C749.052 191.648 747.247 191.159 745.411 190.577C743.575 189.965 741.8 189.323 740.087 188.649C738.404 187.946 736.905 187.288 735.589 186.676L737.608 167.766C740.209 169.326 743.086 170.52 746.237 171.346C749.42 172.141 752.541 172.539 755.601 172.539C756.182 172.539 756.886 172.524 757.712 172.493C758.538 172.432 759.318 172.294 760.053 172.08C760.818 171.835 761.46 171.483 761.98 171.024C762.501 170.565 762.761 169.908 762.761 169.051C762.761 168.469 762.577 167.98 762.21 167.582C761.843 167.154 761.368 166.817 760.787 166.572C760.206 166.297 759.548 166.098 758.813 165.976C758.079 165.823 757.36 165.715 756.656 165.654C755.952 165.593 755.295 165.562 754.683 165.562C754.071 165.562 753.581 165.562 753.214 165.562C750.582 165.562 748.18 165.104 746.008 164.186C743.866 163.268 742.015 161.998 740.454 160.376C738.924 158.724 737.731 156.781 736.874 154.547C736.017 152.283 735.589 149.835 735.589 147.203C735.589 143.592 736.308 140.364 737.746 137.519C739.215 134.642 741.158 132.21 743.575 130.221C746.023 128.201 748.823 126.656 751.975 125.585C755.126 124.514 758.385 123.979 761.751 123.979C763.25 123.979 764.796 124.04 766.387 124.162C767.978 124.254 769.554 124.438 771.114 124.713C772.705 124.988 774.251 125.34 775.75 125.769C777.249 126.197 778.672 126.732 780.019 127.375L778.274 146.01C776.194 145.306 774.006 144.725 771.711 144.266C769.447 143.776 767.228 143.531 765.056 143.531C764.658 143.531 764.138 143.547 763.495 143.577C762.883 143.577 762.225 143.623 761.521 143.715C760.848 143.776 760.16 143.883 759.456 144.036C758.752 144.189 758.125 144.403 757.574 144.679C757.023 144.924 756.58 145.26 756.243 145.688C755.907 146.117 755.754 146.622 755.784 147.203C755.815 147.876 756.06 148.427 756.519 148.855C757.008 149.253 757.62 149.575 758.354 149.819C759.119 150.034 759.946 150.187 760.833 150.278C761.751 150.37 762.654 150.431 763.541 150.462C764.428 150.462 765.255 150.462 766.02 150.462C766.785 150.431 767.412 150.447 767.901 150.508C770.349 150.661 772.552 151.181 774.511 152.068C776.469 152.956 778.121 154.134 779.468 155.603C780.845 157.071 781.885 158.831 782.589 160.881C783.323 162.9 783.69 165.134 783.69 167.582Z" fill="black"/>
<path d="M503.17 228.185C505.12 228.185 506.095 228.965 506.095 230.525C506.095 232.042 505.12 232.8 503.17 232.8H502.13L502.585 248.595C502.628 249.332 502.433 249.938 502 250.415C501.567 250.848 500.96 251.065 500.18 251.065C499.357 251.065 498.728 250.87 498.295 250.48C497.862 250.047 497.623 249.462 497.58 248.725L497.125 232.67L475.675 232.345L474.31 249.57C474.18 250.783 473.357 251.39 471.84 251.39C470.02 251.39 469.175 250.653 469.305 249.18L470.67 232.215H469.435C468.698 232.215 468.07 232.02 467.55 231.63C467.03 231.24 466.77 230.677 466.77 229.94C466.77 229.203 467.03 228.64 467.55 228.25C468.07 227.86 468.742 227.665 469.565 227.665H471.06L472.75 206.345C472.793 205.565 473.053 205.002 473.53 204.655C474.05 204.265 474.657 204.07 475.35 204.07C476.217 204.07 476.845 204.33 477.235 204.85C477.625 205.327 477.798 205.933 477.755 206.67L476.065 227.795L496.995 228.12L496.345 206.54C496.345 205.76 496.562 205.153 496.995 204.72C497.428 204.287 498.035 204.07 498.815 204.07C499.595 204.07 500.202 204.287 500.635 204.72C501.112 205.153 501.35 205.695 501.35 206.345L502 228.185H503.17ZM534.623 250.48C530.593 250.48 526.931 249.7 523.638 248.14C520.345 246.537 517.723 244.11 515.773 240.86C513.823 237.567 512.848 233.515 512.848 228.705C512.848 224.155 513.736 220.082 515.513 216.485C517.29 212.888 519.803 210.093 523.053 208.1C526.303 206.063 530.051 205.045 534.298 205.045C538.588 205.045 542.488 206.085 545.998 208.165C549.508 210.202 552.26 213.04 554.253 216.68C556.29 220.32 557.308 224.437 557.308 229.03C557.308 233.667 556.268 237.61 554.188 240.86C552.108 244.067 549.335 246.472 545.868 248.075C542.445 249.678 538.696 250.48 534.623 250.48ZM534.948 245.865C537.851 245.865 540.625 245.28 543.268 244.11C545.911 242.897 548.078 241.012 549.768 238.455C551.458 235.855 552.303 232.627 552.303 228.77C552.303 225.13 551.545 221.858 550.028 218.955C548.511 216.052 546.388 213.777 543.658 212.13C540.971 210.483 537.938 209.66 534.558 209.66C531.265 209.66 528.34 210.462 525.783 212.065C523.27 213.625 521.298 215.813 519.868 218.63C518.481 221.447 517.788 224.697 517.788 228.38C517.788 232.497 518.633 235.877 520.323 238.52C522.013 241.12 524.158 243.005 526.758 244.175C529.358 245.302 532.088 245.865 534.948 245.865ZM599.167 223.31C599.167 225.087 599.189 226.473 599.232 227.47C599.319 234.837 599.362 242.008 599.362 248.985C599.362 250.415 598.539 251.13 596.892 251.13C596.026 251.13 595.376 250.935 594.942 250.545C594.552 250.112 594.357 249.44 594.357 248.53V243.46C593.144 245.627 591.324 247.403 588.897 248.79C586.471 250.177 583.741 250.87 580.707 250.87C575.507 250.87 571.672 249.267 569.202 246.06C566.732 242.853 565.497 238.845 565.497 234.035C565.497 231.695 565.519 229.182 565.562 226.495C565.606 223.808 565.649 221.75 565.692 220.32C565.779 217.417 565.866 213.148 565.952 207.515C565.952 206.085 566.754 205.37 568.357 205.37C569.181 205.37 569.809 205.565 570.242 205.955C570.676 206.345 570.892 206.887 570.892 207.58C570.892 208.88 570.827 213.43 570.697 221.23C570.611 226.777 570.567 231.023 570.567 233.97C570.567 238 571.499 241.055 573.362 243.135C575.269 245.215 577.999 246.255 581.552 246.255C583.806 246.255 585.907 245.562 587.857 244.175C589.807 242.788 591.346 241.033 592.472 238.91C593.642 236.787 594.227 234.707 594.227 232.67C594.227 227.297 594.162 218.825 594.032 207.255C594.032 205.738 594.812 204.98 596.372 204.98C597.196 204.98 597.824 205.197 598.257 205.63C598.734 206.063 598.972 206.648 598.972 207.385C598.972 212.065 599.037 217.373 599.167 223.31ZM623.152 250.935C619.989 250.935 617.28 250.307 615.027 249.05C612.774 247.75 611.062 246.038 609.892 243.915C608.765 241.748 608.202 239.408 608.202 236.895C608.202 236.115 608.375 235.508 608.722 235.075C609.112 234.642 609.762 234.425 610.672 234.425C612.362 234.425 613.207 235.14 613.207 236.57C613.207 238.607 613.662 240.362 614.572 241.835C615.482 243.308 616.695 244.435 618.212 245.215C619.729 245.995 621.375 246.385 623.152 246.385C625.752 246.385 627.875 245.778 629.522 244.565C631.212 243.352 632.057 241.597 632.057 239.3C632.057 237.61 631.602 236.223 630.692 235.14C629.782 234.013 628.59 233.125 627.117 232.475C625.644 231.782 623.759 231.088 621.462 230.395C618.992 229.702 616.89 228.987 615.157 228.25C613.424 227.47 611.799 226.235 610.282 224.545C608.809 222.855 608.072 220.623 608.072 217.85C608.072 215.38 608.722 213.17 610.022 211.22C611.322 209.27 613.055 207.753 615.222 206.67C617.389 205.587 619.772 205.045 622.372 205.045C625.059 205.045 627.485 205.63 629.652 206.8C631.862 207.97 633.574 209.508 634.787 211.415C636.044 213.322 636.672 215.337 636.672 217.46C636.672 218.413 636.477 219.085 636.087 219.475C635.74 219.865 635.134 220.06 634.267 220.06C633.27 220.06 632.599 219.865 632.252 219.475C631.905 219.085 631.732 218.543 631.732 217.85C631.732 215.553 630.865 213.603 629.132 212C627.399 210.397 625.145 209.595 622.372 209.595C619.599 209.595 617.345 210.397 615.612 212C613.922 213.56 613.077 215.532 613.077 217.915C613.077 219.518 613.532 220.84 614.442 221.88C615.395 222.877 616.565 223.657 617.952 224.22C619.382 224.783 621.397 225.455 623.997 226.235C626.207 226.928 628.2 227.708 629.977 228.575C631.797 229.398 633.422 230.698 634.852 232.475C636.282 234.252 636.997 236.505 636.997 239.235C636.997 241.575 636.39 243.633 635.177 245.41C634.007 247.187 632.36 248.552 630.237 249.505C628.157 250.458 625.795 250.935 623.152 250.935ZM672.453 245.15C673.363 245.063 674.035 245.215 674.468 245.605C674.945 245.995 675.183 246.602 675.183 247.425C675.183 248.162 675.01 248.703 674.663 249.05C674.316 249.353 673.84 249.57 673.233 249.7C671.543 250.047 668.271 250.22 663.418 250.22H661.338C658.435 250.22 655.835 250.177 653.538 250.09C651.285 250.003 648.728 249.787 645.868 249.44C644.698 249.31 644.113 248.595 644.113 247.295C644.113 246.645 644.265 246.103 644.568 245.67C644.871 245.237 645.261 245.02 645.738 245.02C646.171 245.02 646.54 245.042 646.843 245.085C647.536 240.752 647.905 235.465 647.948 229.225H647.168C646.431 229.225 645.868 229.03 645.478 228.64C645.088 228.25 644.893 227.687 644.893 226.95C644.893 225.433 645.565 224.675 646.908 224.675H647.948V217.46C647.948 214.34 647.926 212 647.883 210.44C646.67 210.223 646.063 209.53 646.063 208.36C646.063 207.45 646.28 206.865 646.713 206.605C647.19 206.302 647.84 206.107 648.663 206.02C651.09 205.76 654.816 205.63 659.843 205.63C666.126 205.63 670.633 205.825 673.363 206.215C674.1 206.345 674.641 206.562 674.988 206.865C675.378 207.125 675.573 207.623 675.573 208.36C675.573 209.097 675.378 209.682 674.988 210.115C674.598 210.548 674.1 210.722 673.493 210.635C669.16 210.288 665.173 210.115 661.533 210.115C658.716 210.115 655.791 210.202 652.758 210.375C652.931 216.442 653.018 221.23 653.018 224.74L657.373 224.805C660.84 224.892 663.05 224.935 664.003 224.935C666.343 225.022 667.816 225.065 668.423 225.065C669.636 225.065 670.243 225.78 670.243 227.21C670.243 227.947 670.091 228.532 669.788 228.965C669.485 229.398 669.03 229.615 668.423 229.615L664.978 229.55C663.028 229.42 660.45 229.355 657.243 229.355C655.293 229.355 653.863 229.333 652.953 229.29C652.91 234.23 652.541 239.603 651.848 245.41C654.535 245.627 657.893 245.735 661.923 245.735C664.263 245.735 666.105 245.692 667.448 245.605C668.835 245.518 670.503 245.367 672.453 245.15Z" fill="black"/>
</svg>
