<svg width="503" height="274" viewBox="0 0 503 274" fill="none" xmlns="http://www.w3.org/2000/svg">
<path d="M192.32 35.45C193.82 35.45 194.57 36.05 194.57 37.25C194.57 38.4167 193.82 39 192.32 39H191.52L191.87 51.15C191.903 51.7167 191.753 52.1833 191.42 52.55C191.087 52.8833 190.62 53.05 190.02 53.05C189.387 53.05 188.903 52.9 188.57 52.6C188.237 52.2667 188.053 51.8167 188.02 51.25L187.67 38.9L171.17 38.65L170.12 51.9C170.02 52.8333 169.387 53.3 168.22 53.3C166.82 53.3 166.17 52.7333 166.27 51.6L167.32 38.55H166.37C165.803 38.55 165.32 38.4 164.92 38.1C164.52 37.8 164.32 37.3667 164.32 36.8C164.32 36.2333 164.52 35.8 164.92 35.5C165.32 35.2 165.837 35.05 166.47 35.05H167.62L168.92 18.65C168.953 18.05 169.153 17.6167 169.52 17.35C169.92 17.05 170.387 16.9 170.92 16.9C171.587 16.9 172.07 17.1 172.37 17.5C172.67 17.8667 172.803 18.3333 172.77 18.9L171.47 35.15L187.57 35.4L187.07 18.8C187.07 18.2 187.237 17.7333 187.57 17.4C187.903 17.0667 188.37 16.9 188.97 16.9C189.57 16.9 190.037 17.0667 190.37 17.4C190.737 17.7333 190.92 18.15 190.92 18.65L191.42 35.45H192.32ZM227.514 51.3C227.614 51.6 227.664 51.8 227.664 51.9C227.664 52.4333 227.448 52.8333 227.014 53.1C226.614 53.3667 226.114 53.5 225.514 53.5C225.081 53.5 224.698 53.4 224.364 53.2C224.031 53 223.814 52.7333 223.714 52.4L221.414 44.65L207.164 44.55L204.714 52.2C204.448 53.0333 203.831 53.45 202.864 53.45C202.298 53.45 201.798 53.3 201.364 53C200.964 52.7 200.764 52.3167 200.764 51.85C200.764 51.7833 200.798 51.5833 200.864 51.25C204.231 41.3833 207.081 32.8 209.414 25.5C209.948 23.9 210.214 23.1 210.214 23.1C210.881 21.0667 211.548 19.6167 212.214 18.75C212.881 17.8833 213.698 17.45 214.664 17.45C215.598 17.45 216.364 17.8333 216.964 18.6C217.564 19.3667 218.164 20.7 218.764 22.6C220.031 26.5333 221.614 31.6333 223.514 37.9L224.364 40.75H225.764C226.298 40.75 226.731 40.9333 227.064 41.3C227.431 41.6667 227.614 42.1333 227.614 42.7C227.614 44 227.098 44.65 226.064 44.65H225.514C226.281 47.2833 226.948 49.5 227.514 51.3ZM220.314 40.7L218.814 35.55C217.648 31.5167 216.748 28.4333 216.114 26.3C215.714 24.9667 215.398 24 215.164 23.4C214.931 22.8 214.714 22.5 214.514 22.5C214.348 22.5 214.164 22.7667 213.964 23.3C213.764 23.8 213.431 24.7833 212.964 26.25L210.514 33.95L208.464 40.55L220.314 40.7ZM246.634 17.75C249.134 17.75 251.45 18.2333 253.584 19.2C255.75 20.1333 257.484 21.4833 258.784 23.25C260.084 24.9833 260.734 27 260.734 29.3C260.734 31.4 260.167 33.2667 259.034 34.9C257.9 36.5 256.334 37.7333 254.334 38.6C252.367 39.4667 250.117 39.9 247.584 39.9C244.717 39.9 242.3 39.3833 240.334 38.35L240.184 51.45C240.184 52.05 240 52.5167 239.634 52.85C239.3 53.1833 238.834 53.35 238.234 53.35C237.6 53.35 237.1 53.1833 236.734 52.85C236.4 52.5167 236.234 52.0667 236.234 51.5C236.234 49.9667 236.267 47.7 236.334 44.7C236.4 41.5 236.434 38.9667 236.434 37.1C236.434 33.6667 236.367 29.95 236.234 25.95C236.2 25.7167 236.184 25.3667 236.184 24.9L236.034 25C235.7 25.1667 235.417 25.25 235.184 25.25C234.717 25.25 234.334 25.0333 234.034 24.6C233.767 24.1333 233.634 23.6 233.634 23C233.634 22.6 233.767 22.2833 234.034 22.05C234.3 21.7833 234.7 21.5167 235.234 21.25L236.084 20.75V19.95C236.084 19.1833 236.25 18.6167 236.584 18.25C236.917 17.8833 237.434 17.7 238.134 17.7C238.734 17.7 239.2 17.8 239.534 18C239.867 18.2 240.034 18.4667 240.034 18.8V18.9C242.167 18.1333 244.367 17.75 246.634 17.75ZM246.884 36.6C248.784 36.6 250.45 36.2833 251.884 35.65C253.35 35.0167 254.484 34.1333 255.284 33C256.084 31.8667 256.484 30.5833 256.484 29.15C256.484 27.6167 256.034 26.25 255.134 25.05C254.234 23.85 253.034 22.9167 251.534 22.25C250.067 21.5833 248.45 21.25 246.684 21.25C244.85 21.25 242.65 21.8333 240.084 23C240.15 25.3333 240.184 26.8667 240.184 27.6C240.184 28.3333 240.217 29.5 240.284 31.1C240.35 33.0667 240.367 34.3667 240.334 35C242.2 36.0667 244.384 36.6 246.884 36.6ZM277.2 17.75C279.7 17.75 282.017 18.2333 284.15 19.2C286.317 20.1333 288.05 21.4833 289.35 23.25C290.65 24.9833 291.3 27 291.3 29.3C291.3 31.4 290.733 33.2667 289.6 34.9C288.467 36.5 286.9 37.7333 284.9 38.6C282.933 39.4667 280.683 39.9 278.15 39.9C275.283 39.9 272.867 39.3833 270.9 38.35L270.75 51.45C270.75 52.05 270.567 52.5167 270.2 52.85C269.867 53.1833 269.4 53.35 268.8 53.35C268.167 53.35 267.667 53.1833 267.3 52.85C266.967 52.5167 266.8 52.0667 266.8 51.5C266.8 49.9667 266.833 47.7 266.9 44.7C266.967 41.5 267 38.9667 267 37.1C267 33.6667 266.933 29.95 266.8 25.95C266.767 25.7167 266.75 25.3667 266.75 24.9L266.6 25C266.267 25.1667 265.983 25.25 265.75 25.25C265.283 25.25 264.9 25.0333 264.6 24.6C264.333 24.1333 264.2 23.6 264.2 23C264.2 22.6 264.333 22.2833 264.6 22.05C264.867 21.7833 265.267 21.5167 265.8 21.25L266.65 20.75V19.95C266.65 19.1833 266.817 18.6167 267.15 18.25C267.483 17.8833 268 17.7 268.7 17.7C269.3 17.7 269.767 17.8 270.1 18C270.433 18.2 270.6 18.4667 270.6 18.8V18.9C272.733 18.1333 274.933 17.75 277.2 17.75ZM277.45 36.6C279.35 36.6 281.017 36.2833 282.45 35.65C283.917 35.0167 285.05 34.1333 285.85 33C286.65 31.8667 287.05 30.5833 287.05 29.15C287.05 27.6167 286.6 26.25 285.7 25.05C284.8 23.85 283.6 22.9167 282.1 22.25C280.633 21.5833 279.017 21.25 277.25 21.25C275.417 21.25 273.217 21.8333 270.65 23C270.717 25.3333 270.75 26.8667 270.75 27.6C270.75 28.3333 270.783 29.5 270.85 31.1C270.917 33.0667 270.933 34.3667 270.9 35C272.767 36.0667 274.95 36.6 277.45 36.6ZM309.316 52.85C308.016 52.85 307.366 52.2167 307.366 50.95L307.216 36.6C305.583 36.0333 303.566 33.85 301.166 30.05C300.133 28.4167 299.283 26.9167 298.616 25.55C297.983 24.1833 297.25 22.4167 296.416 20.25C296.35 20.05 296.316 19.85 296.316 19.65C296.316 19.2167 296.516 18.8333 296.916 18.5C297.35 18.1667 297.833 18 298.366 18C299.2 18 299.866 18.5833 300.366 19.75C301.333 22.05 302.033 23.6667 302.466 24.6C302.933 25.5 303.65 26.75 304.616 28.35C305.55 29.85 306.4 31.0833 307.166 32.05C307.933 33.0167 308.616 33.5 309.216 33.5C310.25 33.5 311.8 31.7667 313.866 28.3C314.633 27 315.333 25.7 315.966 24.4C316.6 23.1 317.333 21.4833 318.166 19.55C318.4 18.9833 318.65 18.6 318.916 18.4C319.183 18.2 319.516 18.1 319.916 18.1C320.516 18.1 321.016 18.2833 321.416 18.65C321.85 18.9833 322.066 19.4 322.066 19.9C322.066 20.1333 322.016 20.35 321.916 20.55C320.983 22.8833 320.183 24.75 319.516 26.15C318.85 27.55 318.116 28.8833 317.316 30.15C316.15 32.0167 315 33.5 313.866 34.6C312.733 35.7 311.8 36.3667 311.066 36.6L311.216 50.85C311.216 52.1833 310.583 52.85 309.316 52.85Z" fill="url(#paint0_linear_17_179)"/>
<path d="M123.791 158L94.7383 159.395L94.5059 132.55H81.1416L80.3281 158H54.2969L56.5049 76.3037L84.1631 77.582L82.4199 119.302H95.3193L95.4355 74.4443L121.932 75.1416L123.791 158ZM192.332 121.804C192.332 124.914 191.973 127.922 191.255 130.827C190.537 133.698 189.495 136.398 188.127 138.928C186.794 141.457 185.154 143.781 183.206 145.9C181.292 147.985 179.121 149.78 176.694 151.284C174.302 152.788 171.687 153.967 168.85 154.821C166.013 155.642 163.005 156.052 159.827 156.052C156.75 156.052 153.811 155.659 151.008 154.873C148.24 154.086 145.642 152.993 143.215 151.591C140.789 150.156 138.584 148.447 136.602 146.464C134.653 144.448 132.979 142.226 131.577 139.799C130.21 137.338 129.133 134.707 128.347 131.904C127.595 129.101 127.219 126.179 127.219 123.137C127.219 120.163 127.578 117.258 128.296 114.421C129.014 111.55 130.039 108.85 131.372 106.32C132.739 103.791 134.38 101.467 136.294 99.3477C138.208 97.2285 140.344 95.3999 142.703 93.8618C145.095 92.3237 147.676 91.1274 150.444 90.2729C153.213 89.4185 156.135 88.9912 159.211 88.9912C164.167 88.9912 168.679 89.7603 172.747 91.2983C176.848 92.8364 180.334 95.041 183.206 97.9121C186.111 100.749 188.35 104.201 189.922 108.269C191.528 112.302 192.332 116.813 192.332 121.804ZM169.568 123.137C169.568 121.667 169.346 120.249 168.901 118.881C168.491 117.48 167.876 116.25 167.056 115.19C166.235 114.096 165.21 113.225 163.979 112.575C162.783 111.892 161.399 111.55 159.827 111.55C158.22 111.55 156.785 111.84 155.52 112.421C154.255 113.002 153.162 113.806 152.239 114.831C151.35 115.822 150.667 117.001 150.188 118.369C149.709 119.702 149.47 121.12 149.47 122.624C149.47 124.06 149.675 125.495 150.085 126.931C150.496 128.366 151.111 129.665 151.931 130.827C152.751 131.989 153.76 132.929 154.956 133.647C156.187 134.365 157.605 134.724 159.211 134.724C160.818 134.724 162.253 134.416 163.518 133.801C164.817 133.151 165.911 132.297 166.799 131.237C167.688 130.144 168.372 128.896 168.85 127.495C169.329 126.093 169.568 124.641 169.568 123.137ZM262.719 96.1016C262.719 98.8477 262.589 101.872 262.329 105.175C262.069 108.478 261.643 111.892 261.049 115.417C260.455 118.942 259.676 122.523 258.711 126.16C257.783 129.76 256.614 133.229 255.204 136.569C253.794 139.909 252.143 143.045 250.25 145.977C248.395 148.871 246.242 151.413 243.793 153.603C241.381 155.755 238.672 157.443 235.666 158.668C232.66 159.93 229.32 160.561 225.646 160.561C221.342 160.561 217.594 159.855 214.402 158.445C211.248 157.072 208.539 155.217 206.275 152.879C204.012 150.504 202.156 147.758 200.709 144.641C199.262 141.486 198.13 138.165 197.313 134.677C196.497 131.151 195.922 127.57 195.588 123.934C195.291 120.26 195.143 116.734 195.143 113.357C195.143 108.162 195.402 102.985 195.922 97.8271C196.441 92.6318 197.184 87.4551 198.148 82.2969L224.199 83.2988C223.197 89.125 222.325 94.9883 221.583 100.889C220.878 106.752 220.525 112.652 220.525 118.59C220.525 119.221 220.544 120.167 220.581 121.429C220.655 122.653 220.767 124.045 220.915 125.604C221.063 127.125 221.268 128.702 221.527 130.335C221.824 131.931 222.214 133.396 222.696 134.732C223.179 136.068 223.754 137.163 224.422 138.017C225.127 138.87 225.943 139.297 226.871 139.297C227.947 139.297 228.912 138.796 229.766 137.794C230.619 136.755 231.361 135.382 231.992 133.675C232.66 131.968 233.235 130.001 233.718 127.774C234.2 125.548 234.608 123.229 234.942 120.816C235.276 118.404 235.536 115.992 235.722 113.58C235.944 111.168 236.111 108.923 236.223 106.845C236.371 104.767 236.464 102.93 236.501 101.334C236.538 99.7383 236.557 98.5508 236.557 97.7715C236.557 94.877 236.501 92.001 236.39 89.1436C236.315 86.249 236.186 83.373 236 80.5156H262.051C262.496 85.6367 262.719 90.832 262.719 96.1016ZM333.229 87.9805L329.714 154.191L304.128 156.535L290.456 121.086L288.308 157.219H266.335L268.093 87.9805L292.507 86.8086L309.401 121.965L310.183 88.7617L333.229 87.9805ZM400.649 113.803C400.649 118.998 399.981 123.692 398.646 127.886C397.31 132.042 395.436 135.753 393.023 139.019C390.648 142.247 387.81 145.03 384.507 147.368C381.204 149.706 377.586 151.636 373.652 153.157C369.719 154.642 365.525 155.755 361.072 156.497C356.656 157.202 352.11 157.555 347.435 157.555C345.69 157.555 343.983 157.518 342.313 157.443C340.644 157.332 338.937 157.184 337.192 156.998L338.751 82.2969C342.833 80.998 347.026 80.0889 351.331 79.5693C355.673 79.0127 359.978 78.7344 364.245 78.7344C369.552 78.7344 374.432 79.5322 378.885 81.1279C383.338 82.7236 387.179 85.0244 390.407 88.0303C393.636 91.0361 396.141 94.71 397.922 99.0518C399.74 103.394 400.649 108.311 400.649 113.803ZM377.827 117.365C377.864 115.361 377.642 113.432 377.159 111.576C376.714 109.721 375.953 108.088 374.877 106.678C373.838 105.23 372.502 104.08 370.869 103.227C369.236 102.336 367.288 101.854 365.024 101.779L362.798 136.291C365.024 135.957 367.047 135.233 368.865 134.12C370.684 132.97 372.242 131.578 373.541 129.945C374.877 128.275 375.897 126.438 376.603 124.435C377.345 122.394 377.753 120.297 377.827 118.145V117.365ZM450.547 133.582C450.547 137.774 449.812 141.446 448.344 144.598C446.906 147.719 444.917 150.32 442.377 152.4C439.868 154.481 436.915 156.042 433.519 157.082C430.153 158.122 426.527 158.643 422.641 158.643C421.141 158.643 419.489 158.444 417.684 158.046C415.909 157.648 414.104 157.159 412.268 156.577C410.432 155.965 408.657 155.323 406.943 154.649C405.26 153.946 403.761 153.288 402.445 152.676L404.465 133.766C407.066 135.326 409.942 136.52 413.094 137.346C416.276 138.141 419.397 138.539 422.457 138.539C423.038 138.539 423.742 138.524 424.568 138.493C425.395 138.432 426.175 138.294 426.909 138.08C427.674 137.835 428.317 137.483 428.837 137.024C429.357 136.565 429.617 135.908 429.617 135.051C429.617 134.469 429.434 133.98 429.066 133.582C428.699 133.154 428.225 132.817 427.644 132.572C427.062 132.297 426.404 132.098 425.67 131.976C424.936 131.823 424.216 131.715 423.513 131.654C422.809 131.593 422.151 131.562 421.539 131.562C420.927 131.562 420.438 131.562 420.07 131.562C417.439 131.562 415.037 131.104 412.864 130.186C410.722 129.268 408.871 127.998 407.311 126.376C405.781 124.724 404.587 122.781 403.73 120.547C402.874 118.283 402.445 115.835 402.445 113.203C402.445 109.592 403.164 106.364 404.603 103.519C406.071 100.642 408.014 98.2096 410.432 96.2207C412.88 94.2012 415.679 92.6559 418.831 91.585C421.983 90.514 425.242 89.9785 428.607 89.9785C430.107 89.9785 431.652 90.0397 433.243 90.1621C434.834 90.2539 436.41 90.4375 437.971 90.7129C439.562 90.9883 441.107 91.3402 442.606 91.7686C444.106 92.1969 445.529 92.7324 446.875 93.375L445.131 112.01C443.05 111.306 440.862 110.725 438.567 110.266C436.303 109.776 434.085 109.531 431.912 109.531C431.514 109.531 430.994 109.547 430.352 109.577C429.74 109.577 429.082 109.623 428.378 109.715C427.705 109.776 427.016 109.883 426.312 110.036C425.609 110.189 424.981 110.403 424.431 110.679C423.88 110.924 423.436 111.26 423.1 111.688C422.763 112.117 422.61 112.622 422.641 113.203C422.671 113.876 422.916 114.427 423.375 114.855C423.865 115.253 424.477 115.575 425.211 115.819C425.976 116.034 426.802 116.187 427.689 116.278C428.607 116.37 429.51 116.431 430.397 116.462C431.285 116.462 432.111 116.462 432.876 116.462C433.641 116.431 434.268 116.447 434.758 116.508C437.206 116.661 439.409 117.181 441.367 118.068C443.326 118.956 444.978 120.134 446.324 121.603C447.701 123.071 448.742 124.831 449.445 126.881C450.18 128.9 450.547 131.134 450.547 133.582Z" fill="url(#paint1_linear_17_179)"/>
<path d="M175.641 204.185C177.591 204.185 178.566 204.965 178.566 206.525C178.566 208.042 177.591 208.8 175.641 208.8H174.601L175.056 224.595C175.099 225.332 174.904 225.938 174.471 226.415C174.037 226.848 173.431 227.065 172.651 227.065C171.827 227.065 171.199 226.87 170.766 226.48C170.332 226.047 170.094 225.462 170.051 224.725L169.596 208.67L148.146 208.345L146.781 225.57C146.651 226.783 145.827 227.39 144.311 227.39C142.491 227.39 141.646 226.653 141.776 225.18L143.141 208.215H141.906C141.169 208.215 140.541 208.02 140.021 207.63C139.501 207.24 139.241 206.677 139.241 205.94C139.241 205.203 139.501 204.64 140.021 204.25C140.541 203.86 141.212 203.665 142.036 203.665H143.531L145.221 182.345C145.264 181.565 145.524 181.002 146.001 180.655C146.521 180.265 147.127 180.07 147.821 180.07C148.687 180.07 149.316 180.33 149.706 180.85C150.096 181.327 150.269 181.933 150.226 182.67L148.536 203.795L169.466 204.12L168.816 182.54C168.816 181.76 169.032 181.153 169.466 180.72C169.899 180.287 170.506 180.07 171.286 180.07C172.066 180.07 172.672 180.287 173.106 180.72C173.582 181.153 173.821 181.695 173.821 182.345L174.471 204.185H175.641ZM207.094 226.48C203.064 226.48 199.402 225.7 196.109 224.14C192.815 222.537 190.194 220.11 188.244 216.86C186.294 213.567 185.319 209.515 185.319 204.705C185.319 200.155 186.207 196.082 187.984 192.485C189.76 188.888 192.274 186.093 195.524 184.1C198.774 182.063 202.522 181.045 206.769 181.045C211.059 181.045 214.959 182.085 218.469 184.165C221.979 186.202 224.73 189.04 226.724 192.68C228.76 196.32 229.779 200.437 229.779 205.03C229.779 209.667 228.739 213.61 226.659 216.86C224.579 220.067 221.805 222.472 218.339 224.075C214.915 225.678 211.167 226.48 207.094 226.48ZM207.419 221.865C210.322 221.865 213.095 221.28 215.739 220.11C218.382 218.897 220.549 217.012 222.239 214.455C223.929 211.855 224.774 208.627 224.774 204.77C224.774 201.13 224.015 197.858 222.499 194.955C220.982 192.052 218.859 189.777 216.129 188.13C213.442 186.483 210.409 185.66 207.029 185.66C203.735 185.66 200.81 186.462 198.254 188.065C195.74 189.625 193.769 191.813 192.339 194.63C190.952 197.447 190.259 200.697 190.259 204.38C190.259 208.497 191.104 211.877 192.794 214.52C194.484 217.12 196.629 219.005 199.229 220.175C201.829 221.302 204.559 221.865 207.419 221.865ZM271.638 199.31C271.638 201.087 271.66 202.473 271.703 203.47C271.79 210.837 271.833 218.008 271.833 224.985C271.833 226.415 271.01 227.13 269.363 227.13C268.496 227.13 267.846 226.935 267.413 226.545C267.023 226.112 266.828 225.44 266.828 224.53V219.46C265.615 221.627 263.795 223.403 261.368 224.79C258.941 226.177 256.211 226.87 253.178 226.87C247.978 226.87 244.143 225.267 241.673 222.06C239.203 218.853 237.968 214.845 237.968 210.035C237.968 207.695 237.99 205.182 238.033 202.495C238.076 199.808 238.12 197.75 238.163 196.32C238.25 193.417 238.336 189.148 238.423 183.515C238.423 182.085 239.225 181.37 240.828 181.37C241.651 181.37 242.28 181.565 242.713 181.955C243.146 182.345 243.363 182.887 243.363 183.58C243.363 184.88 243.298 189.43 243.168 197.23C243.081 202.777 243.038 207.023 243.038 209.97C243.038 214 243.97 217.055 245.833 219.135C247.74 221.215 250.47 222.255 254.023 222.255C256.276 222.255 258.378 221.562 260.328 220.175C262.278 218.788 263.816 217.033 264.943 214.91C266.113 212.787 266.698 210.707 266.698 208.67C266.698 203.297 266.633 194.825 266.503 183.255C266.503 181.738 267.283 180.98 268.843 180.98C269.666 180.98 270.295 181.197 270.728 181.63C271.205 182.063 271.443 182.648 271.443 183.385C271.443 188.065 271.508 193.373 271.638 199.31ZM295.623 226.935C292.459 226.935 289.751 226.307 287.498 225.05C285.244 223.75 283.533 222.038 282.363 219.915C281.236 217.748 280.673 215.408 280.673 212.895C280.673 212.115 280.846 211.508 281.193 211.075C281.583 210.642 282.233 210.425 283.143 210.425C284.833 210.425 285.678 211.14 285.678 212.57C285.678 214.607 286.133 216.362 287.043 217.835C287.953 219.308 289.166 220.435 290.683 221.215C292.199 221.995 293.846 222.385 295.623 222.385C298.223 222.385 300.346 221.778 301.993 220.565C303.683 219.352 304.528 217.597 304.528 215.3C304.528 213.61 304.073 212.223 303.163 211.14C302.253 210.013 301.061 209.125 299.588 208.475C298.114 207.782 296.229 207.088 293.933 206.395C291.463 205.702 289.361 204.987 287.628 204.25C285.894 203.47 284.269 202.235 282.753 200.545C281.279 198.855 280.543 196.623 280.543 193.85C280.543 191.38 281.193 189.17 282.493 187.22C283.793 185.27 285.526 183.753 287.693 182.67C289.859 181.587 292.243 181.045 294.843 181.045C297.529 181.045 299.956 181.63 302.123 182.8C304.333 183.97 306.044 185.508 307.258 187.415C308.514 189.322 309.143 191.337 309.143 193.46C309.143 194.413 308.948 195.085 308.558 195.475C308.211 195.865 307.604 196.06 306.738 196.06C305.741 196.06 305.069 195.865 304.723 195.475C304.376 195.085 304.203 194.543 304.203 193.85C304.203 191.553 303.336 189.603 301.603 188C299.869 186.397 297.616 185.595 294.843 185.595C292.069 185.595 289.816 186.397 288.083 188C286.393 189.56 285.548 191.532 285.548 193.915C285.548 195.518 286.003 196.84 286.913 197.88C287.866 198.877 289.036 199.657 290.423 200.22C291.853 200.783 293.868 201.455 296.468 202.235C298.678 202.928 300.671 203.708 302.448 204.575C304.268 205.398 305.893 206.698 307.323 208.475C308.753 210.252 309.468 212.505 309.468 215.235C309.468 217.575 308.861 219.633 307.648 221.41C306.478 223.187 304.831 224.552 302.708 225.505C300.628 226.458 298.266 226.935 295.623 226.935ZM344.924 221.15C345.834 221.063 346.505 221.215 346.939 221.605C347.415 221.995 347.654 222.602 347.654 223.425C347.654 224.162 347.48 224.703 347.134 225.05C346.787 225.353 346.31 225.57 345.704 225.7C344.014 226.047 340.742 226.22 335.889 226.22H333.809C330.905 226.22 328.305 226.177 326.009 226.09C323.755 226.003 321.199 225.787 318.339 225.44C317.169 225.31 316.584 224.595 316.584 223.295C316.584 222.645 316.735 222.103 317.039 221.67C317.342 221.237 317.732 221.02 318.209 221.02C318.642 221.02 319.01 221.042 319.314 221.085C320.007 216.752 320.375 211.465 320.419 205.225H319.639C318.902 205.225 318.339 205.03 317.949 204.64C317.559 204.25 317.364 203.687 317.364 202.95C317.364 201.433 318.035 200.675 319.379 200.675H320.419V193.46C320.419 190.34 320.397 188 320.354 186.44C319.14 186.223 318.534 185.53 318.534 184.36C318.534 183.45 318.75 182.865 319.184 182.605C319.66 182.302 320.31 182.107 321.134 182.02C323.56 181.76 327.287 181.63 332.314 181.63C338.597 181.63 343.104 181.825 345.834 182.215C346.57 182.345 347.112 182.562 347.459 182.865C347.849 183.125 348.044 183.623 348.044 184.36C348.044 185.097 347.849 185.682 347.459 186.115C347.069 186.548 346.57 186.722 345.964 186.635C341.63 186.288 337.644 186.115 334.004 186.115C331.187 186.115 328.262 186.202 325.229 186.375C325.402 192.442 325.489 197.23 325.489 200.74L329.844 200.805C333.31 200.892 335.52 200.935 336.474 200.935C338.814 201.022 340.287 201.065 340.894 201.065C342.107 201.065 342.714 201.78 342.714 203.21C342.714 203.947 342.562 204.532 342.259 204.965C341.955 205.398 341.5 205.615 340.894 205.615L337.449 205.55C335.499 205.42 332.92 205.355 329.714 205.355C327.764 205.355 326.334 205.333 325.424 205.29C325.38 210.23 325.012 215.603 324.319 221.41C327.005 221.627 330.364 221.735 334.394 221.735C336.734 221.735 338.575 221.692 339.919 221.605C341.305 221.518 342.974 221.367 344.924 221.15Z" fill="url(#paint2_linear_17_179)"/>
<defs>
<linearGradient id="paint0_linear_17_179" x1="243.5" y1="0" x2="243.5" y2="116" gradientUnits="userSpaceOnUse">
<stop stop-color="#F3A40A"/>
<stop offset="1" stop-color="#BE2424"/>
</linearGradient>
<linearGradient id="paint1_linear_17_179" x1="251.5" y1="74" x2="251.5" y2="159" gradientUnits="userSpaceOnUse">
<stop stop-color="#F3A40A"/>
<stop offset="1" stop-color="#BE2424"/>
</linearGradient>
<linearGradient id="paint2_linear_17_179" x1="243" y1="158" x2="243" y2="274" gradientUnits="userSpaceOnUse">
<stop stop-color="#F3A40A"/>
<stop offset="1" stop-color="#BE2424"/>
</linearGradient>
</defs>
</svg>
