<svg width="520" height="243" viewBox="0 0 520 243" fill="none" xmlns="http://www.w3.org/2000/svg">
<path d="M30.9 35.45C32.4 35.45 33.15 36.05 33.15 37.25C33.15 38.4167 32.4 39 30.9 39H30.1L30.45 51.15C30.4833 51.7167 30.3333 52.1833 30 52.55C29.6667 52.8833 29.2 53.05 28.6 53.05C27.9667 53.05 27.4833 52.9 27.15 52.6C26.8167 52.2667 26.6333 51.8167 26.6 51.25L26.25 38.9L9.75 38.65L8.7 51.9C8.6 52.8333 7.96667 53.3 6.8 53.3C5.4 53.3 4.75 52.7333 4.85 51.6L5.9 38.55H4.95C4.38333 38.55 3.9 38.4 3.5 38.1C3.1 37.8 2.9 37.3667 2.9 36.8C2.9 36.2333 3.1 35.8 3.5 35.5C3.9 35.2 4.41667 35.05 5.05 35.05H6.2L7.5 18.65C7.53333 18.05 7.73333 17.6167 8.1 17.35C8.5 17.05 8.96667 16.9 9.5 16.9C10.1667 16.9 10.65 17.1 10.95 17.5C11.25 17.8667 11.3833 18.3333 11.35 18.9L10.05 35.15L26.15 35.4L25.65 18.8C25.65 18.2 25.8167 17.7333 26.15 17.4C26.4833 17.0667 26.95 16.9 27.55 16.9C28.15 16.9 28.6167 17.0667 28.95 17.4C29.3167 17.7333 29.5 18.15 29.5 18.65L30 35.45H30.9ZM66.0945 51.3C66.1945 51.6 66.2445 51.8 66.2445 51.9C66.2445 52.4333 66.0279 52.8333 65.5945 53.1C65.1945 53.3667 64.6945 53.5 64.0945 53.5C63.6612 53.5 63.2779 53.4 62.9445 53.2C62.6112 53 62.3945 52.7333 62.2945 52.4L59.9945 44.65L45.7445 44.55L43.2945 52.2C43.0279 53.0333 42.4112 53.45 41.4445 53.45C40.8779 53.45 40.3779 53.3 39.9445 53C39.5445 52.7 39.3445 52.3167 39.3445 51.85C39.3445 51.7833 39.3779 51.5833 39.4445 51.25C42.8112 41.3833 45.6612 32.8 47.9945 25.5C48.5279 23.9 48.7945 23.1 48.7945 23.1C49.4612 21.0667 50.1279 19.6167 50.7945 18.75C51.4612 17.8833 52.2779 17.45 53.2445 17.45C54.1779 17.45 54.9445 17.8333 55.5445 18.6C56.1445 19.3667 56.7445 20.7 57.3445 22.6C58.6112 26.5333 60.1945 31.6333 62.0945 37.9L62.9445 40.75H64.3445C64.8779 40.75 65.3112 40.9333 65.6445 41.3C66.0112 41.6667 66.1945 42.1333 66.1945 42.7C66.1945 44 65.6779 44.65 64.6445 44.65H64.0945C64.8612 47.2833 65.5279 49.5 66.0945 51.3ZM58.8945 40.7L57.3945 35.55C56.2279 31.5167 55.3279 28.4333 54.6945 26.3C54.2945 24.9667 53.9779 24 53.7445 23.4C53.5112 22.8 53.2945 22.5 53.0945 22.5C52.9279 22.5 52.7445 22.7667 52.5445 23.3C52.3445 23.8 52.0112 24.7833 51.5445 26.25L49.0945 33.95L47.0445 40.55L58.8945 40.7ZM85.2137 17.75C87.7137 17.75 90.0303 18.2333 92.1637 19.2C94.3303 20.1333 96.0637 21.4833 97.3637 23.25C98.6637 24.9833 99.3137 27 99.3137 29.3C99.3137 31.4 98.747 33.2667 97.6137 34.9C96.4803 36.5 94.9137 37.7333 92.9137 38.6C90.947 39.4667 88.697 39.9 86.1637 39.9C83.297 39.9 80.8803 39.3833 78.9137 38.35L78.7637 51.45C78.7637 52.05 78.5803 52.5167 78.2137 52.85C77.8803 53.1833 77.4137 53.35 76.8137 53.35C76.1803 53.35 75.6803 53.1833 75.3137 52.85C74.9803 52.5167 74.8137 52.0667 74.8137 51.5C74.8137 49.9667 74.847 47.7 74.9137 44.7C74.9803 41.5 75.0137 38.9667 75.0137 37.1C75.0137 33.6667 74.947 29.95 74.8137 25.95C74.7803 25.7167 74.7637 25.3667 74.7637 24.9L74.6137 25C74.2803 25.1667 73.997 25.25 73.7637 25.25C73.297 25.25 72.9137 25.0333 72.6137 24.6C72.347 24.1333 72.2137 23.6 72.2137 23C72.2137 22.6 72.347 22.2833 72.6137 22.05C72.8803 21.7833 73.2803 21.5167 73.8137 21.25L74.6637 20.75V19.95C74.6637 19.1833 74.8303 18.6167 75.1637 18.25C75.497 17.8833 76.0137 17.7 76.7137 17.7C77.3137 17.7 77.7803 17.8 78.1137 18C78.447 18.2 78.6137 18.4667 78.6137 18.8V18.9C80.747 18.1333 82.947 17.75 85.2137 17.75ZM85.4637 36.6C87.3637 36.6 89.0303 36.2833 90.4637 35.65C91.9303 35.0167 93.0637 34.1333 93.8637 33C94.6637 31.8667 95.0637 30.5833 95.0637 29.15C95.0637 27.6167 94.6137 26.25 93.7137 25.05C92.8137 23.85 91.6137 22.9167 90.1137 22.25C88.647 21.5833 87.0303 21.25 85.2637 21.25C83.4303 21.25 81.2303 21.8333 78.6637 23C78.7303 25.3333 78.7637 26.8667 78.7637 27.6C78.7637 28.3333 78.797 29.5 78.8637 31.1C78.9303 33.0667 78.947 34.3667 78.9137 35C80.7803 36.0667 82.9637 36.6 85.4637 36.6ZM115.78 17.75C118.28 17.75 120.597 18.2333 122.73 19.2C124.897 20.1333 126.63 21.4833 127.93 23.25C129.23 24.9833 129.88 27 129.88 29.3C129.88 31.4 129.313 33.2667 128.18 34.9C127.047 36.5 125.48 37.7333 123.48 38.6C121.513 39.4667 119.263 39.9 116.73 39.9C113.863 39.9 111.447 39.3833 109.48 38.35L109.33 51.45C109.33 52.05 109.147 52.5167 108.78 52.85C108.447 53.1833 107.98 53.35 107.38 53.35C106.747 53.35 106.247 53.1833 105.88 52.85C105.547 52.5167 105.38 52.0667 105.38 51.5C105.38 49.9667 105.413 47.7 105.48 44.7C105.547 41.5 105.58 38.9667 105.58 37.1C105.58 33.6667 105.513 29.95 105.38 25.95C105.347 25.7167 105.33 25.3667 105.33 24.9L105.18 25C104.847 25.1667 104.563 25.25 104.33 25.25C103.863 25.25 103.48 25.0333 103.18 24.6C102.913 24.1333 102.78 23.6 102.78 23C102.78 22.6 102.913 22.2833 103.18 22.05C103.447 21.7833 103.847 21.5167 104.38 21.25L105.23 20.75V19.95C105.23 19.1833 105.397 18.6167 105.73 18.25C106.063 17.8833 106.58 17.7 107.28 17.7C107.88 17.7 108.347 17.8 108.68 18C109.013 18.2 109.18 18.4667 109.18 18.8V18.9C111.313 18.1333 113.513 17.75 115.78 17.75ZM116.03 36.6C117.93 36.6 119.597 36.2833 121.03 35.65C122.497 35.0167 123.63 34.1333 124.43 33C125.23 31.8667 125.63 30.5833 125.63 29.15C125.63 27.6167 125.18 26.25 124.28 25.05C123.38 23.85 122.18 22.9167 120.68 22.25C119.213 21.5833 117.597 21.25 115.83 21.25C113.997 21.25 111.797 21.8333 109.23 23C109.297 25.3333 109.33 26.8667 109.33 27.6C109.33 28.3333 109.363 29.5 109.43 31.1C109.497 33.0667 109.513 34.3667 109.48 35C111.347 36.0667 113.53 36.6 116.03 36.6ZM147.896 52.85C146.596 52.85 145.946 52.2167 145.946 50.95L145.796 36.6C144.163 36.0333 142.146 33.85 139.746 30.05C138.713 28.4167 137.863 26.9167 137.196 25.55C136.563 24.1833 135.83 22.4167 134.996 20.25C134.93 20.05 134.896 19.85 134.896 19.65C134.896 19.2167 135.096 18.8333 135.496 18.5C135.93 18.1667 136.413 18 136.946 18C137.78 18 138.446 18.5833 138.946 19.75C139.913 22.05 140.613 23.6667 141.046 24.6C141.513 25.5 142.23 26.75 143.196 28.35C144.13 29.85 144.98 31.0833 145.746 32.05C146.513 33.0167 147.196 33.5 147.796 33.5C148.83 33.5 150.38 31.7667 152.446 28.3C153.213 27 153.913 25.7 154.546 24.4C155.18 23.1 155.913 21.4833 156.746 19.55C156.98 18.9833 157.23 18.6 157.496 18.4C157.763 18.2 158.096 18.1 158.496 18.1C159.096 18.1 159.596 18.2833 159.996 18.65C160.43 18.9833 160.646 19.4 160.646 19.9C160.646 20.1333 160.596 20.35 160.496 20.55C159.563 22.8833 158.763 24.75 158.096 26.15C157.43 27.55 156.696 28.8833 155.896 30.15C154.73 32.0167 153.58 33.5 152.446 34.6C151.313 35.7 150.38 36.3667 149.646 36.6L149.796 50.85C149.796 52.1833 149.163 52.85 147.896 52.85Z" fill="url(#paint0_linear_16_178)"/>
<path d="M96.9346 145L67.8818 146.395L67.6494 119.55H54.2852L53.4717 145H27.4404L29.6484 63.3037L57.3066 64.582L55.5635 106.302H68.4629L68.5791 61.4443L95.0752 62.1416L96.9346 145ZM165.475 108.804C165.475 111.914 165.116 114.922 164.398 117.827C163.681 120.698 162.638 123.398 161.271 125.928C159.938 128.457 158.297 130.781 156.349 132.9C154.435 134.985 152.265 136.78 149.838 138.284C147.445 139.788 144.831 140.967 141.994 141.821C139.157 142.642 136.149 143.052 132.97 143.052C129.894 143.052 126.955 142.659 124.152 141.873C121.383 141.086 118.786 139.993 116.359 138.591C113.932 137.156 111.728 135.447 109.745 133.464C107.797 131.448 106.122 129.226 104.721 126.799C103.354 124.338 102.277 121.707 101.491 118.904C100.739 116.101 100.363 113.179 100.363 110.137C100.363 107.163 100.722 104.258 101.439 101.421C102.157 98.5498 103.183 95.8496 104.516 93.3203C105.883 90.791 107.523 88.4668 109.438 86.3477C111.352 84.2285 113.488 82.3999 115.846 80.8618C118.239 79.3237 120.819 78.1274 123.588 77.2729C126.356 76.4185 129.279 75.9912 132.355 75.9912C137.311 75.9912 141.823 76.7603 145.89 78.2983C149.992 79.8364 153.478 82.041 156.349 84.9121C159.254 87.749 161.493 91.2012 163.065 95.2686C164.672 99.3018 165.475 103.813 165.475 108.804ZM142.711 110.137C142.711 108.667 142.489 107.249 142.045 105.881C141.635 104.48 141.02 103.25 140.199 102.19C139.379 101.096 138.354 100.225 137.123 99.5752C135.927 98.8916 134.542 98.5498 132.97 98.5498C131.364 98.5498 129.928 98.8403 128.664 99.4214C127.399 100.002 126.305 100.806 125.382 101.831C124.494 102.822 123.81 104.001 123.332 105.369C122.853 106.702 122.614 108.12 122.614 109.624C122.614 111.06 122.819 112.495 123.229 113.931C123.639 115.366 124.254 116.665 125.075 117.827C125.895 118.989 126.903 119.929 128.1 120.647C129.33 121.365 130.749 121.724 132.355 121.724C133.961 121.724 135.397 121.416 136.662 120.801C137.96 120.151 139.054 119.297 139.943 118.237C140.832 117.144 141.515 115.896 141.994 114.495C142.472 113.093 142.711 111.641 142.711 110.137ZM235.862 83.1016C235.862 85.8477 235.732 88.8721 235.473 92.1748C235.213 95.4775 234.786 98.8916 234.192 102.417C233.599 105.942 232.819 109.523 231.854 113.16C230.927 116.76 229.758 120.229 228.348 123.569C226.938 126.909 225.286 130.045 223.394 132.977C221.538 135.871 219.386 138.413 216.937 140.603C214.524 142.755 211.815 144.443 208.81 145.668C205.804 146.93 202.464 147.561 198.79 147.561C194.485 147.561 190.737 146.855 187.546 145.445C184.392 144.072 181.683 142.217 179.419 139.879C177.155 137.504 175.3 134.758 173.853 131.641C172.405 128.486 171.273 125.165 170.457 121.677C169.641 118.151 169.065 114.57 168.731 110.934C168.435 107.26 168.286 103.734 168.286 100.357C168.286 95.1621 168.546 89.9854 169.065 84.8271C169.585 79.6318 170.327 74.4551 171.292 69.2969L197.343 70.2988C196.341 76.125 195.469 81.9883 194.727 87.8887C194.021 93.752 193.669 99.6523 193.669 105.59C193.669 106.221 193.688 107.167 193.725 108.429C193.799 109.653 193.91 111.045 194.059 112.604C194.207 114.125 194.411 115.702 194.671 117.335C194.968 118.931 195.357 120.396 195.84 121.732C196.322 123.068 196.897 124.163 197.565 125.017C198.271 125.87 199.087 126.297 200.015 126.297C201.091 126.297 202.056 125.796 202.909 124.794C203.763 123.755 204.505 122.382 205.136 120.675C205.804 118.968 206.379 117.001 206.861 114.774C207.344 112.548 207.752 110.229 208.086 107.816C208.42 105.404 208.68 102.992 208.865 100.58C209.088 98.168 209.255 95.9229 209.366 93.8447C209.515 91.7666 209.607 89.9297 209.645 88.334C209.682 86.7383 209.7 85.5508 209.7 84.7715C209.7 81.877 209.645 79.001 209.533 76.1436C209.459 73.249 209.329 70.373 209.144 67.5156H235.194C235.64 72.6367 235.862 77.832 235.862 83.1016ZM306.373 74.9805L302.857 141.191L277.271 143.535L263.6 108.086L261.451 144.219H239.479L241.236 74.9805L265.65 73.8086L282.545 108.965L283.326 75.7617L306.373 74.9805ZM373.793 100.803C373.793 105.998 373.125 110.692 371.789 114.886C370.453 119.042 368.579 122.753 366.167 126.019C363.792 129.247 360.953 132.03 357.65 134.368C354.348 136.706 350.729 138.636 346.796 140.157C342.862 141.642 338.669 142.755 334.216 143.497C329.8 144.202 325.254 144.555 320.578 144.555C318.834 144.555 317.127 144.518 315.457 144.443C313.787 144.332 312.08 144.184 310.336 143.998L311.895 69.2969C315.977 67.998 320.17 67.0889 324.475 66.5693C328.816 66.0127 333.121 65.7344 337.389 65.7344C342.695 65.7344 347.575 66.5322 352.028 68.1279C356.481 69.7236 360.322 72.0244 363.551 75.0303C366.779 78.0361 369.284 81.71 371.065 86.0518C372.884 90.3936 373.793 95.3105 373.793 100.803ZM350.971 104.365C351.008 102.361 350.785 100.432 350.303 98.5762C349.857 96.7207 349.097 95.0879 348.021 93.6777C346.981 92.2305 345.646 91.0801 344.013 90.2266C342.38 89.3359 340.432 88.8535 338.168 88.7793L335.941 123.291C338.168 122.957 340.19 122.233 342.009 121.12C343.827 119.97 345.386 118.578 346.685 116.945C348.021 115.275 349.041 113.438 349.746 111.435C350.488 109.394 350.896 107.297 350.971 105.145V104.365ZM423.69 120.582C423.69 124.774 422.956 128.446 421.487 131.598C420.049 134.719 418.06 137.32 415.521 139.4C413.011 141.481 410.059 143.042 406.662 144.082C403.296 145.122 399.67 145.643 395.784 145.643C394.285 145.643 392.632 145.444 390.827 145.046C389.052 144.648 387.247 144.159 385.411 143.577C383.575 142.965 381.8 142.323 380.087 141.649C378.404 140.946 376.905 140.288 375.589 139.676L377.608 120.766C380.209 122.326 383.086 123.52 386.237 124.346C389.42 125.141 392.541 125.539 395.601 125.539C396.182 125.539 396.886 125.524 397.712 125.493C398.538 125.432 399.318 125.294 400.053 125.08C400.818 124.835 401.46 124.483 401.98 124.024C402.501 123.565 402.761 122.908 402.761 122.051C402.761 121.469 402.577 120.98 402.21 120.582C401.843 120.154 401.368 119.817 400.787 119.572C400.206 119.297 399.548 119.098 398.813 118.976C398.079 118.823 397.36 118.715 396.656 118.654C395.952 118.593 395.295 118.562 394.683 118.562C394.071 118.562 393.581 118.562 393.214 118.562C390.582 118.562 388.18 118.104 386.008 117.186C383.866 116.268 382.015 114.998 380.454 113.376C378.924 111.724 377.731 109.781 376.874 107.547C376.017 105.283 375.589 102.835 375.589 100.203C375.589 96.5924 376.308 93.3643 377.746 90.5186C379.215 87.6423 381.158 85.2096 383.575 83.2207C386.023 81.2012 388.823 79.6559 391.975 78.585C395.126 77.514 398.385 76.9785 401.751 76.9785C403.25 76.9785 404.796 77.0397 406.387 77.1621C407.978 77.2539 409.554 77.4375 411.114 77.7129C412.705 77.9883 414.251 78.3402 415.75 78.7686C417.249 79.1969 418.672 79.7324 420.019 80.375L418.274 99.0098C416.194 98.306 414.006 97.7246 411.711 97.2656C409.447 96.776 407.228 96.5312 405.056 96.5312C404.658 96.5312 404.138 96.5465 403.495 96.5771C402.883 96.5771 402.225 96.623 401.521 96.7148C400.848 96.776 400.16 96.8831 399.456 97.0361C398.752 97.1891 398.125 97.4033 397.574 97.6787C397.023 97.9235 396.58 98.2601 396.243 98.6885C395.907 99.1169 395.754 99.6217 395.784 100.203C395.815 100.876 396.06 101.427 396.519 101.855C397.008 102.253 397.62 102.575 398.354 102.819C399.119 103.034 399.946 103.187 400.833 103.278C401.751 103.37 402.654 103.431 403.541 103.462C404.428 103.462 405.255 103.462 406.02 103.462C406.785 103.431 407.412 103.447 407.901 103.508C410.349 103.661 412.552 104.181 414.511 105.068C416.469 105.956 418.121 107.134 419.468 108.603C420.845 110.071 421.885 111.831 422.589 113.881C423.323 115.9 423.69 118.134 423.69 120.582Z" fill="url(#paint1_linear_16_178)"/>
<path d="M143.17 181.185C145.12 181.185 146.095 181.965 146.095 183.525C146.095 185.042 145.12 185.8 143.17 185.8H142.13L142.585 201.595C142.628 202.332 142.433 202.938 142 203.415C141.567 203.848 140.96 204.065 140.18 204.065C139.357 204.065 138.728 203.87 138.295 203.48C137.862 203.047 137.623 202.462 137.58 201.725L137.125 185.67L115.675 185.345L114.31 202.57C114.18 203.783 113.357 204.39 111.84 204.39C110.02 204.39 109.175 203.653 109.305 202.18L110.67 185.215H109.435C108.698 185.215 108.07 185.02 107.55 184.63C107.03 184.24 106.77 183.677 106.77 182.94C106.77 182.203 107.03 181.64 107.55 181.25C108.07 180.86 108.742 180.665 109.565 180.665H111.06L112.75 159.345C112.793 158.565 113.053 158.002 113.53 157.655C114.05 157.265 114.657 157.07 115.35 157.07C116.217 157.07 116.845 157.33 117.235 157.85C117.625 158.327 117.798 158.933 117.755 159.67L116.065 180.795L136.995 181.12L136.345 159.54C136.345 158.76 136.562 158.153 136.995 157.72C137.428 157.287 138.035 157.07 138.815 157.07C139.595 157.07 140.202 157.287 140.635 157.72C141.112 158.153 141.35 158.695 141.35 159.345L142 181.185H143.17ZM174.623 203.48C170.593 203.48 166.931 202.7 163.638 201.14C160.345 199.537 157.723 197.11 155.773 193.86C153.823 190.567 152.848 186.515 152.848 181.705C152.848 177.155 153.736 173.082 155.513 169.485C157.29 165.888 159.803 163.093 163.053 161.1C166.303 159.063 170.051 158.045 174.298 158.045C178.588 158.045 182.488 159.085 185.998 161.165C189.508 163.202 192.26 166.04 194.253 169.68C196.29 173.32 197.308 177.437 197.308 182.03C197.308 186.667 196.268 190.61 194.188 193.86C192.108 197.067 189.335 199.472 185.868 201.075C182.445 202.678 178.696 203.48 174.623 203.48ZM174.948 198.865C177.851 198.865 180.625 198.28 183.268 197.11C185.911 195.897 188.078 194.012 189.768 191.455C191.458 188.855 192.303 185.627 192.303 181.77C192.303 178.13 191.545 174.858 190.028 171.955C188.511 169.052 186.388 166.777 183.658 165.13C180.971 163.483 177.938 162.66 174.558 162.66C171.265 162.66 168.34 163.462 165.783 165.065C163.27 166.625 161.298 168.813 159.868 171.63C158.481 174.447 157.788 177.697 157.788 181.38C157.788 185.497 158.633 188.877 160.323 191.52C162.013 194.12 164.158 196.005 166.758 197.175C169.358 198.302 172.088 198.865 174.948 198.865ZM239.167 176.31C239.167 178.087 239.189 179.473 239.232 180.47C239.319 187.837 239.362 195.008 239.362 201.985C239.362 203.415 238.539 204.13 236.892 204.13C236.026 204.13 235.376 203.935 234.942 203.545C234.552 203.112 234.357 202.44 234.357 201.53V196.46C233.144 198.627 231.324 200.403 228.897 201.79C226.471 203.177 223.741 203.87 220.707 203.87C215.507 203.87 211.672 202.267 209.202 199.06C206.732 195.853 205.497 191.845 205.497 187.035C205.497 184.695 205.519 182.182 205.562 179.495C205.606 176.808 205.649 174.75 205.692 173.32C205.779 170.417 205.866 166.148 205.952 160.515C205.952 159.085 206.754 158.37 208.357 158.37C209.181 158.37 209.809 158.565 210.242 158.955C210.676 159.345 210.892 159.887 210.892 160.58C210.892 161.88 210.827 166.43 210.697 174.23C210.611 179.777 210.567 184.023 210.567 186.97C210.567 191 211.499 194.055 213.362 196.135C215.269 198.215 217.999 199.255 221.552 199.255C223.806 199.255 225.907 198.562 227.857 197.175C229.807 195.788 231.346 194.033 232.472 191.91C233.642 189.787 234.227 187.707 234.227 185.67C234.227 180.297 234.162 171.825 234.032 160.255C234.032 158.738 234.812 157.98 236.372 157.98C237.196 157.98 237.824 158.197 238.257 158.63C238.734 159.063 238.972 159.648 238.972 160.385C238.972 165.065 239.037 170.373 239.167 176.31ZM263.152 203.935C259.989 203.935 257.28 203.307 255.027 202.05C252.774 200.75 251.062 199.038 249.892 196.915C248.765 194.748 248.202 192.408 248.202 189.895C248.202 189.115 248.375 188.508 248.722 188.075C249.112 187.642 249.762 187.425 250.672 187.425C252.362 187.425 253.207 188.14 253.207 189.57C253.207 191.607 253.662 193.362 254.572 194.835C255.482 196.308 256.695 197.435 258.212 198.215C259.729 198.995 261.375 199.385 263.152 199.385C265.752 199.385 267.875 198.778 269.522 197.565C271.212 196.352 272.057 194.597 272.057 192.3C272.057 190.61 271.602 189.223 270.692 188.14C269.782 187.013 268.59 186.125 267.117 185.475C265.644 184.782 263.759 184.088 261.462 183.395C258.992 182.702 256.89 181.987 255.157 181.25C253.424 180.47 251.799 179.235 250.282 177.545C248.809 175.855 248.072 173.623 248.072 170.85C248.072 168.38 248.722 166.17 250.022 164.22C251.322 162.27 253.055 160.753 255.222 159.67C257.389 158.587 259.772 158.045 262.372 158.045C265.059 158.045 267.485 158.63 269.652 159.8C271.862 160.97 273.574 162.508 274.787 164.415C276.044 166.322 276.672 168.337 276.672 170.46C276.672 171.413 276.477 172.085 276.087 172.475C275.74 172.865 275.134 173.06 274.267 173.06C273.27 173.06 272.599 172.865 272.252 172.475C271.905 172.085 271.732 171.543 271.732 170.85C271.732 168.553 270.865 166.603 269.132 165C267.399 163.397 265.145 162.595 262.372 162.595C259.599 162.595 257.345 163.397 255.612 165C253.922 166.56 253.077 168.532 253.077 170.915C253.077 172.518 253.532 173.84 254.442 174.88C255.395 175.877 256.565 176.657 257.952 177.22C259.382 177.783 261.397 178.455 263.997 179.235C266.207 179.928 268.2 180.708 269.977 181.575C271.797 182.398 273.422 183.698 274.852 185.475C276.282 187.252 276.997 189.505 276.997 192.235C276.997 194.575 276.39 196.633 275.177 198.41C274.007 200.187 272.36 201.552 270.237 202.505C268.157 203.458 265.795 203.935 263.152 203.935ZM312.453 198.15C313.363 198.063 314.035 198.215 314.468 198.605C314.945 198.995 315.183 199.602 315.183 200.425C315.183 201.162 315.01 201.703 314.663 202.05C314.316 202.353 313.84 202.57 313.233 202.7C311.543 203.047 308.271 203.22 303.418 203.22H301.338C298.435 203.22 295.835 203.177 293.538 203.09C291.285 203.003 288.728 202.787 285.868 202.44C284.698 202.31 284.113 201.595 284.113 200.295C284.113 199.645 284.265 199.103 284.568 198.67C284.871 198.237 285.261 198.02 285.738 198.02C286.171 198.02 286.54 198.042 286.843 198.085C287.536 193.752 287.905 188.465 287.948 182.225H287.168C286.431 182.225 285.868 182.03 285.478 181.64C285.088 181.25 284.893 180.687 284.893 179.95C284.893 178.433 285.565 177.675 286.908 177.675H287.948V170.46C287.948 167.34 287.926 165 287.883 163.44C286.67 163.223 286.063 162.53 286.063 161.36C286.063 160.45 286.28 159.865 286.713 159.605C287.19 159.302 287.84 159.107 288.663 159.02C291.09 158.76 294.816 158.63 299.843 158.63C306.126 158.63 310.633 158.825 313.363 159.215C314.1 159.345 314.641 159.562 314.988 159.865C315.378 160.125 315.573 160.623 315.573 161.36C315.573 162.097 315.378 162.682 314.988 163.115C314.598 163.548 314.1 163.722 313.493 163.635C309.16 163.288 305.173 163.115 301.533 163.115C298.716 163.115 295.791 163.202 292.758 163.375C292.931 169.442 293.018 174.23 293.018 177.74L297.373 177.805C300.84 177.892 303.05 177.935 304.003 177.935C306.343 178.022 307.816 178.065 308.423 178.065C309.636 178.065 310.243 178.78 310.243 180.21C310.243 180.947 310.091 181.532 309.788 181.965C309.485 182.398 309.03 182.615 308.423 182.615L304.978 182.55C303.028 182.42 300.45 182.355 297.243 182.355C295.293 182.355 293.863 182.333 292.953 182.29C292.91 187.23 292.541 192.603 291.848 198.41C294.535 198.627 297.893 198.735 301.923 198.735C304.263 198.735 306.105 198.692 307.448 198.605C308.835 198.518 310.503 198.367 312.453 198.15Z" fill="url(#paint2_linear_16_178)"/>
<defs>
<linearGradient id="paint0_linear_16_178" x1="208.5" y1="0" x2="208.5" y2="108" gradientUnits="userSpaceOnUse">
<stop stop-color="#F3A40A"/>
<stop offset="1" stop-color="#BE2424"/>
</linearGradient>
<linearGradient id="paint1_linear_16_178" x1="272.5" y1="61" x2="272.5" y2="140" gradientUnits="userSpaceOnUse">
<stop stop-color="#F3A40A"/>
<stop offset="1" stop-color="#BE2424"/>
</linearGradient>
<linearGradient id="paint2_linear_16_178" x1="311.5" y1="135" x2="311.5" y2="243" gradientUnits="userSpaceOnUse">
<stop stop-color="#F3A40A"/>
<stop offset="1" stop-color="#BE2424"/>
</linearGradient>
</defs>
</svg>
